<?xml version="1.0" encoding="utf-8"?>
<!-- Generator: Adobe Illustrator 17.0.0, SVG Export Plug-In . SVG Version: 6.00 Build 0)  -->
<!DOCTYPE svg PUBLIC "-//W3C//DTD SVG 1.1//EN" "http://www.w3.org/Graphics/SVG/1.1/DTD/svg11.dtd">
<svg version="1.1" id="Layer_1" xmlns="http://www.w3.org/2000/svg" xmlns:xlink="http://www.w3.org/1999/xlink" x="0px" y="0px"
	 width="530.289px" height="124.784px" viewBox="0 0 530.289 124.784" enable-background="new 0 0 530.289 124.784"
	 xml:space="preserve">
<g>
	<g>
		<g>
			<path fill="#003658" d="M101.497,47.835c-11.983,0-19.455-8.045-19.455-17.018c0-8.612,8.147-18.367,19.665-18.367
				c4.877,0,10.014,1.97,11.102,2.803c0.364,0.312,0.88,4.046,0.987,7.263c0,0.258-0.831,0.207-0.884,0.051
				c-0.881-4.045-4.719-8.56-12.452-8.56c-7.78,0-13.645,5.498-13.645,14.889c0,11.468,7.732,17.279,15.152,17.279
				c5.394,0,10.738-3.218,11.154-8.511c0-0.154,0.986-0.209,0.986,0.104c-0.157,3.216-0.677,6.951-1.087,7.263
				C111.147,46.432,107.879,47.835,101.497,47.835z"/>
			<path fill="#003658" d="M130.552,47.003c-0.313,0.103-0.155-0.985,0-0.985c1.763-0.212,2.852,0.049,2.852-0.988
				c0-1.192-0.673-2.903-1.349-4.877l-0.936-2.749h-8.401l-1.194,2.749c-0.986,2.285-1.556,3.788-1.556,4.827
				c0,0.881,0.984,0.881,2.647,1.038c0.259,0,0.259,1.088-0.055,0.985c-1.191-0.154-2.801-0.209-4.462-0.209
				c-2.23,0-2.593,0-4.304,0.209c-0.311,0.053-0.156-0.985,0-0.985c2.592-0.212,3.942-1.61,5.914-5.967l8.612-18.834
				c0.104-0.259,0.621-0.312,0.727,0l7.471,18.834c1.866,4.184,1.586,5.686,4.693,5.967c0.154,0.014,0.26,1.088-0.053,0.985
				c-1.246-0.154-2.202-0.209-3.914-0.209C135.012,46.794,132.211,46.794,130.552,47.003z M123.338,35.845h7.214l-3.218-8.713
				L123.338,35.845z"/>
			<path fill="#003658" d="M142.257,45.326c-0.22-0.141-0.306-3.048-0.376-5.8c-0.021-0.262,0.916-0.234,0.926-0.13
				c0.635,3.904,2.96,6.835,6.996,6.503c2.791-0.232,4.567-2.047,4.36-4.528c-0.535-6.464-11.908-5.519-12.495-12.603
				c-0.296-3.568,2.604-7.505,7.361-7.9c2.275-0.186,3.779,0.366,5.189,1.028c0.327,0.183,0.915,2.267,1.135,4.905
				c0.011,0.154-1.023,0.24-1.035,0.086c-0.7-2.806-2.726-4.615-5.518-4.387c-2.429,0.202-4.141,1.542-3.944,3.921
				c0.515,6.205,11.668,5.126,12.286,12.57c0.351,4.238-2.653,8.183-7.565,8.591C146.731,47.82,144.414,46.864,142.257,45.326z"/>
			<path fill="#003658" d="M175.968,47.003c-1.45,0-3.89-0.209-6.796-0.209c-3.943,0-8.664,0-11.567,0.209
				c-0.31,0-0.157-0.985,0-0.985c3.944-0.468,4.305-0.988,4.305-5.916V28.376c0-4.927-0.361-5.55-4.305-5.966
				c-0.157,0-0.31-1.09,0-1.038c2.904,0.26,7.469,0.312,11.412,0.312c2.803,0,5.501-0.106,7.887-0.312
				c-0.26,0.832-0.26,1.92-0.26,2.697c0,0.418-0.053,1.557,0,1.816c0,0.105-0.986,0.156-0.986,0.055
				c-0.31-1.715-0.933-2.542-5.964-2.542h-3.374c-0.156,0.882-0.207,2.33-0.207,4.771v4.774h2.592c4.36,0,4.67-0.106,5.086-1.766
				c0-0.102,0.983-0.156,0.933,0.105c-0.156,0.572-0.207,2.178-0.207,3.059c0,0.469,0,1.869,0,2.232
				c0.101,0.053-0.987,0.104-0.987,0.053c-0.361-2.023-0.674-2.178-4.825-2.178h-2.592v5.135c0,4.98,0.259,5.446,2.023,5.446h2.022
				c5.967,0,6.124-0.829,6.694-3.368c0-0.055,1.038-0.055,1.038,0.1c-0.157,0.988-0.573,3.529-0.83,4.306
				C176.903,46.849,176.644,47.003,175.968,47.003z"/>
		</g>
		<g>
			<path fill="#003658" d="M367.339,21.413c-1.143,0.16-2.906,0.262-4.565,0.262c-2.283,0-3.581,0-5.137-0.262
				c-0.315-0.102-0.315,0.936-0.054,0.99c3.371,0.36,3.892,1.503,3.892,5.964v12.086l-18.108-18.726
				c-2.229,0-5.24-0.052-6.847-0.314c-0.311-0.102-0.209,0.99-0.052,0.99c1.762,0.207,5.032,2.594,5.032,4.357v13.334
				c0,4.236-0.668,5.483-3.429,5.748c-0.062,0.012-0.425,0.027-0.688-0.158c-5.917-4.854-5.847-7.957-7.238-11.506
				c3.061-1.297,4.929-3.84,4.929-6.432c0-4.152-3.741-6.065-10.741-6.383c-3.972-0.182-8.207-0.34-10.53,0.088
				c-0.311,0.058-0.052,1.039,0.156,0.934c0.57-0.104,1.057-0.023,1.47-0.023c1.815,0,2.628,1.489,2.628,6.005v11.727
				c0,4.928-0.621,5.549-3.994,5.91c-0.156,0-0.311,1.092,0,0.988c1.662-0.208,4.203-0.208,6.487-0.208
				c1.658,0,4.304,0.051,5.497,0.208c0.311,0.104,0.207-0.988,0.055-0.988c-3.533-0.312-3.893-1.244-3.893-5.91v-4.361
				c0.467,0.053,0.726,0.053,1.504,0.053c0.779,0,1.972-0.154,2.904-0.308c1.616,5.772,7.317,10.655,9.87,11.486
				c0.046,0.016,0.343,0.046,0.343,0.046l0.7-0.025c0.01,0,3.35-0.2,5.63-0.2c1.608,0,3.012,0.051,4.203,0.208
				c0.311,0.104,0.208-0.988,0.105-0.988c-3.58-0.312-3.943-1.76-3.943-5.91V27.587l19.349,19.666
				c0.315,0.31,0.936,0.104,0.936-0.051c-0.209-1.663-0.259-5.189-0.259-7.107V28.367c0-4.15,0.313-5.708,3.941-5.964
				C367.601,22.403,367.859,21.364,367.339,21.413z M323.644,34.283c-0.674,0-0.984-0.055-1.451-0.055v-6.225
				c0-2.803,0.104-4.306,0.312-5.033c0.568-0.05,0.726-0.101,1.293-0.101c4.517,0,7.007,1.555,7.007,5.914
				C330.805,32.31,328.783,34.283,323.644,34.283z"/>
			<path fill="#003658" d="M253.06,45.532c-0.213-0.151-0.17-1.146-0.085-3.901c-0.006-0.257,0.886-0.167,0.934-0.075
				c1.658,3.422,2.661,4.516,6.508,4.344c2.259-0.105,4.576-1.783,4.511-4.273c-0.161-6.482-11.571-6.195-11.751-13.301
				c-0.09-3.578,3.032-7.343,7.804-7.463c2.283-0.058,3.751,0.581,5.119,1.326c0.318,0.197,0.785,2.314,0.85,4.961
				c0.005,0.156-1.03,0.183-1.036,0.024c-0.538-2.839-2.455-4.764-5.255-4.692c-2.438,0.061-4.224,1.298-4.163,3.686
				c0.158,6.223,11.355,5.787,11.54,13.254c0.111,4.252-3.013,8.02-7.943,8.145C257.244,47.638,255.124,47.19,253.06,45.532z"/>
			<path fill="#003658" d="M217.841,47.458c-0.103,0.263-0.724,0.365-0.88-0.049l-7.835-21.998l-9.701,22.047
				c-0.103,0.263-0.777,0.365-0.934-0.049l-10.013-25.006c-2.492-6.227-3.321-7.993-7.419-8.355c-0.258,0-0.466-0.934,0.053-0.883
				c1.451,0.211,3.526,0.311,5.552,0.311c2.799,0,6.276-0.051,8.3-0.311c0.518-0.051,0.206,0.883,0.051,0.883
				c-2.385,0.209-3.685,0.521-3.685,1.918c0,1.093,1.193,4.672,1.87,6.332l7.417,18.47l7.681-17.743l-0.261-0.621
				c-2.541-6.072-3.11-7.993-7.053-8.355c-0.159,0-0.367-0.934,0.049-0.883c1.505,0.211,3.529,0.311,5.554,0.311
				c2.799,0,6.743-0.051,8.765-0.311c0.417-0.101,0.259,0.883,0.104,0.883c-3.217,0.26-4.254,0.622-4.254,2.18
				c0,1.143,0.52,3.008,1.556,6.07l6.279,18.47l7.42-18.73c1.191-3.062,1.865-4.668,1.865-6.018c0-1.297-0.827-1.713-3.371-1.973
				c-0.156,0-0.466-0.934,0.053-0.883c1.503,0.211,3.062,0.311,5.137,0.311c2.853,0,2.799-0.051,4.876-0.311
				c0.415-0.101,0.208,0.883,0.053,0.883c-3.268,0.311-4.306,2.542-6.747,8.355L217.841,47.458z"/>
			<path fill="#003658" d="M248.967,46.993c-1.452,0-3.889-0.208-6.795-0.208c-3.942,0-8.663,0-11.569,0.208
				c-0.312,0-0.155-0.988,0-0.988c3.943-0.466,4.306-0.983,4.306-5.91V28.367c0-4.927-0.363-5.551-4.306-5.964
				c-0.155,0-0.312-1.092,0-1.039c2.906,0.258,7.471,0.311,11.412,0.311c2.805,0,5.501-0.102,7.888-0.311
				c-0.257,0.829-0.257,1.918-0.257,2.696c0,0.413-0.053,1.556,0,1.817c0,0.105-0.988,0.156-0.988,0.051
				c-0.311-1.712-0.934-2.543-5.964-2.543h-3.374c-0.154,0.883-0.207,2.336-0.207,4.774v4.772h2.595
				c4.355,0,4.668-0.103,5.083-1.762c0-0.106,0.987-0.156,0.934,0.101c-0.153,0.569-0.208,2.181-0.208,3.064
				c0,0.466,0,1.865,0,2.229c0.104,0.052-0.984,0.104-0.984,0.052c-0.362-2.022-0.676-2.178-4.825-2.178h-2.595v5.134
				c0,4.983,0.26,5.45,2.022,5.45h2.025c5.964,0,6.122-0.83,6.69-3.374c0-0.053,1.038-0.053,1.038,0.103
				c-0.155,0.986-0.568,3.529-0.83,4.309C249.903,46.836,249.645,46.993,248.967,46.993z"/>
			<path fill="#003658" d="M291.26,26.55c0,0.158-0.935,0.105-0.935,0c-0.365-1.709-1.074-2.902-5.227-2.902h-2.785v16.447
				c0,4.615,0.312,5.599,3.942,5.91c0.155,0,0.261,1.037-0.155,0.988c-1.193-0.157-3.841-0.208-5.499-0.208
				c-2.229,0-4.774,0-6.383,0.208c-0.417,0.104-0.206-0.988-0.051-0.988c3.423-0.361,3.942-1.037,3.942-5.91V23.647h-2.996
				c-3.992,0-4.913,1.14-5.43,2.953c-0.207,0.055-0.989,0.055-0.934-0.102c0.155-0.828,0.294-2.801,0.258-3.889
				c-0.007-0.237-0.103-0.666-0.207-1.129c-0.036-0.161,0.807-0.154,0.934-0.049c0.803,0.65,2.104,0.392,5.379,0.397h9.984
				c3.146-0.006,5.062,0.253,5.485-0.397c0.089-0.143,1.038-0.105,0.934,0.102c-0.207,0.83-0.312,1.282-0.312,2.579
				C291.206,24.735,291.206,26.034,291.26,26.55z"/>
			<path fill="#003658" d="M310.871,46.993c-1.452,0-3.89-0.208-6.799-0.208c-3.941,0-8.662,0-11.568,0.208
				c-0.309,0-0.155-0.988,0-0.988c3.944-0.466,4.308-0.983,4.308-5.91V28.367c0-4.927-0.363-5.551-4.308-5.964
				c-0.155,0-0.309-1.092,0-1.039c2.906,0.258,7.471,0.311,11.414,0.311c2.802,0,5.501-0.102,7.889-0.311
				c-0.263,0.829-0.263,1.918-0.263,2.696c0,0.413-0.052,1.556,0,1.817c0,0.105-0.985,0.156-0.985,0.051
				c-0.31-1.712-0.935-2.543-5.965-2.543h-3.373c-0.156,0.883-0.21,2.336-0.21,4.774v4.772h2.596c4.36,0,4.67-0.103,5.085-1.762
				c0-0.106,0.985-0.156,0.933,0.101c-0.155,0.569-0.205,2.181-0.205,3.064c0,0.466,0,1.865,0,2.229
				c0.103,0.052-0.987,0.104-0.987,0.052c-0.363-2.022-0.674-2.178-4.825-2.178h-2.596v5.134c0,4.983,0.263,5.45,2.025,5.45h2.022
				c5.968,0,6.125-0.83,6.694-3.374c0-0.053,1.036-0.053,1.036,0.103c-0.154,0.986-0.57,3.529-0.829,4.309
				C311.806,46.836,311.543,46.993,310.871,46.993z"/>
		</g>
		<g>
			<path fill="#003658" d="M425.097,45.541c-0.211-0.147-0.171-1.145-0.083-3.897c-0.007-0.261,0.888-0.169,0.931-0.072
				c1.66,3.416,2.662,4.515,6.511,4.338c2.257-0.104,4.573-1.783,4.514-4.271c-0.165-6.482-11.575-6.195-11.754-13.301
				c-0.088-3.58,3.033-7.342,7.803-7.463c2.284-0.057,3.754,0.581,5.12,1.325c0.316,0.198,0.787,2.313,0.854,4.959
				c0.001,0.156-1.034,0.183-1.04,0.026c-0.537-2.839-2.453-4.764-5.254-4.693c-2.439,0.06-4.223,1.299-4.163,3.684
				c0.155,6.226,11.353,5.789,11.541,13.258c0.106,4.252-3.016,8.019-7.941,8.145C429.281,47.651,427.164,47.205,425.097,45.541z"/>
			<path fill="#003658" d="M388.219,31.645c-0.882,0.212-2.075,0.261-3.217,0.261c-0.984,0-1.297-0.049-1.972-0.104v6.125
				c0,7.416-0.051,7.781,4.774,8.197c0.261,0,0.362,1.088-0.054,0.984c-1.657-0.209-4.252-0.312-6.43-0.312
				c-3.065,0-5.449,0-7.628,0.312c-0.518,0.052-0.31-0.935-0.052-0.984c4.567-0.521,4.875-0.416,4.875-8.197v-15.62
				c0-5.86-0.153-7.677-3.111-7.677c-0.52,0-1.246,0.053-1.973,0.209c-0.154,0.051-0.569-0.779-0.049-0.934
				c2.125-0.677,7.312-0.883,12.968-0.883c7.578,0,13.801,2.281,13.801,8.092c0,2.906-2.331,7.318-7.73,9.495
				c5.033,7.056,5.312,22.281,17.934,23.111c1.863,0.119,2.114-0.011,4.004-0.521c0.319-0.085,0.754,0.728,0.363,0.881
				c-2.793,1.101-4.583,1.31-7.273,1.093C393.726,54.058,392.527,38.184,388.219,31.645z M383.397,14.577
				c-0.263,1.038-0.366,3.426-0.366,7.264v8.611c0.675,0.055,1.09,0,1.921,0c7.833,0,10.53-2.852,10.53-7.107
				c0-7.055-4.614-8.924-9.803-8.924C384.902,14.421,384.277,14.476,383.397,14.577z"/>
			<path fill="#003658" d="M420.734,47.005c-1.453,0-3.891-0.209-6.797-0.209c-3.941,0-8.026,0-10.93,0.209
				c-0.313,0-0.155-0.987,0-0.987c3.942-0.468,3.668-0.985,3.668-5.915V28.378c0-4.928-0.363-5.55-4.308-5.965
				c-0.153,0-0.312-1.09,0-1.041c2.907,0.262,7.472,0.314,11.417,0.314c2.801,0,5.496-0.107,7.883-0.314
				c-0.258,0.834-0.258,1.922-0.258,2.701c0,0.414-0.053,1.556,0,1.814c0,0.105-0.986,0.154-0.986,0.053
				c-0.311-1.713-0.934-2.542-5.964-2.542h-3.375c-0.158,0.882-0.207,2.332-0.207,4.771v4.775h2.595
				c4.357,0,4.671-0.104,5.083-1.766c0-0.104,0.984-0.153,0.935,0.106c-0.155,0.572-0.209,2.178-0.209,3.059
				c0,0.471,0,1.869,0,2.232c0.104,0.053-0.983,0.105-0.983,0.053c-0.364-2.023-0.677-2.178-4.825-2.178h-2.595v5.135
				c0,4.981,0.258,5.447,2.022,5.447h2.025c5.964,0,6.122-0.83,6.692-3.371c0-0.055,1.035-0.055,1.035,0.102
				c-0.154,0.988-0.568,3.53-0.829,4.307C421.667,46.851,421.41,47.005,420.734,47.005z"/>
			<path fill="#003658" d="M459.464,47.005c-1.451,0-3.888-0.209-6.796-0.209c-3.942,0-8.663,0-11.567,0.209
				c-0.312,0-0.157-0.987,0-0.987c3.942-0.468,4.305-0.985,4.305-5.915V28.378c0-4.928-0.362-5.55-4.305-5.965
				c-0.157,0-0.312-1.09,0-1.041c2.904,0.262,7.468,0.314,11.413,0.314c2.801,0,5.499-0.107,7.886-0.314
				c-0.262,0.834-0.262,1.922-0.262,2.701c0,0.414-0.049,1.556,0,1.814c0,0.105-0.985,0.154-0.985,0.053
				c-0.31-1.713-0.934-2.542-5.964-2.542h-3.373c-0.156,0.882-0.205,2.332-0.205,4.771v4.775h2.591c4.359,0,4.669-0.104,5.087-1.766
				c0-0.104,0.986-0.153,0.931,0.106c-0.155,0.572-0.206,2.178-0.206,3.059c0,0.471,0,1.869,0,2.232
				c0.103,0.053-0.985,0.105-0.985,0.053c-0.366-2.023-0.672-2.178-4.826-2.178h-2.591v5.135c0,4.981,0.257,5.447,2.02,5.447h2.025
				c5.967,0,6.121-0.83,6.693-3.371c0-0.055,1.039-0.055,1.039,0.102c-0.158,0.988-0.574,3.53-0.833,4.307
				C460.4,46.851,460.138,47.005,459.464,47.005z"/>
			<path fill="#003658" d="M471.694,35.798c-0.776,0-1.036,0-1.501-0.051v4.355c0,4.672,0.358,5.605,3.889,5.915
				c0.156,0,0.262,1.091-0.053,0.987c-1.193-0.154-3.836-0.209-5.5-0.209c-2.283,0-4.823,0-6.485,0.209
				c-0.309,0.103-0.153-0.987,0-0.987c3.372-0.362,3.996-0.985,3.996-5.915V28.378c0-4.512-0.823-6.056-2.64-6.056
				c-0.416,0-0.404,0.009-0.974,0.112c-0.207,0.103-0.458-0.849-0.154-0.934c1.783-0.492,6.065-0.1,10.046-0.129
				c7.001-0.043,10.74,2.233,10.74,6.384c0,2.593-1.869,5.136-4.932,6.434c2.078,5.292,7.642,12.452,12.158,12.452
				c0.154,0,0.311,0.986,0,0.986c-8.51,0-13.973-6.021-15.686-12.143C473.667,35.642,472.472,35.798,471.694,35.798z
				 M470.501,22.981c-0.207,0.729-0.309,2.234-0.309,5.034v6.226c0.465,0,0.775,0.053,1.451,0.053c5.134,0,7.16-1.973,7.16-5.501
				c0-4.356-2.492-5.914-7.006-5.914C471.23,22.879,471.073,22.929,470.501,22.981z"/>
			<path fill="#003658" d="M496.621,47.265c-0.053,0.153-0.676,0.258-0.832-0.053l-8.194-18.779
				c-1.867-4.258-3.063-5.759-6.173-6.02c-0.158,0-0.315-1.09,0-0.988c1.242,0.154,3.578,0.262,5.185,0.262
				c2.282,0,5.139,0,6.694-0.262c0.312-0.102,0.312,0.935,0.05,0.988c-1.712,0.206-2.695,0.309-2.695,1.346
				c0,0.729,0.205,2.078,1.296,4.568l5.655,12.813l5.602-12.813c1.246-2.907,1.404-3.634,1.404-4.568
				c0-0.88-0.832-1.191-2.543-1.346c-0.156,0-0.314-1.09,0-0.988c1.193,0.154,2.801,0.262,4.457,0.262
				c2.337,0,2.467-0.053,4.254-0.03c0.329,0.003,0.263,0.757,0.105,0.757c-2.435,0.261-3.839,1.453-5.861,6.02L496.621,47.265z"/>
			<path fill="#003658" d="M525.878,47.005c-1.453,0-3.891-0.209-6.798-0.209c-3.942,0-8.662,0-11.566,0.209
				c-0.313,0-0.158-0.987,0-0.987c3.941-0.468,4.304-0.985,4.304-5.915V28.378c0-4.928-0.362-5.55-4.304-5.965
				c-0.158,0-0.287-0.754,0.029-0.757c2.837-0.044,7.438,0.03,11.383,0.03c2.802,0,5.499-0.107,7.886-0.314
				c-0.26,0.834-0.26,1.922-0.26,2.701c0,0.414-0.051,1.556,0,1.814c0,0.105-0.984,0.154-0.984,0.053
				c-0.312-1.713-0.934-2.542-5.967-2.542h-3.373c-0.154,0.882-0.207,2.332-0.207,4.771v4.775h2.596
				c4.356,0,4.668-0.104,5.082-1.766c0-0.104,0.984-0.153,0.936,0.106c-0.154,0.572-0.209,2.178-0.209,3.059
				c0,0.471,0,1.869,0,2.232c0.105,0.053-0.984,0.105-0.984,0.053c-0.364-2.023-0.677-2.178-4.824-2.178h-2.596v5.135
				c0,4.981,0.258,5.447,2.022,5.447h2.024c5.965,0,6.123-0.83,6.692-3.371c0-0.055,1.038-0.055,1.038,0.102
				c-0.154,0.988-0.571,3.53-0.832,4.307C526.812,46.851,526.552,47.005,525.878,47.005z"/>
		</g>
		<g>
			<path fill="#003658" d="M102.042,68.388c0,4.034-3.046,7.439-8.347,7.439c-4.591,0-8.508-2.893-8.508-7.641v-6.962
				c0-3.76-0.433-4.273-3.004-4.587c-0.12,0-0.199-0.794,0.036-0.715c1.227,0.199,3.125,0.16,4.907,0.16
				c1.264,0,3.245-0.042,4.193-0.16c0.24-0.079,0.24,0.715,0.042,0.715c-2.692,0.234-2.928,1.027-2.928,4.587v6.291
				c0,4.626,3.004,6.685,6.052,6.685c3.995,0,6.094-2.135,6.094-6.209v-7.042c0-3.403-0.435-3.997-3.007-4.312
				c-0.195-0.041-0.195-0.794,0.038-0.715c1.228,0.199,2.138,0.16,3.878,0.16c1.23,0,2.533-0.042,3.443-0.16
				c0.317-0.038,0.16,0.715,0.079,0.715c-2.729,0.234-2.968,1.105-2.968,4.312V68.388"/>
			<path fill="#003658" d="M138.192,70.128c0,1.462,0.039,4.155,0.196,5.417c0,0.121-0.475,0.282-0.711,0.042l-14.761-14.994v9.535
				c0,3.163,0.279,4.272,3.008,4.509c0.08,0,0.159,0.831-0.079,0.751c-0.91-0.117-1.977-0.155-3.204-0.155
				c-1.741,0-3.006,0-4.274,0.155c-0.196,0.043-0.117-0.751,0-0.751c2.613-0.274,3.008-1.147,3.008-4.509v-10.17
				c0-1.344-2.493-3.161-3.837-3.32c-0.12,0-0.199-0.832,0.038-0.753c1.228,0.198,3.523,0.237,5.223,0.237l13.809,14.285v-9.221
				c0-3.402-0.396-4.273-2.97-4.549c-0.195-0.041-0.195-0.832,0.04-0.753c1.189,0.198,2.176,0.198,3.917,0.198
				c1.268,0,2.61-0.082,3.485-0.198c0.392-0.041,0.195,0.753,0.117,0.753c-2.769,0.197-3.007,1.381-3.007,4.549V70.128"/>
			<path fill="#003658" d="M160.975,75.232c-1.782,0-3.678,0-4.947,0.155c-0.318,0.08-0.119-0.751-0.042-0.751
				c2.613-0.274,3.008-0.79,3.008-4.509v-8.941c0-3.761-0.396-4.273-3.008-4.549c-0.077,0-0.233-0.794,0.082-0.753
				c1.229,0.198,3.125,0.198,4.907,0.198c1.186,0,3.244-0.082,4.155-0.198c0.317-0.041,0.156,0.753,0.077,0.753
				c-2.73,0.197-3.006,1.027-3.006,4.549v8.941c0,3.519,0.276,4.272,3.006,4.509c0.08,0,0.241,0.794-0.077,0.751
				C164.219,75.271,162.161,75.232,160.975,75.232"/>
			<path fill="#003658" d="M190.188,75.587c-0.042,0.121-0.519,0.199-0.635-0.042l-6.253-14.32c-1.423-3.243-2.334-4.39-4.706-4.587
				c-0.118,0-0.241-0.832,0-0.753c0.947,0.116,2.729,0.198,3.956,0.198c1.743,0,3.917,0,5.105-0.198
				c0.236-0.079,0.236,0.712,0.038,0.753c-1.303,0.159-2.055,0.234-2.055,1.027c0,0.552,0.159,1.579,0.988,3.48l4.312,9.773
				l4.273-9.773c0.95-2.215,1.067-2.77,1.067-3.48c0-0.674-0.634-0.909-1.939-1.027c-0.117,0-0.237-0.832,0-0.753
				c0.912,0.116,2.137,0.198,3.403,0.198c1.781,0,2.057,0,3.284-0.198c0.238-0.079,0.161,0.753,0.039,0.753
				c-1.857,0.197-2.925,1.105-4.471,4.587L190.188,75.587"/>
			<path fill="#003658" d="M227.273,75.388c-1.111,0-2.968-0.155-5.183-0.155c-3.006,0-6.609,0-8.824,0.155
				c-0.239,0-0.118-0.751,0-0.751c3.006-0.354,3.286-0.752,3.286-4.509v-8.941c0-3.761-0.28-4.234-3.286-4.549
				c-0.118,0-0.239-0.832,0-0.794c2.215,0.197,5.697,0.239,8.704,0.239c2.137,0,4.191-0.082,6.014-0.239
				c-0.195,0.636-0.195,1.462-0.195,2.056c0,0.317-0.041,1.191,0,1.387c0,0.079-0.753,0.117-0.753,0.04
				c-0.238-1.308-0.713-1.94-4.551-1.94h-2.572c-0.12,0.675-0.159,1.782-0.159,3.641v3.641h1.978c3.325,0,3.561-0.077,3.878-1.347
				c0-0.077,0.75-0.116,0.713,0.08c-0.119,0.436-0.162,1.661-0.162,2.334c0,0.356,0,1.427,0,1.702
				c0.082,0.041-0.746,0.079-0.746,0.041c-0.279-1.545-0.52-1.663-3.683-1.663h-1.978v3.918c0,3.797,0.195,4.152,1.541,4.152h1.544
				c4.551,0,4.669-0.631,5.107-2.57c0-0.039,0.787-0.039,0.787,0.08c-0.119,0.747-0.43,2.689-0.631,3.284
				C227.985,75.271,227.79,75.388,227.273,75.388"/>
			<path fill="#003658" d="M251.808,66.842c-0.594,0-0.793,0-1.147-0.037v3.323c0,3.561,0.275,4.272,2.964,4.509
				c0.12,0,0.199,0.831-0.037,0.751c-0.912-0.117-2.927-0.155-4.194-0.155c-1.74,0-3.679,0-4.945,0.155
				c-0.24,0.08-0.12-0.751,0-0.751c2.57-0.274,3.045-0.752,3.045-4.509v-8.941c0-3.443-0.632-4.195-2.019-4.195
				c-0.316,0-0.673,0.041-1.104,0.121c-0.162,0.076-0.36-0.674-0.119-0.717c1.263-0.395,4.786-0.552,8.027-0.552
				c5.345,0,8.191,1.702,8.191,4.868c0,1.977-1.424,3.917-3.758,4.904c1.583,4.039,5.343,9.495,8.782,9.495
				c0.12,0,0.239,0.753,0,0.753c-6.486,0-10.163-4.589-11.472-9.258C253.309,66.724,252.399,66.842,251.808,66.842 M250.896,57.069
				c-0.159,0.557-0.236,1.701-0.236,3.841v4.748c0.355,0,0.59,0.038,1.105,0.038c3.919,0,5.463-1.503,5.463-4.193
				c0-3.326-1.898-4.512-5.345-4.512C251.449,56.991,251.33,57.032,250.896,57.069z"/>
			<path fill="#003658" d="M279.404,74.006c-0.168-0.107-0.188-2.326-0.205-4.427c-0.016-0.197,0.703-0.164,0.71-0.088
				c0.427,2.987,2.16,5.255,5.237,5.057c2.135-0.135,3.513-1.495,3.393-3.391c-0.318-4.933-9.004-4.375-9.355-9.784
				c-0.172-2.726,2.094-5.688,5.727-5.921c1.733-0.109,2.875,0.336,3.939,0.858c0.248,0.141,0.669,1.742,0.797,3.755
				c0.01,0.118-0.782,0.169-0.791,0.05c-0.491-2.146-2.008-3.555-4.142-3.418c-1.858,0.118-3.179,1.115-3.064,2.932
				c0.306,4.739,8.826,4.07,9.193,9.755c0.208,3.239-2.138,6.204-5.891,6.448C282.779,75.97,281.027,75.212,279.404,74.006"/>
			<path fill="#003658" d="M311.968,75.232c-1.781,0-3.683,0-4.947,0.155c-0.315,0.08-0.117-0.751-0.04-0.751
				c2.612-0.274,3.009-0.79,3.009-4.509v-8.941c0-3.761-0.396-4.273-3.009-4.549c-0.077,0-0.237-0.794,0.083-0.753
				c1.222,0.198,3.123,0.198,4.904,0.198c1.188,0,3.246-0.082,4.154-0.198c0.32-0.041,0.156,0.753,0.079,0.753
				c-2.73,0.197-3.005,1.027-3.005,4.549v8.941c0,3.519,0.275,4.272,3.005,4.509c0.077,0,0.241,0.794-0.079,0.751
				C315.214,75.271,313.156,75.232,311.968,75.232"/>
			<path fill="#003658" d="M349.793,59.801c0,0.118-0.717,0.081-0.717,0c-0.275-1.304-1.306-2.216-4.467-2.216h-1.908v12.543
				c0,3.519,0.241,4.272,3.008,4.509c0.117,0,0.198,0.794-0.118,0.751c-0.914-0.117-2.93-0.155-4.195-0.155
				c-1.702,0-3.641,0-4.867,0.155c-0.315,0.08-0.158-0.751-0.04-0.751c2.614-0.274,3.007-0.79,3.007-4.509V57.585h-2.062
				c-3.045,0-4.234,0.871-4.625,2.256c-0.164,0.041-0.758,0.041-0.717-0.08c0.121-0.633,0.148-2.182,0.148-3.014
				c0-0.123-0.071-0.325-0.11-0.506c-0.022-0.123,0.635-0.134,0.713-0.04c0.298,0.343,0.318,0,4.592,0h7.177
				c4.233,0,4.43,0.36,4.669,0c0.07-0.104,0.79-0.079,0.711,0.08c-0.158,0.632-0.24,0.671-0.24,1.66
				C349.749,58.417,349.749,59.403,349.793,59.801"/>
			<path fill="#003658" d="M384.444,56.797c-4.827,0-8.35,5.931-8.35,12.58v0.751c0,3.561,0.24,4.272,2.968,4.509
				c0.123,0,0.199,0.831-0.035,0.751c-0.95-0.117-2.967-0.155-4.196-0.155c-1.739,0-3.683,0-4.946,0.155
				c-0.316,0.08-0.117-0.751-0.039-0.751c2.61-0.274,3.047-0.79,3.047-4.509v-0.751c0-7.241-3.957-12.542-8.587-12.542
				c-0.396,0-0.751,0.037-1.107,0.117c-0.081,0-0.277-0.676-0.041-0.713c0.99-0.354,2.059-0.594,3.007-0.594
				c4.393,0,8.032,3.402,9.222,7.832c1.777-4.941,4.944-7.634,8.507-7.634c0.634,0,2.003,0.157,2.634,0.396
				c0.238,0.037,0,0.793-0.156,0.713C385.896,56.835,384.96,56.797,384.444,56.797"/>
		</g>
	</g>
	<g>
		<g>
			<g>
				<path fill="#003658" d="M436.34,84.169l-0.141-0.16c-0.105-0.179-0.042-0.455,0.031-0.583l0.066-0.118l0.327-0.053
					c1.966-0.211,1.966-0.211,1.966-3.359v-6.852c0-3.172,0-3.172-1.968-3.403l-0.182-0.022c-0.002,0-0.002,0-0.004,0
					c-0.223,0-0.303-0.333-0.303-0.494c0-0.088,0.02-0.167,0.062-0.228c0.059-0.096,0.16-0.146,0.275-0.146
					c1.547,0.103,3.697,0.158,6.251,0.158c1.821,0,3.313-0.052,4.573-0.157l0.342-0.031l-0.105,0.329
					c-0.123,0.394-0.151,0.77-0.151,1.255c0,0.221,0,0.664,0.024,0.84l0.013,0.098l-0.07,0.109
					c-0.065,0.081-0.172,0.121-0.321,0.121c-0.119,0-0.406-0.022-0.479-0.225c-0.148-0.805-0.339-1.147-3.436-1.147h-1.992
					c-0.073,0.651-0.086,1.738-0.086,2.83v2.693h2.124c2.122,0,2.144-0.116,2.214-0.456l0.03-0.144
					c0.028-0.091,0.103-0.206,0.321-0.206c0,0,0.373,0.008,0.5,0.148l0.086,0.094l-0.031,0.122c-0.078,0.3-0.127,0.819-0.127,1.358
					c0,0.241,0,0.683,0.02,0.861l0.012,0.084l-0.052,0.106c-0.064,0.101-0.184,0.148-0.366,0.148c-0.172,0-0.389-0.039-0.453-0.217
					c-0.111-0.592-0.158-0.825-2.153-0.825h-2.124v3.108c0,3.011,0.398,3.011,1.188,3.011h1.211c3.447,0,3.511-0.277,3.815-1.623
					c-0.005-0.047,0.045-0.209,0.366-0.209c0.212,0,0.358,0.049,0.438,0.146l0.07,0.082l-0.013,0.144
					c-0.087,0.552-0.292,1.638-0.44,2.143c-0.147,0.547-0.404,0.646-0.857,0.646c-0.35,0-0.811-0.021-1.35-0.043
					c-0.753-0.034-1.66-0.072-2.648-0.072c-2.009,0-4.542,0.016-6.308,0.139H436.34L436.34,84.169z"/>
			</g>
			<g>
				<path fill="#003658" d="M454.589,84.487c-1.634,0-3-0.502-4.303-1.582c-0.156-0.128-0.151-0.336-0.049-1.738
					c0.034-0.434,0.076-0.936,0.102-1.466c0-0.038,0.02-0.299,0.438-0.299c0.402,0,0.433,0.221,0.433,0.288
					c0.163,2.334,1.438,3.629,3.586,3.629c1.294,0,2.807-0.64,2.807-2.44c0-1.72-1.553-2.624-3.201-3.581
					c-1.805-1.05-3.67-2.134-3.67-4.392c0-2.15,1.898-4.454,4.728-4.454c1.505,0,2.411,0.384,3.101,0.761
					c0.307,0.151,0.463,1.056,0.463,2.688c0,0.073-0.033,0.312-0.459,0.312l-0.388-0.064l-0.07-0.226
					c-0.246-1.509-1.228-2.326-2.829-2.326c-1.217,0-2.51,0.735-2.51,2.098c0,1.604,1.468,2.454,3.023,3.357
					c1.743,1.008,3.716,2.156,3.716,4.567C459.505,82.351,457.345,84.487,454.589,84.487L454.589,84.487z"/>
			</g>
			<g>
				<path fill="#003658" d="M463.91,84.172c-0.141,0-0.293-0.103-0.314-0.326c-0.021-0.202,0.058-0.52,0.294-0.567
					c1.919-0.196,1.919-0.196,1.919-3.383v-9.635h-0.444c-2.596,0-2.688,0.365-2.909,1.244l-0.072,0.271l-0.131,0.03
					c-0.075,0.02-0.178,0.021-0.219,0.021c-0.219,0-0.34-0.04-0.409-0.137l-0.068-0.096l0.034-0.131
					c0.062-0.331,0.1-0.973,0.1-1.821c0-0.331-0.03-0.478-0.083-0.722l-0.042-0.208l0.05-0.108c0.086-0.138,0.275-0.165,0.422-0.165
					c0.169,0,0.284,0.037,0.353,0.117c0.427,0.47,0.597,0.48,2.087,0.458l4.127-0.013c0.465,0.004,0.854,0.013,1.187,0.021
					c1.41,0.034,1.681,0.005,1.956-0.432c0.029-0.047,0.094-0.146,0.4-0.146c0.181,0,0.302,0.048,0.369,0.146l0.069,0.099
					l-0.041,0.147c-0.107,0.498-0.167,0.774-0.167,1.514c0,0.334,0,0.895,0.041,1.15l0.016,0.094l-0.061,0.092
					c-0.046,0.068-0.134,0.137-0.41,0.137c-0.105,0-0.411,0-0.411-0.263l-0.022-0.074c-0.166-0.842-0.244-1.225-2.926-1.225h-0.324
					v9.635c0,3.235,0,3.235,1.907,3.381c0.004,0,0.004,0,0.004,0c0.202,0,0.316,0.234,0.316,0.464c0,0.253-0.15,0.429-0.363,0.429
					c-0.686-0.087-1.779-0.139-2.829-0.139c-1.35,0-2.381,0.023-3.354,0.135L463.91,84.172L463.91,84.172z"/>
			</g>
			<path fill="#003658" d="M471.83,82.695c0-0.683,0.527-1.333,1.331-1.333c0.743,0,1.304,0.62,1.304,1.271
				c0,0.685-0.591,1.335-1.366,1.335C472.357,83.968,471.83,83.347,471.83,82.695z"/>
			<g>
				<path fill="#003658" d="M490.523,84.302l-0.031-0.007c-0.674-0.091-1.711-0.091-2.624-0.091c-0.95,0-2.024,0-2.716,0.095
					c-0.133,0.014-0.255-0.053-0.307-0.203c-0.019-0.056-0.026-0.12-0.026-0.192c0-0.312,0.114-0.498,0.304-0.498
					c1.537-0.186,1.566-0.187,1.566-1.833V77.47c0-1.231-0.199-1.325-0.477-1.325c-0.17,0-0.408,0.052-0.727,0.159
					c-0.254,0.012-0.389-0.153-0.439-0.297c-0.065-0.186-0.024-0.365,0.103-0.467l0.268-0.151c0.959-0.538,2.276-1.272,2.996-1.947
					l0.067-0.062l0.113-0.011c0.145,0,0.365,0.111,0.466,0.231l0.067,0.086l0.008,0.183c-0.113,0.449-0.14,2.487-0.14,3.502v4.201
					c0,1.647,0,1.647,1.568,1.835c0,0,0.001,0,0.004,0c0.159,0,0.272,0.185,0.272,0.494c0,0.381-0.245,0.4-0.293,0.4H490.523
					L490.523,84.302z"/>
			</g>
			<g>
				<path fill="#003658" d="M497.212,84.569c-2.77,0-4.939-1.86-4.939-4.235c0-1.76,1.258-3.331,3.463-4.361
					c-1.322-0.882-2.613-2.009-2.613-3.869c0-2.596,2.113-4.552,4.916-4.552c2.321,0,4.21,1.693,4.21,3.776
					c0,1.61-0.838,2.799-2.788,3.92c1.57,1.003,3.127,2.275,3.127,4.403C502.587,82.455,500.277,84.569,497.212,84.569
					L497.212,84.569z M496.985,76.736c-1.667,0.854-2.384,1.933-2.384,3.598c0,1.983,1.461,3.023,2.904,3.023
					c1.763,0,2.95-1.07,2.95-2.66c0-1.883-1.646-2.869-3.388-3.912L496.985,76.736L496.985,76.736z M497.601,68.741
					c-1.379,0-2.271,0.899-2.271,2.295c0,1.553,1.268,2.474,2.947,3.494c1.17-0.774,1.788-1.837,1.788-3.082
					C500.066,69.88,499.031,68.741,497.601,68.741L497.601,68.741z"/>
			</g>
			<g>
				<path fill="#003658" d="M513.308,84.301c-0.324,0-0.803-0.016-1.356-0.036c-0.778-0.027-1.712-0.061-2.603-0.061
					c-2.052,0-3.534,0-5.057,0.097l0,0c-0.278,0-0.403-0.353-0.444-0.504c-0.091-0.328,0.015-0.469,0.118-0.529
					c4.432-2.32,6.32-4.314,6.32-6.674c0-1.615-0.892-2.658-2.27-2.658c-1.012,0-1.786,0.374-2.678,1.289l-0.067,0.069l-0.146,0.02
					c-0.207,0-0.381-0.2-0.445-0.335c-0.068-0.147-0.061-0.29,0.024-0.396c1.22-1.667,2.605-2.515,4.112-2.515
					c2.24,0,3.869,1.577,3.869,3.747c0,2.201-2.178,4.588-4.531,6.156h2.628c2.29,0,2.459-0.18,2.585-1.443
					c0-0.161,0.16-0.253,0.465-0.253c0.353,0,0.406,0.172,0.406,0.275c0.079,0.601-0.125,2.796-0.226,3.167
					C513.949,83.971,513.798,84.301,513.308,84.301L513.308,84.301z"/>
			</g>
			<g>
				<path fill="#003658" d="M521.755,84.569c-3.763,0-5.477-2.965-5.477-5.717c0-4.017,3.401-9.064,10.996-11.292l0.092-0.013
					c0.231,0,0.371,0.225,0.404,0.428c0.033,0.211-0.049,0.383-0.213,0.438c-7.812,2.911-8.656,8.254-8.656,10.415
					c0,2.695,1.362,4.65,3.24,4.65c1.482,0,2.443-1.284,2.443-3.267c0-1.94-0.963-3.146-2.514-3.146
					c-0.393,0-0.94,0.209-1.166,0.354l-0.139,0.041c-0.231,0-0.496-0.348-0.529-0.481l-0.039-0.178l0.169-0.096
					c0.663-0.706,1.801-1.214,2.771-1.214c2.593,0,3.992,2.144,3.992,4.16C527.13,82.315,524.668,84.569,521.755,84.569
					L521.755,84.569z"/>
			</g>
		</g>
		<rect x="82.439" y="82.633" fill="#003658" width="346.1" height="1.604"/>
	</g>
</g>
<rect x="0" y="0" fill="#003658" width="69.415" height="84.191"/>
<path fill="#FFFFFF" d="M62.241,34.12c-0.521-0.019-0.523,0.635-0.523,0.635l-1.081,40.228L35.75,74.768
	c-0.801-2.552-2.414-6.229-3.202-7.98l21.508,5.492v-0.003c0.037,0.006,0.072,0.012,0.112,0.012c0.275,0,0.499-0.23,0.499-0.517
	c0-0.221-0.134-0.406-0.324-0.479l0.002-0.009c-0.188-0.069-15.182-5.482-21.193-7.65l22.834-1.076v-0.01
	c0.263-0.016,0.47-0.239,0.47-0.513c0-0.273-0.208-0.495-0.47-0.512v-0.008l-23.714-1.04l23.5-8.851v-0.006
	c0.177-0.078,0.306-0.261,0.306-0.476c0-0.284-0.225-0.515-0.501-0.515c-0.04,0-0.079,0.006-0.114,0.015l-0.004-0.011L30.682,57.63
	l25.397-21.233c0.118-0.093,0.193-0.235,0.193-0.4c0-0.284-0.226-0.516-0.499-0.516c-0.138,0-0.219,0.062-0.35,0.149L29.074,54.806
	l24.401-36.22c0.055-0.085,0.087-0.185,0.087-0.294c0-0.285-0.221-0.515-0.501-0.515c-0.184,0-0.291,0.073-0.427,0.257L26.38,52.755
	l9.528-32.66c0.015-0.049,0.026-0.101,0.026-0.153c0-0.287-0.223-0.518-0.499-0.518c-0.226,0-0.412,0.151-0.475,0.36L23.424,51.289
	c0,0-0.311-28.882-0.311-28.885c0-0.284-0.225-0.515-0.501-0.515c-0.276,0-0.501,0.23-0.501,0.515c0,0.005,0,0.011,0,0.014
	c-0.066,0.985-1.473,21.532-1.943,28.376l-6.864-20.642c-0.097-0.333-0.289-0.603-0.674-0.513c-0.489,0.114-0.319,0.745-0.319,0.745
	l4.72,21.086c-2.352-1.145-4.871-2.053-7.517-2.703L8.861,9.053l28.406-1.329c0,0,0.676,0.031,0.676-0.508
	c0-0.576-0.696-0.533-0.696-0.533H6.743L6.968,77.38l55.763-0.229v-42.38C62.731,34.771,62.749,34.138,62.241,34.12z M9.939,74.543
	L9.555,51.071c13.694,5.044,20.696,15.476,24.202,23.681L9.939,74.543z"/>
<g>
	<path fill="#003658" d="M252.865,107.4v6.182c0,2.537,0.351,3.509,1.809,3.509c0.756,0,2.159-0.135,2.159-0.135l0.108,1.89
		c0,0-1.593,0.297-2.538,0.297c-2.726,0-3.806-1.35-3.806-4.967V107.4h-1.808v-2.024h1.808v-4.103h2.268v4.103h3.914v2.024H252.865z
		"/>
	<path fill="#003658" d="M259.253,118.845v-19.3h2.294v6.397c0,0,2.16-0.864,3.806-0.864c3.59,0,4.535,2.214,4.535,6.722v7.045
		h-2.294v-7.019c0-3.05-0.378-4.669-2.618-4.669c-1.512,0-3.428,0.729-3.428,0.729v10.959H259.253z"/>
	<path fill="#003658" d="M273.226,100.085h2.294v2.564h-2.294V100.085z M273.226,105.375h2.294v13.47h-2.294V105.375z"/>
	<path fill="#003658" d="M278.93,118.845v-13.47h2.295v0.837c0,0,2.024-1.134,3.832-1.134c3.591,0,4.508,2.214,4.508,6.748v7.019
		h-2.267v-6.991c0-3.05-0.378-4.696-2.618-4.696c-1.646,0-3.455,0.917-3.455,0.917v10.771H278.93z"/>
	<path fill="#003658" d="M293.033,118.845v-19.3h2.294v11.202l1.727-0.108l3.753-5.264h2.564l-4.265,6.235l4.373,7.234h-2.592
		l-3.779-6.02l-1.781,0.135v5.885H293.033z"/>
	<path fill="#003658" d="M322.622,111.881c0,4.75-1.62,7.261-6.371,7.261c-1.564,0-4.453-0.297-4.453-0.297v-19.3h2.294v6.343
		c0,0,1.782-0.81,3.564-0.81C321.19,105.079,322.622,107.67,322.622,111.881z M320.273,111.908c0-2.834-0.729-4.777-2.861-4.777
		c-1.781,0-3.32,0.647-3.32,0.647v9.231c0,0,1.458,0.108,2.133,0.108C319.652,117.118,320.273,114.824,320.273,111.908z"/>
	<path fill="#003658" d="M335.157,116.874l0.055,1.755c0,0-2.672,0.513-5.021,0.513c-4.021,0-5.451-2.591-5.451-6.938
		c0-4.75,2.078-7.126,5.587-7.126c3.509,0,5.372,2.105,5.372,6.263l-0.136,1.7h-8.503c0,2.321,0.81,4.076,3.293,4.076
		C332.269,117.118,335.157,116.874,335.157,116.874z M333.403,111.26c0-2.942-0.972-4.238-3.077-4.238
		c-2.079,0-3.267,1.35-3.293,4.238H333.403z"/>
	<path fill="#003658" d="M339.174,105.375l3.131,11.283h0.783l3.158-11.283h2.268l-5.399,19.408h-2.267l1.674-5.938h-1.943
		l-3.672-13.47H339.174z"/>
	<path fill="#003658" d="M361.139,111.989c0,4.319-1.242,7.153-5.669,7.153c-4.481,0-5.749-2.672-5.749-7.18
		c0-4.319,1.402-6.884,5.749-6.884C359.627,105.079,361.139,107.724,361.139,111.989z M358.817,111.989
		c0-3.131-0.863-4.912-3.347-4.912c-2.618,0-3.401,1.646-3.401,4.886c0,3.293,0.54,5.183,3.401,5.183
		C358.304,117.145,358.817,115.093,358.817,111.989z"/>
	<path fill="#003658" d="M364.022,118.845v-13.47h2.294v0.837c0,0,2.024-1.134,3.833-1.134c3.59,0,4.508,2.214,4.508,6.748v7.019
		h-2.268v-6.991c0-3.05-0.378-4.696-2.618-4.696c-1.646,0-3.455,0.917-3.455,0.917v10.771H364.022z"/>
	<path fill="#003658" d="M388.21,118.845h-2.267v-0.756c0,0-1.917,1.025-3.698,1.025c-3.536,0-4.832-2.699-4.832-6.991
		c0-4.615,1.782-7.045,5.561-7.045c1.134,0,2.618,0.297,2.97,0.352v-5.885h2.267V118.845z M385.944,116.2v-8.826
		c-0.352-0.055-1.728-0.271-2.835-0.271c-2.402,0-3.4,1.782-3.4,5.075c0,2.969,0.782,4.886,2.861,4.886
		C384.081,117.064,385.944,116.2,385.944,116.2z"/>
	<path fill="#003658" d="M400.632,107.4v6.182c0,2.537,0.351,3.509,1.809,3.509c0.756,0,2.159-0.135,2.159-0.135l0.108,1.89
		c0,0-1.593,0.297-2.537,0.297c-2.727,0-3.807-1.35-3.807-4.967V107.4h-1.809v-2.024h1.809v-4.103h2.267v4.103h3.914v2.024H400.632z
		"/>
	<path fill="#003658" d="M407.021,118.845v-19.3h2.295v6.397c0,0,2.159-0.864,3.806-0.864c3.59,0,4.534,2.214,4.534,6.722v7.045
		h-2.294v-7.019c0-3.05-0.378-4.669-2.618-4.669c-1.512,0-3.428,0.729-3.428,0.729v10.959H407.021z"/>
	<path fill="#003658" d="M430.819,116.874l0.054,1.755c0,0-2.673,0.513-5.021,0.513c-4.023,0-5.453-2.591-5.453-6.938
		c0-4.75,2.079-7.126,5.588-7.126c3.509,0,5.371,2.105,5.371,6.263l-0.135,1.7h-8.503c0,2.321,0.811,4.076,3.294,4.076
		C427.93,117.118,430.819,116.874,430.819,116.874z M429.064,111.26c0-2.942-0.972-4.238-3.077-4.238
		c-2.078,0-3.267,1.35-3.293,4.238H429.064z"/>
	<path fill="#003658" d="M440.406,105.375h2.295v0.837c0,0,1.754-1.134,3.644-1.134c3.293,0,4.913,2.376,4.913,6.884
		c0,5.128-1.836,7.18-5.857,7.18c-1.242,0-2.402-0.216-2.699-0.27v5.911h-2.295V105.375z M442.701,108.129v8.745
		c0.297,0.055,1.35,0.243,2.564,0.243c2.753,0,3.643-1.755,3.643-5.21c0-2.969-0.972-4.777-2.915-4.777
		C444.374,107.13,442.701,108.129,442.701,108.129z"/>
	<path fill="#003658" d="M464.791,111.989c0,4.319-1.241,7.153-5.668,7.153c-4.482,0-5.75-2.672-5.75-7.18
		c0-4.319,1.404-6.884,5.75-6.884C463.28,105.079,464.791,107.724,464.791,111.989z M462.47,111.989
		c0-3.131-0.863-4.912-3.347-4.912c-2.618,0-3.401,1.646-3.401,4.886c0,3.293,0.54,5.183,3.401,5.183
		C461.957,117.145,462.47,115.093,462.47,111.989z"/>
	<path fill="#003658" d="M475.701,107.508c0,0-3.05-0.405-4.616-0.405c-1.511,0-2.618,0.514-2.618,1.917
		c0,1.079,0.594,1.512,3.051,1.916c3.428,0.567,4.669,1.35,4.669,3.941c0,3.185-2.078,4.265-5.155,4.265
		c-1.755,0-4.724-0.54-4.724-0.54l0.108-1.916c0,0,3.05,0.432,4.427,0.432c2.051,0,3.05-0.513,3.05-2.159
		c0-1.242-0.566-1.539-3.05-1.971c-3.051-0.566-4.697-1.269-4.697-3.887c0-2.97,2.402-4.022,4.805-4.022
		c1.998,0,4.805,0.54,4.805,0.54L475.701,107.508z"/>
	<path fill="#003658" d="M487.31,107.508c0,0-3.05-0.405-4.616-0.405c-1.511,0-2.618,0.514-2.618,1.917
		c0,1.079,0.594,1.512,3.051,1.916c3.428,0.567,4.669,1.35,4.669,3.941c0,3.185-2.078,4.265-5.155,4.265
		c-1.755,0-4.724-0.54-4.724-0.54l0.108-1.916c0,0,3.05,0.432,4.427,0.432c2.051,0,3.05-0.513,3.05-2.159
		c0-1.242-0.566-1.539-3.05-1.971c-3.051-0.566-4.697-1.269-4.697-3.887c0-2.97,2.402-4.022,4.805-4.022
		c1.998,0,4.805,0.54,4.805,0.54L487.31,107.508z"/>
	<path fill="#003658" d="M490.422,100.085h2.294v2.564h-2.294V100.085z M490.422,105.375h2.294v13.47h-2.294V105.375z"/>
	<path fill="#003658" d="M506.375,111.881c0,4.75-1.619,7.261-6.37,7.261c-1.565,0-4.454-0.297-4.454-0.297v-19.3h2.295v6.343
		c0,0,1.781-0.81,3.562-0.81C504.945,105.079,506.375,107.67,506.375,111.881z M504.027,111.908c0-2.834-0.729-4.777-2.86-4.777
		c-1.782,0-3.32,0.647-3.32,0.647v9.231c0,0,1.457,0.108,2.132,0.108C503.407,117.118,504.027,114.824,504.027,111.908z"/>
	<path fill="#003658" d="M509.111,99.545h2.267v19.3h-2.267V99.545z"/>
	<path fill="#003658" d="M524.528,116.874l0.054,1.755c0,0-2.673,0.513-5.02,0.513c-4.023,0-5.453-2.591-5.453-6.938
		c0-4.75,2.079-7.126,5.588-7.126c3.509,0,5.371,2.105,5.371,6.263l-0.135,1.7h-8.503c0,2.321,0.811,4.076,3.294,4.076
		C521.639,117.118,524.528,116.874,524.528,116.874z M522.773,111.26c0-2.942-0.972-4.238-3.077-4.238
		c-2.078,0-3.267,1.35-3.293,4.238H522.773z"/>
	<path fill="#003658" d="M526.197,101.792c0,0-0.681-0.08-0.971-0.08c-0.445,0-0.69,0.18-0.69,0.53c0,0.396,0.215,0.506,0.796,0.661
		c0.686,0.185,0.971,0.359,0.971,0.94c0,0.726-0.351,1.051-1.111,1.051c-0.431,0-1.051-0.1-1.051-0.1l0.024-0.381
		c0,0,0.661,0.075,0.991,0.075c0.461,0,0.711-0.186,0.711-0.631c0-0.33-0.205-0.45-0.751-0.59c-0.716-0.195-1.016-0.396-1.016-1.017
		c0-0.63,0.4-0.94,1.105-0.94c0.435,0,1.012,0.1,1.012,0.1L526.197,101.792z"/>
	<path fill="#003658" d="M526.95,101.367h0.746l0.926,2.883l0.931-2.883h0.736v3.479h-0.431v-2.982h-0.075l-0.931,2.857h-0.471
		l-0.926-2.857h-0.075v2.982h-0.431V101.367z"/>
</g>
</svg>
