<svg xmlns="http://www.w3.org/2000/svg" viewBox="0 0 49.99 49.39">
  <defs>
    <style>
      .cls-1 {
        fill: #fff;
      }
    </style>
  </defs>
  <title>dates_deadlines_icon</title>
  <g id="Layer_2" data-name="Layer 2">
    <g id="Layer_1-2" data-name="Layer 1">
      <g>
        <path class="cls-1" d="M28.91,4.34H29A.57.57,0,0,0,29,3.2h-.06a.57.57,0,0,0,0,1.14Z"/>
        <path class="cls-1" d="M22.41,4.34h.13a.57.57,0,0,0,0-1.14h-.13a.57.57,0,1,0,0,1.14Z"/>
        <path class="cls-1" d="M24.58,4.34h.13a.57.57,0,0,0,0-1.14h-.13a.57.57,0,1,0,0,1.14Z"/>
        <path class="cls-1" d="M26.74,4.34h.13a.57.57,0,0,0,0-1.14h-.13a.57.57,0,0,0,0,1.14Z"/>
        <path class="cls-1" d="M13.75,4.34h.13a.57.57,0,0,0,0-1.14h-.13a.57.57,0,0,0,0,1.14Z"/>
        <path class="cls-1" d="M15.92,4.34H16A.57.57,0,0,0,16,3.2h-.13a.57.57,0,0,0,0,1.14Z"/>
        <path class="cls-1" d="M9.42,4.34h.13a.57.57,0,0,0,0-1.14H9.42a.57.57,0,1,0,0,1.14Z"/>
        <path class="cls-1" d="M18.08,4.34h.13a.57.57,0,0,0,0-1.14h-.13a.57.57,0,1,0,0,1.14Z"/>
        <path class="cls-1" d="M20.25,4.34h.13a.57.57,0,0,0,0-1.14h-.13a.57.57,0,0,0,0,1.14Z"/>
        <path class="cls-1" d="M11.59,4.34h.13a.57.57,0,0,0,0-1.14h-.13a.57.57,0,0,0,0,1.14Z"/>
        <path class="cls-1" d="M7.32,4.34h.06a.57.57,0,0,0,0-1.14H7.32a.57.57,0,0,0,0,1.14Z"/>
        <path class="cls-1" d="M6,11.77a.57.57,0,0,0-.43.2.57.57,0,0,0,.37,1H6a.57.57,0,0,0,.57-.57v-.06A.57.57,0,0,0,6,11.77Z"/>
        <path class="cls-1" d="M3.78,13h.06a.57.57,0,0,0,.37-1,.57.57,0,0,0-1,.37v.06A.57.57,0,0,0,3.78,13Z"/>
        <path class="cls-1" d="M3.78,10.81a.57.57,0,0,0,.43-.2.57.57,0,0,0-.37-1H3.78a.57.57,0,0,0-.57.57v.06A.57.57,0,0,0,3.78,10.81Z"/>
        <path class="cls-1" d="M6,9.61H5.94a.57.57,0,0,0-.37,1,.57.57,0,0,0,1-.37v-.06A.57.57,0,0,0,6,9.61Z"/>
        <path class="cls-1" d="M10.42,11.77A.6.6,0,1,0,10.36,13h.06A.57.57,0,0,0,11,12.4v-.06A.57.57,0,0,0,10.42,11.77Z"/>
        <path class="cls-1" d="M8.2,13h.06a.6.6,0,1,0-.63-.63v.06A.57.57,0,0,0,8.2,13Z"/>
        <path class="cls-1" d="M8.2,10.81a.6.6,0,1,0,.06-1.21H8.2a.57.57,0,0,0-.57.57v.06A.57.57,0,0,0,8.2,10.81Z"/>
        <path class="cls-1" d="M10.42,9.61h-.06a.6.6,0,1,0,.63.63v-.06A.57.57,0,0,0,10.42,9.61Z"/>
        <path class="cls-1" d="M14.84,11.77A.6.6,0,1,0,14.78,13h.06a.57.57,0,0,0,.57-.57v-.06A.57.57,0,0,0,14.84,11.77Z"/>
        <path class="cls-1" d="M12.62,13h.06a.6.6,0,1,0-.63-.63v.06A.57.57,0,0,0,12.62,13Z"/>
        <path class="cls-1" d="M12.62,10.81a.6.6,0,1,0,.06-1.21h-.06a.57.57,0,0,0-.57.57v.06A.57.57,0,0,0,12.62,10.81Z"/>
        <path class="cls-1" d="M14.84,9.61h-.06a.6.6,0,1,0,.63.63v-.06A.57.57,0,0,0,14.84,9.61Z"/>
        <path class="cls-1" d="M19.26,9.61H17a.57.57,0,0,0-.57.57V12.4A.57.57,0,0,0,17,13h2.22a.57.57,0,0,0,.57-.57V10.18A.57.57,0,0,0,19.26,9.61Zm-.57,2.22H17.61V10.75h1.08Z"/>
        <path class="cls-1" d="M21.46,13h2.22a.57.57,0,0,0,.57-.57V10.18a.57.57,0,0,0-.57-.57H21.46a.57.57,0,0,0-.57.57V12.4A.57.57,0,0,0,21.46,13ZM22,10.75h1.08v1.08H22Z"/>
        <path class="cls-1" d="M25.88,13H28.1a.57.57,0,0,0,.57-.57V10.18a.57.57,0,0,0-.57-.57H25.88a.57.57,0,0,0-.57.57V12.4A.57.57,0,0,0,25.88,13Zm.57-2.22h1.08v1.08H26.45Z"/>
        <path class="cls-1" d="M30.3,13h2.22a.57.57,0,0,0,.57-.57V10.18a.57.57,0,0,0-.57-.57H30.3a.57.57,0,0,0-.57.57V12.4A.57.57,0,0,0,30.3,13Zm.57-2.22H32v1.08H30.87Z"/>
        <path class="cls-1" d="M6,14.49H3.78a.57.57,0,0,0-.57.57v2.22a.57.57,0,0,0,.57.57H6a.57.57,0,0,0,.57-.57V15.06A.57.57,0,0,0,6,14.49Zm-.57,2.22H4.35V15.63H5.43Z"/>
        <path class="cls-1" d="M10.42,14.49H8.2a.57.57,0,0,0-.57.57v2.22a.57.57,0,0,0,.57.57h2.22a.57.57,0,0,0,.57-.57V15.06A.57.57,0,0,0,10.42,14.49Zm-.57,2.22H8.77V15.63H9.85Z"/>
        <path class="cls-1" d="M14.84,14.49H12.62a.57.57,0,0,0-.57.57v2.22a.57.57,0,0,0,.57.57h2.22a.57.57,0,0,0,.57-.57V15.06A.57.57,0,0,0,14.84,14.49Zm-.57,2.22H13.19V15.63h1.08Z"/>
        <path class="cls-1" d="M19.26,14.49H17a.57.57,0,0,0-.57.57v2.22a.57.57,0,0,0,.57.57h2.22a.57.57,0,0,0,.57-.57V15.06A.57.57,0,0,0,19.26,14.49Zm-.57,2.22H17.61V15.63h1.08Z"/>
        <path class="cls-1" d="M21.46,17.85h2.22a.57.57,0,0,0,.57-.57V15.06a.57.57,0,0,0-.57-.57H21.46a.57.57,0,0,0-.57.57v2.22A.57.57,0,0,0,21.46,17.85ZM22,15.63h1.08v1.08H22Z"/>
        <path class="cls-1" d="M25.88,17.85H28.1a.57.57,0,0,0,.57-.57V15.06a.57.57,0,0,0-.57-.57H25.88a.57.57,0,0,0-.57.57v2.22A.57.57,0,0,0,25.88,17.85Zm.57-2.22h1.08v1.08H26.45Z"/>
        <path class="cls-1" d="M30.3,17.85h2.22a.57.57,0,0,0,.57-.57V15.06a.57.57,0,0,0-.57-.57H30.3a.57.57,0,0,0-.57.57v2.22A.57.57,0,0,0,30.3,17.85Zm.57-2.22H32v1.08H30.87Z"/>
        <path class="cls-1" d="M6,19.37H3.78a.57.57,0,0,0-.57.57v2.22a.57.57,0,0,0,.57.57H6a.57.57,0,0,0,.57-.57V19.94A.57.57,0,0,0,6,19.37Zm-.57,2.22H4.35V20.51H5.43Z"/>
        <path class="cls-1" d="M10.42,19.37H8.2a.57.57,0,0,0-.57.57v2.22a.57.57,0,0,0,.57.57h2.22a.57.57,0,0,0,.57-.57V19.94A.57.57,0,0,0,10.42,19.37Zm-.57,2.22H8.77V20.51H9.85Z"/>
        <path class="cls-1" d="M14.84,19.37H12.62a.57.57,0,0,0-.57.57v2.22a.57.57,0,0,0,.57.57h2.22a.57.57,0,0,0,.57-.57V19.94A.57.57,0,0,0,14.84,19.37Zm-.57,2.22H13.19V20.51h1.08Z"/>
        <path class="cls-1" d="M19.26,19.37H17a.57.57,0,0,0-.57.57v2.22a.57.57,0,0,0,.57.57h2.22a.57.57,0,0,0,.57-.57V19.94A.57.57,0,0,0,19.26,19.37Zm-.57,2.22H17.61V20.51h1.08Z"/>
        <path class="cls-1" d="M21.46,22.73h2.22a.57.57,0,0,0,.57-.57V19.94a.57.57,0,0,0-.57-.57H21.46a.57.57,0,0,0-.57.57v2.22A.57.57,0,0,0,21.46,22.73ZM22,20.51h1.08v1.08H22Z"/>
        <path class="cls-1" d="M25.88,22.73H28.1a.57.57,0,0,0,.57-.57V19.94a.57.57,0,0,0-.57-.57H25.88a.57.57,0,0,0-.57.57v2.22A.57.57,0,0,0,25.88,22.73Zm.57-2.22h1.08v1.08H26.45Z"/>
        <path class="cls-1" d="M6,24.25H3.78a.57.57,0,0,0-.57.57V27a.57.57,0,0,0,.57.57H6A.57.57,0,0,0,6.57,27V24.82A.57.57,0,0,0,6,24.25Zm-.57,2.22H4.35V25.39H5.43Z"/>
        <path class="cls-1" d="M10.42,24.25H8.2a.57.57,0,0,0-.57.57V27a.57.57,0,0,0,.57.57h2.22A.57.57,0,0,0,11,27V24.82A.57.57,0,0,0,10.42,24.25Zm-.57,2.22H8.77V25.39H9.85Z"/>
        <path class="cls-1" d="M14.84,24.25H12.62a.57.57,0,0,0-.57.57V27a.57.57,0,0,0,.57.57h2.22a.57.57,0,0,0,.57-.57V24.82A.57.57,0,0,0,14.84,24.25Zm-.57,2.22H13.19V25.39h1.08Z"/>
        <path class="cls-1" d="M19.26,24.25H17a.57.57,0,0,0-.57.57V27a.57.57,0,0,0,.57.57h2.22a.57.57,0,0,0,.57-.57V24.82A.57.57,0,0,0,19.26,24.25Zm-.57,2.22H17.61V25.39h1.08Z"/>
        <path class="cls-1" d="M6,29.13H3.78a.57.57,0,0,0-.57.57v2.22a.57.57,0,0,0,.57.57H6a.57.57,0,0,0,.57-.57V29.7A.57.57,0,0,0,6,29.13Zm-.57,2.22H4.35V30.27H5.43Z"/>
        <path class="cls-1" d="M10.42,29.13H8.2a.57.57,0,0,0-.57.57v2.22a.57.57,0,0,0,.57.57h2.22a.57.57,0,0,0,.57-.57V29.7A.57.57,0,0,0,10.42,29.13Zm-.57,2.22H8.77V30.27H9.85Z"/>
        <path class="cls-1" d="M14.84,29.13H12.62a.57.57,0,0,0-.57.57v2.22a.57.57,0,0,0,.57.57h2.22a.57.57,0,0,0,.57-.57V29.7A.57.57,0,0,0,14.84,29.13Zm-.57,2.22H13.19V30.27h1.08Z"/>
        <path class="cls-1" d="M19.26,29.13H17a.57.57,0,0,0-.57.57v2.22a.57.57,0,0,0,.57.57h2.22a.57.57,0,0,0,.57-.57V29.7A.57.57,0,0,0,19.26,29.13Zm-.57,2.22H17.61V30.27h1.08Z"/>
        <path class="cls-1" d="M4.55,5A1.21,1.21,0,1,0,3.34,3.77,1.21,1.21,0,0,0,4.55,5Z"/>
        <path class="cls-1" d="M31.75,5a1.21,1.21,0,1,0-1.21-1.21A1.21,1.21,0,0,0,31.75,5Z"/>
        <path class="cls-1" d="M36.29,20.87V3a3,3,0,0,0-3-3H3A3,3,0,0,0,0,3V32.66a3,3,0,0,0,3,3H21.47A14.27,14.27,0,1,0,36.29,20.87ZM3,1.14H33.25A1.9,1.9,0,0,1,35.15,3V6.4h-34V3A1.9,1.9,0,0,1,3,1.14ZM1.14,32.66V7.54h34V20.87a14.25,14.25,0,0,0-2.06.23V19.94a.57.57,0,0,0-.57-.57H30.3a.57.57,0,0,0-.57.57v2.24a14.3,14.3,0,0,0-3.22,2.06h-.63a.57.57,0,0,0-.57.57v.57a14.37,14.37,0,0,0-1.06,1.27V24.82a.57.57,0,0,0-.57-.57H21.46a.57.57,0,0,0-.57.57V27a.57.57,0,0,0,.57.57H23.6a14.25,14.25,0,0,0-.82,1.52H21.46a.57.57,0,0,0-.57.57v2.22a.57.57,0,0,0,.57.57h.24a14.26,14.26,0,0,0-.23,2.07H3A1.9,1.9,0,0,1,1.14,32.66ZM31.22,21.59h-.35V20.51H32v.86ZM22,31.11v-.84h.28Q22.16,30.68,22,31.11Zm1.08-5.72v1.08H22V25.39ZM35.72,48.25A13.12,13.12,0,1,1,48.84,35.13,13.14,13.14,0,0,1,35.72,48.25Z"/>
        <path class="cls-1" d="M44,26.85a11.71,11.71,0,1,0,3.43,8.28A11.63,11.63,0,0,0,44,26.85ZM35.72,45.69A10.56,10.56,0,1,1,46.28,35.13,10.49,10.49,0,0,1,35.72,45.69Z"/>
        <path class="cls-1" d="M35.72,43a1,1,0,1,0,1,1A.95.95,0,0,0,35.72,43Z"/>
        <path class="cls-1" d="M35.72,27.23a1,1,0,1,0-1-1A1,1,0,0,0,35.72,27.23Z"/>
        <path class="cls-1" d="M27.82,35.13a1,1,0,1,0-1,1A1,1,0,0,0,27.82,35.13Z"/>
        <path class="cls-1" d="M44.58,34.18a1,1,0,1,0,1,1A1,1,0,0,0,44.58,34.18Z"/>
        <path class="cls-1" d="M31.68,42.14a.76.76,0,1,0,.35.46A.76.76,0,0,0,31.68,42.14Z"/>
        <path class="cls-1" d="M39.77,28.12a.76.76,0,1,0-.35-.46A.76.76,0,0,0,39.77,28.12Z"/>
        <path class="cls-1" d="M28.05,38.79a.76.76,0,1,0,.74,1,.76.76,0,0,0-.08-.58A.76.76,0,0,0,28.05,38.79Z"/>
        <path class="cls-1" d="M43.39,31.46a.76.76,0,1,0-.66-.38A.76.76,0,0,0,43.39,31.46Z"/>
        <path class="cls-1" d="M27.67,31.36a.76.76,0,1,0-.35-.46A.76.76,0,0,0,27.67,31.36Z"/>
        <path class="cls-1" d="M43.77,38.9a.76.76,0,1,0,.35.46A.76.76,0,0,0,43.77,38.9Z"/>
        <path class="cls-1" d="M31.29,28.22a.76.76,0,1,0-.66-.38A.76.76,0,0,0,31.29,28.22Z"/>
        <path class="cls-1" d="M40.15,42a.76.76,0,1,0,.66.38A.76.76,0,0,0,40.15,42Z"/>
        <path class="cls-1" d="M38.23,31.81l-1.7,1.7a1.8,1.8,0,0,0-1.63,0L31.2,29.8a.57.57,0,1,0-.81.81l3.71,3.71a1.81,1.81,0,0,0,1,2.54v4.62a.57.57,0,0,0,1.14,0V36.85a1.81,1.81,0,0,0,1.05-2.54l1.7-1.7a.57.57,0,0,0-.81-.81Zm-2.51,4a.67.67,0,1,1,.67-.67A.67.67,0,0,1,35.72,35.8Z"/>
        <path class="cls-1" d="M21.88,44.63h-.06a.57.57,0,0,0,0,1.14h.06a.57.57,0,0,0,0-1.14Z"/>
        <path class="cls-1" d="M13.56,44.63h-.12a.57.57,0,0,0,0,1.14h.12a.57.57,0,0,0,0-1.14Z"/>
        <path class="cls-1" d="M11.47,44.63h-.12a.57.57,0,0,0,0,1.14h.12a.57.57,0,0,0,0-1.14Z"/>
        <path class="cls-1" d="M19.84,44.63h-.12a.57.57,0,0,0,0,1.14h.12a.57.57,0,1,0,0-1.14Z"/>
        <path class="cls-1" d="M15.66,44.63h-.12a.57.57,0,1,0,0,1.14h.12a.57.57,0,0,0,0-1.14Z"/>
        <path class="cls-1" d="M17.75,44.63h-.12a.57.57,0,0,0,0,1.14h.12a.57.57,0,1,0,0-1.14Z"/>
        <path class="cls-1" d="M9.75,44.77a.57.57,0,0,0-1,.37v.06a.57.57,0,0,0,.57.57h.06a.57.57,0,0,0,.37-1Z"/>
        <path class="cls-1" d="M9.31,42.58a.57.57,0,0,0-.57.57v.12a.57.57,0,0,0,1.14,0v-.12A.57.57,0,0,0,9.31,42.58Z"/>
        <path class="cls-1" d="M9.88,41.22a.57.57,0,0,0-1.14,0v.06a.57.57,0,1,0,1.14,0Z"/>
        <path class="cls-1" d="M38.34,7.54h.06a.57.57,0,0,0,0-1.14h-.06a.57.57,0,0,0,0,1.14Z"/>
        <path class="cls-1" d="M40.37,7.54h.12a.57.57,0,1,0,0-1.14h-.12a.57.57,0,0,0,0,1.14Z"/>
        <path class="cls-1" d="M42.46,7.54h.12a.57.57,0,0,0,0-1.14h-.12a.57.57,0,0,0,0,1.14Z"/>
        <path class="cls-1" d="M44.18,7.41a.57.57,0,0,0,1-.37V7a.57.57,0,0,0-.57-.57h-.06a.57.57,0,0,0-.37,1Z"/>
        <path class="cls-1" d="M44,15.72a.57.57,0,1,0,1.14,0v-.13a.57.57,0,0,0-1.14,0Z"/>
        <path class="cls-1" d="M44,13.55a.57.57,0,1,0,1.14,0v-.13a.57.57,0,0,0-1.14,0Z"/>
        <path class="cls-1" d="M44.61,9.78a.57.57,0,0,0,.57-.57V9.08a.57.57,0,1,0-1.14,0v.13A.57.57,0,0,0,44.61,9.78Z"/>
        <path class="cls-1" d="M44,11.38a.57.57,0,0,0,1.14,0v-.13a.57.57,0,1,0-1.14,0Z"/>
        <path class="cls-1" d="M44,17.83a.57.57,0,0,0,1.14,0v-.06a.57.57,0,0,0-1.14,0Z"/>
        <path class="cls-1" d="M42.91,18.07a.57.57,0,0,0-.81.81L44.21,21A.57.57,0,0,0,45,21l2.11-2.11a.57.57,0,1,0-.81-.81l-1.7,1.7Z"/>
        <path class="cls-1" d="M11,40.94a.57.57,0,0,0,.81-.81L9.71,38a.57.57,0,0,0-.81,0L6.8,40.13a.57.57,0,0,0,.81.81l1.7-1.7Z"/>
      </g>
    </g>
  </g>
</svg>
