<svg xmlns="http://www.w3.org/2000/svg" width="329.969" height="31.688" viewBox="0 0 329.969 31.688"><g style="isolation:isolate"><path d="M170.275,300.557c-8.868,0-14.405-5.952-14.405-12.6,0-6.373,6.033-13.6,14.553-13.6a17.972,17.972,0,0,1,8.217,2.073c.266.229.651,3,.733,5.374,0,.192-.614.155-.651.037-.651-2.991-3.494-6.336-9.216-6.336-5.759,0-10.1,4.071-10.1,11.022,0,8.491,5.722,12.791,11.215,12.791,3.99,0,7.95-2.384,8.254-6.3,0-.111.733-.155.733.074-.118,2.384-.5,5.145-.807,5.374C177.418,299.521,175,300.557,170.275,300.557Z" transform="translate(-155.87 -274.36)" fill="#fff"/><path d="M199.982,302.165c-.229.074-.118-.733,0-.733,1.3-.155,2.11.037,2.11-.733a14.01,14.01,0,0,0-1-3.612l-.7-2.036h-6.218l-.881,2.036a10.924,10.924,0,0,0-1.155,3.575c0,.651.725.651,1.962.77.192,0,.192.807-.037.733a28.464,28.464,0,0,0-3.3-.155,19.334,19.334,0,0,0-3.183.155c-.229.037-.118-.733,0-.733,1.917-.155,2.917-1.192,4.375-4.419l6.373-13.939a.31.31,0,0,1,.54,0l5.53,13.939c1.384,3.094,1.177,4.212,3.472,4.419.111.007.192.807-.037.733a21.551,21.551,0,0,0-2.894-.155A48.436,48.436,0,0,0,199.982,302.165Zm-5.337-8.261h5.337l-2.384-6.447Z" transform="translate(-164.073 -276.582)" fill="#fff"/><path d="M215.931,300.876a23.163,23.163,0,0,1-.281-4.293c-.015-.193.681-.17.688-.1.466,2.887,2.191,5.056,5.182,4.812,2.065-.17,3.383-1.517,3.227-3.353-.4-4.782-8.816-4.086-9.253-9.327a5.7,5.7,0,0,1,5.448-5.848,6.978,6.978,0,0,1,3.842.762,8.39,8.39,0,0,1,.844,3.635c.007.111-.755.178-.762.067a3.844,3.844,0,0,0-4.086-3.25c-1.8.148-3.065,1.14-2.917,2.9.378,4.6,8.639,3.8,9.1,9.3a5.882,5.882,0,0,1-5.6,6.359A7.875,7.875,0,0,1,215.931,300.876Z" transform="translate(-171.354 -276.537)" fill="#fff"/><path d="M244.981,302.257c-1.073,0-2.88-.155-5.034-.155-2.917,0-6.41,0-8.565.155-.229,0-.118-.733,0-.733,2.917-.348,3.183-.733,3.183-4.382v-8.683c0-3.649-.266-4.108-3.183-4.419-.118,0-.229-.807,0-.77,2.147.192,5.53.229,8.446.229,2.073,0,4.071-.081,5.841-.229a7.178,7.178,0,0,0-.192,2c0,.311-.037,1.155,0,1.347,0,.081-.733.118-.733.037-.229-1.266-.688-1.88-4.412-1.88h-2.495a23.194,23.194,0,0,0-.155,3.531v3.531H239.6c3.227,0,3.457-.081,3.768-1.31,0-.074.725-.118.688.081a12.791,12.791,0,0,0-.155,2.265v1.651a2.314,2.314,0,0,1-.733.037c-.266-1.5-.5-1.614-3.575-1.614h-1.917v3.8c0,3.686.192,4.034,1.5,4.034h1.5c4.419,0,4.53-.614,4.952-2.495,0-.037.77-.037.77.074-.118.733-.422,2.613-.614,3.19C245.677,302.146,245.485,302.257,244.981,302.257Z" transform="translate(-175.451 -276.674)" fill="#fff"/><g transform="translate(73.098 0.52)"><path d="M427.225,283.269a27.1,27.1,0,0,1-3.375.192,21.884,21.884,0,0,1-3.8-.192c-.229-.074-.229.7-.037.733,2.495.266,2.88,1.11,2.88,4.412v8.949L409.482,283.5a40.177,40.177,0,0,1-5.071-.229c-.229-.074-.155.733-.037.733,1.3.155,3.723,1.917,3.723,3.227V297.1c0,3.139-.5,4.057-2.539,4.256a.8.8,0,0,1-.511-.118c-4.382-3.59-4.33-5.892-5.359-8.52a5.462,5.462,0,0,0,3.649-4.76c0-3.072-2.768-4.486-7.95-4.723a43.331,43.331,0,0,0-7.795.067c-.229.044-.037.77.118.688a5.432,5.432,0,0,1,1.088-.015c1.347,0,1.947,1.1,1.947,4.441V297.1c0,3.649-.459,4.108-2.954,4.375-.118,0-.229.807,0,.733a44.987,44.987,0,0,1,4.8-.155c1.229,0,3.183.037,4.071.155.229.074.155-.733.037-.733-2.613-.229-2.88-.918-2.88-4.375v-3.227a9.077,9.077,0,0,0,1.11.037,14.655,14.655,0,0,0,2.147-.229c1.2,4.271,5.419,7.891,7.306,8.505a2.3,2.3,0,0,0,.252.037l.518-.022c.007,0,2.48-.148,4.168-.148a24.034,24.034,0,0,1,3.109.155c.229.074.155-.733.081-.733-2.65-.229-2.917-1.3-2.917-4.375v-9.26l14.324,14.56c.237.23.7.074.7-.037-.155-1.229-.192-3.842-.192-5.263v-8.683c0-3.072.229-4.227,2.917-4.412C427.418,284,427.61,283.232,427.225,283.269ZM394.884,292.8c-.5,0-.725-.037-1.073-.037v-4.6a16.87,16.87,0,0,1,.229-3.723,8.422,8.422,0,0,1,.955-.074c3.346,0,5.189,1.147,5.189,4.375C400.184,291.338,398.682,292.8,394.884,292.8Z" transform="translate(-289.133 -277.149)" fill="#fff"/><path d="M326.85,301.041c-.155-.111-.126-.851-.059-2.887-.007-.192.659-.126.688-.059,1.229,2.532,1.969,3.346,4.819,3.213a3.32,3.32,0,0,0,3.338-3.161c-.118-4.8-8.565-4.59-8.7-9.845a5.7,5.7,0,0,1,5.774-5.522,6.9,6.9,0,0,1,3.79.984,8.28,8.28,0,0,1,.629,3.672c0,.118-.762.133-.77.015-.4-2.1-1.814-3.524-3.886-3.472-1.806.044-3.124.962-3.079,2.732.118,4.6,8.409,4.286,8.542,9.808a5.811,5.811,0,0,1-5.878,6.026A7.308,7.308,0,0,1,326.85,301.041Z" transform="translate(-273.353 -277.066)" fill="#fff"/><path d="M282.046,300.458a.377.377,0,0,1-.651-.037l-5.8-16.285-7.18,16.322c-.074.192-.577.274-.688-.037l-7.41-18.513c-1.843-4.612-2.458-5.914-5.493-6.188-.192,0-.348-.688.037-.651a31.429,31.429,0,0,0,4.108.229,58.666,58.666,0,0,0,6.144-.229c.385-.037.155.651.037.651-1.762.155-2.724.385-2.724,1.421a21.824,21.824,0,0,0,1.384,4.686L269.3,295.5l5.685-13.132-.192-.459c-1.88-4.493-2.3-5.914-5.219-6.188-.118,0-.274-.688.037-.651a31.907,31.907,0,0,0,4.108.229c2.073,0,4.989-.037,6.492-.229.311-.074.192.651.074.651-2.384.192-3.146.459-3.146,1.614a17.215,17.215,0,0,0,1.155,4.493l4.649,13.672,5.493-13.865c.881-2.265,1.377-3.457,1.377-4.456,0-.962-.614-1.266-2.495-1.458-.118,0-.348-.688.037-.651a26.607,26.607,0,0,0,3.8.229,18.926,18.926,0,0,0,3.612-.229c.3-.074.155.651.037.651-2.421.229-3.19,1.88-5,6.188Z" transform="translate(-254.619 -275.063)" fill="#fff"/><path d="M317.982,302.252c-1.073,0-2.88-.155-5.034-.155-2.917,0-6.41,0-8.565.155-.23,0-.111-.733,0-.733,2.917-.348,3.19-.725,3.19-4.375v-8.683c0-3.649-.266-4.108-3.19-4.412-.111,0-.23-.807,0-.77,2.154.192,5.53.229,8.446.229,2.08,0,4.071-.074,5.841-.229a7.179,7.179,0,0,0-.192,2c0,.3-.037,1.155,0,1.347,0,.074-.733.118-.733.037-.229-1.266-.688-1.88-4.412-1.88h-2.495a24.317,24.317,0,0,0-.155,3.531v3.531H312.6c3.227,0,3.457-.074,3.76-1.3,0-.081.733-.118.688.074a13.535,13.535,0,0,0-.155,2.265v1.651a2.267,2.267,0,0,1-.725.037c-.266-1.5-.5-1.614-3.568-1.614h-1.917v3.8c0,3.686.192,4.034,1.5,4.034h1.5c4.412,0,4.53-.614,4.952-2.495,0-.037.77-.037.77.074a32.169,32.169,0,0,1-.614,3.19C318.671,302.133,318.485,302.252,317.982,302.252Z" transform="translate(-267.512 -277.197)" fill="#fff"/><path d="M359.239,287.118c0,.118-.688.081-.688,0-.274-1.266-.792-2.147-3.871-2.147h-2.065v12.177c0,3.42.229,4.145,2.917,4.375.118,0,.192.77-.118.733-.881-.118-2.843-.155-4.071-.155a43.474,43.474,0,0,0-4.723.155c-.311.074-.155-.733-.037-.733,2.532-.266,2.917-.77,2.917-4.375V284.971h-2.221c-2.954,0-3.635.844-4.019,2.184-.155.037-.733.037-.688-.074a18.112,18.112,0,0,0,.192-2.88,5.486,5.486,0,0,0-.155-.836c-.03-.118.6-.111.688-.037.592.481,1.555.289,3.982.3h7.388c2.332-.007,3.746.185,4.064-.3.067-.1.77-.081.688.074a6.234,6.234,0,0,0-.229,1.91C359.2,285.771,359.2,286.733,359.239,287.118Z" transform="translate(-277.465 -277.193)" fill="#fff"/><path d="M379.881,302.252c-1.073,0-2.88-.155-5.034-.155-2.917,0-6.41,0-8.565.155-.229,0-.118-.733,0-.733,2.917-.348,3.19-.725,3.19-4.375v-8.683c0-3.649-.266-4.108-3.19-4.412-.118,0-.229-.807,0-.77,2.154.192,5.53.229,8.446.229,2.073,0,4.071-.074,5.84-.229a7.179,7.179,0,0,0-.192,2c0,.3-.037,1.155,0,1.347,0,.074-.733.118-.733.037-.229-1.266-.688-1.88-4.412-1.88h-2.495a23.259,23.259,0,0,0-.155,3.531v3.531h1.925c3.227,0,3.457-.074,3.76-1.3,0-.081.733-.118.688.074a12.793,12.793,0,0,0-.155,2.265v1.651a2.314,2.314,0,0,1-.733.037c-.266-1.5-.5-1.614-3.575-1.614h-1.925v3.8c0,3.686.193,4.034,1.5,4.034h1.5c4.419,0,4.53-.614,4.952-2.495,0-.037.77-.037.77.074a32.169,32.169,0,0,1-.614,3.19C380.577,302.133,380.385,302.252,379.881,302.252Z" transform="translate(-283.591 -277.197)" fill="#fff"/></g><g transform="translate(215.481 0.429)"><path d="M498.89,301.053c-.155-.111-.126-.844-.059-2.887-.007-.192.659-.126.688-.052,1.229,2.532,1.969,3.338,4.819,3.213a3.32,3.32,0,0,0,3.338-3.161c-.126-4.8-8.572-4.59-8.7-9.845a5.7,5.7,0,0,1,5.774-5.522,6.9,6.9,0,0,1,3.79.984,8.281,8.281,0,0,1,.629,3.672c0,.118-.762.133-.77.022-.4-2.1-1.814-3.524-3.886-3.472-1.806.044-3.124.962-3.079,2.724.118,4.612,8.4,4.286,8.542,9.816a5.816,5.816,0,0,1-5.878,6.026A7.34,7.34,0,0,1,498.89,301.053Z" transform="translate(-460.426 -276.981)" fill="#fff"/><path d="M458.132,288.723a11.18,11.18,0,0,1-2.384.192,14.431,14.431,0,0,1-1.458-.074v4.53c0,5.493-.037,5.759,3.531,6.07.192,0,.266.807-.037.725a43.428,43.428,0,0,0-4.76-.229,41.392,41.392,0,0,0-5.648.229c-.385.037-.229-.688-.037-.725,3.383-.385,3.612-.311,3.612-6.07V281.809c0-4.338-.111-5.685-2.3-5.685a7,7,0,0,0-1.458.155c-.111.037-.422-.577-.037-.688,1.569-.5,5.411-.651,9.6-.651,5.611,0,10.215,1.688,10.215,5.988,0,2.154-1.725,5.419-5.722,7.032,3.723,5.226,3.931,16.493,13.272,17.107a6.55,6.55,0,0,0,2.961-.385c.237-.067.555.54.266.651a10.5,10.5,0,0,1-5.382.807C462.211,305.312,461.323,293.564,458.132,288.723Zm-3.568-12.636a29.868,29.868,0,0,0-.274,5.374v6.373c.5.037.807,0,1.421,0,5.8,0,7.795-2.11,7.795-5.263,0-5.219-3.413-6.6-7.254-6.6A15.572,15.572,0,0,0,454.564,276.087Z" transform="translate(-446.967 -274.94)" fill="#fff"/><path d="M489.752,302.262c-1.073,0-2.88-.155-5.034-.155-2.917,0-5.944,0-8.091.155-.229,0-.118-.733,0-.733,2.917-.348,2.717-.733,2.717-4.382v-8.676c0-3.649-.266-4.108-3.19-4.412-.111,0-.229-.807,0-.77,2.154.192,5.53.229,8.454.229,2.073,0,4.071-.081,5.833-.229a7.178,7.178,0,0,0-.193,2c0,.3-.037,1.155,0,1.34a1.241,1.241,0,0,1-.733.037c-.229-1.266-.688-1.88-4.412-1.88h-2.5a23.2,23.2,0,0,0-.155,3.531v3.538h1.917c3.227,0,3.457-.074,3.76-1.31,0-.074.725-.111.688.081a12.8,12.8,0,0,0-.155,2.265v1.651a2.072,2.072,0,0,1-.725.037c-.266-1.5-.5-1.614-3.575-1.614h-1.917v3.8c0,3.686.192,4.034,1.5,4.034h1.5c4.412,0,4.53-.614,4.952-2.495,0-.037.77-.037.77.074a32.17,32.17,0,0,1-.614,3.19C490.441,302.151,490.248,302.262,489.752,302.262Z" transform="translate(-454.515 -277.109)" fill="#fff"/><path d="M528.481,302.262c-1.073,0-2.88-.155-5.034-.155-2.917,0-6.41,0-8.565.155-.229,0-.118-.733,0-.733,2.917-.348,3.183-.733,3.183-4.382v-8.676c0-3.649-.266-4.108-3.183-4.412-.118,0-.229-.807,0-.77,2.147.192,5.53.229,8.446.229,2.073,0,4.071-.081,5.841-.229a7.18,7.18,0,0,0-.192,2c0,.3-.037,1.155,0,1.34a1.242,1.242,0,0,1-.733.037c-.229-1.266-.688-1.88-4.412-1.88h-2.495a23.2,23.2,0,0,0-.155,3.531v3.538H523.1c3.227,0,3.457-.074,3.768-1.31,0-.074.733-.111.688.081a12.8,12.8,0,0,0-.155,2.265v1.651a2.115,2.115,0,0,1-.733.037c-.274-1.5-.5-1.614-3.575-1.614h-1.917v3.8c0,3.686.193,4.034,1.5,4.034h1.5c4.419,0,4.53-.614,4.952-2.495,0-.037.77-.037.77.074-.118.733-.422,2.613-.614,3.19C529.17,302.151,528.977,302.262,528.481,302.262Z" transform="translate(-464.575 -277.109)" fill="#fff"/><path d="M542.977,293.933a8.942,8.942,0,0,1-1.11-.037v3.227c0,3.457.266,4.153,2.88,4.382.118,0,.192.807-.037.733-.881-.111-2.843-.155-4.071-.155a45.119,45.119,0,0,0-4.8.155c-.229.074-.111-.733,0-.733,2.495-.266,2.961-.733,2.961-4.382v-8.676c0-3.339-.607-4.486-1.954-4.486a2.821,2.821,0,0,0-.718.081c-.156.074-.341-.629-.111-.688,1.318-.363,4.493-.074,7.439-.1,5.182-.03,7.95,1.651,7.95,4.723a5.454,5.454,0,0,1-3.649,4.76c1.54,3.916,5.655,9.216,9,9.216.111,0,.229.733,0,.733a12.011,12.011,0,0,1-11.614-8.987A15.168,15.168,0,0,1,542.977,293.933Zm-.888-9.482a16.919,16.919,0,0,0-.229,3.723v4.612c.341,0,.577.037,1.073.037,3.8,0,5.3-1.458,5.3-4.071,0-3.227-1.843-4.375-5.189-4.375A8.428,8.428,0,0,0,542.089,284.451Z" transform="translate(-470.017 -277.078)" fill="#fff"/><path d="M566.457,302.466c-.037.111-.5.192-.614-.037l-6.062-13.9c-1.384-3.153-2.265-4.264-4.567-4.456-.118,0-.229-.807,0-.733.918.111,2.65.192,3.842.192a38.17,38.17,0,0,0,4.952-.192c.229-.074.229.7.037.733-1.266.155-2,.229-2,1a8.952,8.952,0,0,0,.962,3.383l4.19,9.482,4.145-9.482c.925-2.154,1.036-2.687,1.036-3.383,0-.651-.614-.881-1.88-1-.118,0-.229-.807,0-.733a27.669,27.669,0,0,0,3.3.192c1.732,0,1.828-.037,3.146-.022.244,0,.192.563.081.563-1.806.192-2.843,1.073-4.338,4.456Z" transform="translate(-475.051 -277.12)" fill="#fff"/><path d="M594.891,302.262c-1.073,0-2.88-.155-5.034-.155-2.917,0-6.41,0-8.565.155-.229,0-.118-.733,0-.733,2.917-.348,3.183-.733,3.183-4.382v-8.676c0-3.649-.267-4.108-3.183-4.412-.118,0-.215-.555.022-.563,2.1-.03,5.507.022,8.424.022,2.073,0,4.071-.081,5.84-.229a7.178,7.178,0,0,0-.193,2c0,.3-.037,1.155,0,1.34,0,.074-.725.111-.725.037-.229-1.266-.688-1.88-4.419-1.88h-2.495a24.254,24.254,0,0,0-.155,3.531v3.538h1.925c3.227,0,3.457-.074,3.76-1.31,0-.074.725-.111.7.081a13.531,13.531,0,0,0-.156,2.265v1.651a2.062,2.062,0,0,1-.725.037c-.266-1.5-.5-1.614-3.568-1.614H587.6v3.8c0,3.686.192,4.034,1.5,4.034h1.5c4.412,0,4.53-.614,4.952-2.495,0-.037.77-.037.77.074a32.164,32.164,0,0,1-.614,3.19C595.58,302.151,595.387,302.262,594.891,302.262Z" transform="translate(-481.825 -277.109)" fill="#fff"/></g></g></svg>