<svg xmlns="http://www.w3.org/2000/svg" viewBox="0 0 49.21 46.6">
  <defs>
    <style>
      .cls-1 {
        fill: #fff;
      }
    </style>
  </defs>
  <title>majors_minors_icon</title>
  <g id="Layer_2" data-name="Layer 2">
    <g id="Layer_1-2" data-name="Layer 1">
      <g>
        <path class="cls-1" d="M48.7,13.26a.51.51,0,0,0-.51.51v31.8h-23a1.32,1.32,0,0,1,1.29-1H46.75a.51.51,0,0,0,.51-.51V11.88a.51.51,0,1,0-1,0V43.52H26.44a2.34,2.34,0,0,0-.56.07,3.15,3.15,0,0,1,2.4-1.11H44.81a.51.51,0,0,0,.51-.51V9.88a.51.51,0,0,0-.51-.51H38.07V5.67s0,0,0,0,0,0,0,0V2.06A2.06,2.06,0,0,0,36,0h-2.6a2.06,2.06,0,0,0-2.06,2.06V5.63s0,0,0,0,0,0,0,0V9.36H28.27a4.18,4.18,0,0,0-3.67,2.18,4.18,4.18,0,0,0-3.67-2.18H4.41a.51.51,0,0,0-.51.51V42a.51.51,0,0,0,.51.51H20.94a3.15,3.15,0,0,1,2.4,1.11,2.34,2.34,0,0,0-.56-.07H3V11.88a.51.51,0,1,0-1,0V44a.51.51,0,0,0,.51.51H22.77a1.32,1.32,0,0,1,1.29,1H1V13.77a.51.51,0,0,0-1,0V46.09a.51.51,0,0,0,.51.51H48.7a.51.51,0,0,0,.51-.51V13.77A.51.51,0,0,0,48.7,13.26ZM8.52,10.39h3.34v6.1l-1.29-1.4a.51.51,0,0,0-.75,0l-1.29,1.4Zm15.58,3.27V42.9a4.17,4.17,0,0,0-3.16-1.44h-16V10.39H7.49v7.4a.51.51,0,0,0,.89.35l1.81-1.95L12,18.14a.51.51,0,0,0,.89-.35v-7.4h8.06a3.16,3.16,0,0,1,3.16,3.16.51.51,0,0,0,0,.06A.51.51,0,0,0,24.09,13.66Zm8.28-11.6a1,1,0,0,1,1-1H36a1,1,0,0,1,1,1V3.17H32.37Zm0,2.14H37v.92H32.37Zm4.3,23.38-1,1.83H33.77l-1-1.83Zm-4.3-1V6.14h.87V26.55Zm1.9,0V6.14h.87V26.55Zm1.9,0V6.14H37V26.55ZM25.11,13.6a.51.51,0,0,0,0-.06,3.16,3.16,0,0,1,3.16-3.16h3.07V27a.51.51,0,0,0,.06.29l2.85,5.07a.51.51,0,0,0,.89,0L38,27.31a.51.51,0,0,0,.06-.29V10.39h6.23V41.46h-16a4.17,4.17,0,0,0-3.16,1.44V13.66A.51.51,0,0,0,25.11,13.6Z"/>
        <path class="cls-1" d="M21,20.56H21a.51.51,0,0,0,0,1H21a.51.51,0,0,0,0-1Z"/>
        <path class="cls-1" d="M11.78,20.56h-.11a.51.51,0,0,0,0,1h.11a.51.51,0,1,0,0-1Z"/>
        <path class="cls-1" d="M19.21,20.56H19.1a.51.51,0,0,0,0,1h.11a.51.51,0,0,0,0-1Z"/>
        <path class="cls-1" d="M15.49,20.56h-.11a.51.51,0,0,0,0,1h.11a.51.51,0,0,0,0-1Z"/>
        <path class="cls-1" d="M9.92,20.56H9.81a.51.51,0,0,0,0,1h.11a.51.51,0,1,0,0-1Z"/>
        <path class="cls-1" d="M13.63,20.56h-.11a.51.51,0,0,0,0,1h.11a.51.51,0,0,0,0-1Z"/>
        <path class="cls-1" d="M17.35,20.56h-.11a.51.51,0,0,0,0,1h.11a.51.51,0,1,0,0-1Z"/>
        <path class="cls-1" d="M8.06,20.56H8a.51.51,0,0,0,0,1h.06a.51.51,0,0,0,0-1Z"/>
        <path class="cls-1" d="M21,22.77H21a.51.51,0,1,0,0,1H21a.51.51,0,0,0,0-1Z"/>
        <path class="cls-1" d="M11.78,22.77h-.11a.51.51,0,0,0,0,1h.11a.51.51,0,1,0,0-1Z"/>
        <path class="cls-1" d="M13.63,22.77h-.11a.51.51,0,1,0,0,1h.11a.51.51,0,1,0,0-1Z"/>
        <path class="cls-1" d="M9.92,22.77H9.81a.51.51,0,1,0,0,1h.11a.51.51,0,1,0,0-1Z"/>
        <path class="cls-1" d="M15.49,22.77h-.11a.51.51,0,0,0,0,1h.11a.51.51,0,1,0,0-1Z"/>
        <path class="cls-1" d="M19.21,22.77H19.1a.51.51,0,0,0,0,1h.11a.51.51,0,1,0,0-1Z"/>
        <path class="cls-1" d="M17.35,22.77h-.11a.51.51,0,1,0,0,1h.11a.51.51,0,1,0,0-1Z"/>
        <path class="cls-1" d="M8.06,22.77H8a.51.51,0,1,0,0,1h.06a.51.51,0,1,0,0-1Z"/>
        <path class="cls-1" d="M21,25H21a.51.51,0,0,0,0,1H21a.51.51,0,0,0,0-1Z"/>
        <path class="cls-1" d="M11.78,25h-.11a.51.51,0,0,0,0,1h.11a.51.51,0,1,0,0-1Z"/>
        <path class="cls-1" d="M13.63,25h-.11a.51.51,0,1,0,0,1h.11a.51.51,0,0,0,0-1Z"/>
        <path class="cls-1" d="M19.21,25H19.1a.51.51,0,0,0,0,1h.11a.51.51,0,0,0,0-1Z"/>
        <path class="cls-1" d="M9.92,25H9.81a.51.51,0,1,0,0,1h.11a.51.51,0,1,0,0-1Z"/>
        <path class="cls-1" d="M15.49,25h-.11a.51.51,0,0,0,0,1h.11a.51.51,0,0,0,0-1Z"/>
        <path class="cls-1" d="M17.35,25h-.11a.51.51,0,0,0,0,1h.11a.51.51,0,1,0,0-1Z"/>
        <path class="cls-1" d="M8.06,25H8a.51.51,0,1,0,0,1h.06a.51.51,0,1,0,0-1Z"/>
        <path class="cls-1" d="M21,27.2H21a.51.51,0,1,0,0,1H21a.51.51,0,0,0,0-1Z"/>
        <path class="cls-1" d="M13.63,27.2h-.11a.51.51,0,0,0,0,1h.11a.51.51,0,1,0,0-1Z"/>
        <path class="cls-1" d="M15.49,27.2h-.11a.51.51,0,0,0,0,1h.11a.51.51,0,1,0,0-1Z"/>
        <path class="cls-1" d="M17.35,27.2h-.11a.51.51,0,1,0,0,1h.11a.51.51,0,1,0,0-1Z"/>
        <path class="cls-1" d="M19.21,27.2H19.1a.51.51,0,0,0,0,1h.11a.51.51,0,1,0,0-1Z"/>
        <path class="cls-1" d="M11.78,27.2h-.11a.51.51,0,1,0,0,1h.11a.51.51,0,1,0,0-1Z"/>
        <path class="cls-1" d="M9.92,27.2H9.81a.51.51,0,1,0,0,1h.11a.51.51,0,1,0,0-1Z"/>
        <path class="cls-1" d="M8.06,27.2H8a.51.51,0,1,0,0,1h.06a.51.51,0,1,0,0-1Z"/>
        <path class="cls-1" d="M21,29.41H21a.51.51,0,0,0,0,1H21a.51.51,0,0,0,0-1Z"/>
        <path class="cls-1" d="M9.92,29.41H9.81a.51.51,0,1,0,0,1h.11a.51.51,0,1,0,0-1Z"/>
        <path class="cls-1" d="M11.78,29.41h-.11a.51.51,0,0,0,0,1h.11a.51.51,0,1,0,0-1Z"/>
        <path class="cls-1" d="M15.49,29.41h-.11a.51.51,0,0,0,0,1h.11a.51.51,0,0,0,0-1Z"/>
        <path class="cls-1" d="M17.35,29.41h-.11a.51.51,0,0,0,0,1h.11a.51.51,0,1,0,0-1Z"/>
        <path class="cls-1" d="M13.63,29.41h-.11a.51.51,0,0,0,0,1h.11a.51.51,0,0,0,0-1Z"/>
        <path class="cls-1" d="M19.21,29.41H19.1a.51.51,0,0,0,0,1h.11a.51.51,0,0,0,0-1Z"/>
        <path class="cls-1" d="M8.06,29.41H8a.51.51,0,1,0,0,1h.06a.51.51,0,1,0,0-1Z"/>
        <path class="cls-1" d="M21,31.62H21a.51.51,0,0,0,0,1H21a.51.51,0,0,0,0-1Z"/>
        <path class="cls-1" d="M15.49,31.62h-.11a.51.51,0,0,0,0,1h.11a.51.51,0,0,0,0-1Z"/>
        <path class="cls-1" d="M13.63,31.62h-.11a.51.51,0,0,0,0,1h.11a.51.51,0,0,0,0-1Z"/>
        <path class="cls-1" d="M9.92,31.62H9.81a.51.51,0,0,0,0,1h.11a.51.51,0,1,0,0-1Z"/>
        <path class="cls-1" d="M17.35,31.62h-.11a.51.51,0,0,0,0,1h.11a.51.51,0,1,0,0-1Z"/>
        <path class="cls-1" d="M19.21,31.62H19.1a.51.51,0,0,0,0,1h.11a.51.51,0,0,0,0-1Z"/>
        <path class="cls-1" d="M11.78,31.62h-.11a.51.51,0,0,0,0,1h.11a.51.51,0,1,0,0-1Z"/>
        <path class="cls-1" d="M8.06,31.62H8a.51.51,0,0,0,0,1h.06a.51.51,0,0,0,0-1Z"/>
        <path class="cls-1" d="M21,33.83H21a.51.51,0,0,0,0,1H21a.51.51,0,1,0,0-1Z"/>
        <path class="cls-1" d="M19.21,33.83H19.1a.51.51,0,0,0,0,1h.11a.51.51,0,1,0,0-1Z"/>
        <path class="cls-1" d="M17.35,33.83h-.11a.51.51,0,0,0,0,1h.11a.51.51,0,1,0,0-1Z"/>
        <path class="cls-1" d="M13.63,33.83h-.11a.51.51,0,1,0,0,1h.11a.51.51,0,1,0,0-1Z"/>
        <path class="cls-1" d="M11.78,33.83h-.11a.51.51,0,0,0,0,1h.11a.51.51,0,1,0,0-1Z"/>
        <path class="cls-1" d="M15.49,33.83h-.11a.51.51,0,0,0,0,1h.11a.51.51,0,1,0,0-1Z"/>
        <path class="cls-1" d="M9.92,33.83H9.81a.51.51,0,1,0,0,1h.11a.51.51,0,1,0,0-1Z"/>
        <path class="cls-1" d="M8.06,33.83H8a.51.51,0,1,0,0,1h.06a.51.51,0,1,0,0-1Z"/>
        <path class="cls-1" d="M21,36H21a.51.51,0,1,0,0,1H21a.51.51,0,0,0,0-1Z"/>
        <path class="cls-1" d="M15.49,36h-.11a.51.51,0,0,0,0,1h.11a.51.51,0,0,0,0-1Z"/>
        <path class="cls-1" d="M13.63,36h-.11a.51.51,0,0,0,0,1h.11a.51.51,0,1,0,0-1Z"/>
        <path class="cls-1" d="M11.78,36h-.11a.51.51,0,1,0,0,1h.11a.51.51,0,1,0,0-1Z"/>
        <path class="cls-1" d="M17.35,36h-.11a.51.51,0,1,0,0,1h.11a.51.51,0,1,0,0-1Z"/>
        <path class="cls-1" d="M9.92,36H9.81a.51.51,0,1,0,0,1h.11a.51.51,0,1,0,0-1Z"/>
        <path class="cls-1" d="M19.21,36H19.1a.51.51,0,0,0,0,1h.11a.51.51,0,1,0,0-1Z"/>
        <path class="cls-1" d="M8.06,36H8a.51.51,0,1,0,0,1h.06a.51.51,0,1,0,0-1Z"/>
        <path class="cls-1" d="M21,38.26H21a.51.51,0,0,0,0,1H21a.51.51,0,0,0,0-1Z"/>
        <path class="cls-1" d="M17.35,38.26h-.11a.51.51,0,0,0,0,1h.11a.51.51,0,1,0,0-1Z"/>
        <path class="cls-1" d="M9.92,38.26H9.81a.51.51,0,0,0,0,1h.11a.51.51,0,1,0,0-1Z"/>
        <path class="cls-1" d="M15.49,38.26h-.11a.51.51,0,0,0,0,1h.11a.51.51,0,0,0,0-1Z"/>
        <path class="cls-1" d="M11.78,38.26h-.11a.51.51,0,0,0,0,1h.11a.51.51,0,1,0,0-1Z"/>
        <path class="cls-1" d="M13.63,38.26h-.11a.51.51,0,0,0,0,1h.11a.51.51,0,0,0,0-1Z"/>
        <path class="cls-1" d="M19.21,38.26H19.1a.51.51,0,0,0,0,1h.11a.51.51,0,0,0,0-1Z"/>
        <path class="cls-1" d="M8.06,38.26H8a.51.51,0,0,0,0,1h.06a.51.51,0,0,0,0-1Z"/>
        <path class="cls-1" d="M41.15,21.58h.06a.51.51,0,0,0,0-1h-.06a.51.51,0,0,0,0,1Z"/>
        <path class="cls-1" d="M39.51,21.58h.06a.51.51,0,0,0,0-1h-.06a.51.51,0,0,0,0,1Z"/>
        <path class="cls-1" d="M41.15,23.79h.06a.51.51,0,1,0,0-1h-.06a.51.51,0,0,0,0,1Z"/>
        <path class="cls-1" d="M39.51,23.79h.06a.51.51,0,1,0,0-1h-.06a.51.51,0,1,0,0,1Z"/>
        <path class="cls-1" d="M41.15,26h.06a.51.51,0,0,0,0-1h-.06a.51.51,0,1,0,0,1Z"/>
        <path class="cls-1" d="M39.51,26h.06a.51.51,0,0,0,0-1h-.06a.51.51,0,0,0,0,1Z"/>
        <path class="cls-1" d="M41.15,28.22h.06a.51.51,0,0,0,0-1h-.06a.51.51,0,1,0,0,1Z"/>
        <path class="cls-1" d="M39.51,28.22h.06a.51.51,0,0,0,0-1h-.06a.51.51,0,0,0,0,1Z"/>
        <path class="cls-1" d="M41.15,32.65h.06a.51.51,0,0,0,0-1h-.06a.51.51,0,0,0,0,1Z"/>
        <path class="cls-1" d="M39.3,32.65h.11a.51.51,0,1,0,0-1H39.3a.51.51,0,1,0,0,1Z"/>
        <path class="cls-1" d="M37.5,32.65h.06a.51.51,0,0,0,0-1H37.5a.51.51,0,0,0,0,1Z"/>
        <path class="cls-1" d="M41.15,34.86h.06a.51.51,0,1,0,0-1h-.06a.51.51,0,0,0,0,1Z"/>
        <path class="cls-1" d="M35.58,34.86h.11a.51.51,0,0,0,0-1h-.11a.51.51,0,0,0,0,1Z"/>
        <path class="cls-1" d="M39.3,34.86h.11a.51.51,0,1,0,0-1H39.3a.51.51,0,1,0,0,1Z"/>
        <path class="cls-1" d="M37.44,34.86h.11a.51.51,0,0,0,0-1h-.11a.51.51,0,1,0,0,1Z"/>
        <path class="cls-1" d="M33.72,34.86h.11a.51.51,0,0,0,0-1h-.11a.51.51,0,0,0,0,1Z"/>
        <path class="cls-1" d="M32,33.83h-.11a.51.51,0,1,0,0,1H32a.51.51,0,0,0,0-1Z"/>
        <path class="cls-1" d="M30.12,33.83H30a.51.51,0,0,0,0,1h.11a.51.51,0,1,0,0-1Z"/>
        <path class="cls-1" d="M28.2,34.86h.06a.51.51,0,1,0,0-1H28.2a.51.51,0,0,0,0,1Z"/>
        <path class="cls-1" d="M41.15,37.07h.06a.51.51,0,1,0,0-1h-.06a.51.51,0,0,0,0,1Z"/>
        <path class="cls-1" d="M37.44,37.07h.11a.51.51,0,1,0,0-1h-.11a.51.51,0,1,0,0,1Z"/>
        <path class="cls-1" d="M39.3,37.07h.11a.51.51,0,1,0,0-1H39.3a.51.51,0,1,0,0,1Z"/>
        <path class="cls-1" d="M33.72,37.07h.11a.51.51,0,0,0,0-1h-.11a.51.51,0,0,0,0,1Z"/>
        <path class="cls-1" d="M32,36h-.11a.51.51,0,0,0,0,1H32a.51.51,0,0,0,0-1Z"/>
        <path class="cls-1" d="M30.12,36H30a.51.51,0,0,0,0,1h.11a.51.51,0,0,0,0-1Z"/>
        <path class="cls-1" d="M35.58,37.07h.11a.51.51,0,0,0,0-1h-.11a.51.51,0,1,0,0,1Z"/>
        <path class="cls-1" d="M28.2,37.07h.06a.51.51,0,0,0,0-1H28.2a.51.51,0,0,0,0,1Z"/>
        <path class="cls-1" d="M41.15,39.28h.06a.51.51,0,0,0,0-1h-.06a.51.51,0,0,0,0,1Z"/>
        <path class="cls-1" d="M39.3,39.28h.11a.51.51,0,0,0,0-1H39.3a.51.51,0,1,0,0,1Z"/>
        <path class="cls-1" d="M37.44,39.28h.11a.51.51,0,0,0,0-1h-.11a.51.51,0,1,0,0,1Z"/>
        <path class="cls-1" d="M33.72,39.28h.11a.51.51,0,0,0,0-1h-.11a.51.51,0,0,0,0,1Z"/>
        <path class="cls-1" d="M35.58,39.28h.11a.51.51,0,0,0,0-1h-.11a.51.51,0,0,0,0,1Z"/>
        <path class="cls-1" d="M30.12,38.26H30a.51.51,0,0,0,0,1h.11a.51.51,0,0,0,0-1Z"/>
        <path class="cls-1" d="M32,38.26h-.11a.51.51,0,0,0,0,1H32a.51.51,0,0,0,0-1Z"/>
        <path class="cls-1" d="M28.2,39.28h.06a.51.51,0,0,0,0-1H28.2a.51.51,0,0,0,0,1Z"/>
        <path class="cls-1" d="M28.2,21.58h.06a.51.51,0,0,0,0-1H28.2a.51.51,0,0,0,0,1Z"/>
        <path class="cls-1" d="M29.85,21.58h.06a.51.51,0,0,0,0-1h-.06a.51.51,0,0,0,0,1Z"/>
        <path class="cls-1" d="M28.2,23.79h.06a.51.51,0,0,0,0-1H28.2a.51.51,0,1,0,0,1Z"/>
        <path class="cls-1" d="M29.85,23.79h.06a.51.51,0,0,0,0-1h-.06a.51.51,0,0,0,0,1Z"/>
        <path class="cls-1" d="M28.2,26h.06a.51.51,0,0,0,0-1H28.2a.51.51,0,0,0,0,1Z"/>
        <path class="cls-1" d="M29.85,26h.06a.51.51,0,0,0,0-1h-.06a.51.51,0,0,0,0,1Z"/>
        <path class="cls-1" d="M28.2,28.22h.06a.51.51,0,0,0,0-1H28.2a.51.51,0,1,0,0,1Z"/>
        <path class="cls-1" d="M29.85,28.22h.06a.51.51,0,0,0,0-1h-.06a.51.51,0,0,0,0,1Z"/>
        <path class="cls-1" d="M28.2,32.65h.06a.51.51,0,0,0,0-1H28.2a.51.51,0,0,0,0,1Z"/>
        <path class="cls-1" d="M30,31.62a.51.51,0,0,0,0,1h.11a.51.51,0,1,0,0-1Z"/>
        <path class="cls-1" d="M31.85,32.65h.06a.51.51,0,1,0,0-1h-.06a.51.51,0,1,0,0,1Z"/>
        <path class="cls-1" d="M41.15,30.43h.06a.51.51,0,0,0,0-1h-.06a.51.51,0,1,0,0,1Z"/>
        <path class="cls-1" d="M39.51,30.43h.06a.51.51,0,0,0,0-1h-.06a.51.51,0,0,0,0,1Z"/>
        <path class="cls-1" d="M28.2,30.43h.06a.51.51,0,0,0,0-1H28.2a.51.51,0,0,0,0,1Z"/>
        <path class="cls-1" d="M29.85,30.43h.06a.51.51,0,0,0,0-1h-.06a.51.51,0,0,0,0,1Z"/>
      </g>
    </g>
  </g>
</svg>
