<svg xmlns="http://www.w3.org/2000/svg" viewBox="0 0 50.33 50.74">
  <defs>
    <style>
      .cls-1 {
        fill: #fff;
      }
    </style>
  </defs>
  <title>visit_icon</title>
  <g id="Layer_2" data-name="Layer 2">
    <g id="Layer_1-2" data-name="Layer 1">
      <g>
        <path class="cls-1" d="M31.13,16.56a6,6,0,1,0-6,6A6,6,0,0,0,31.13,16.56Zm-10.75,0a4.79,4.79,0,1,1,4.79,4.79A4.79,4.79,0,0,1,20.38,16.56Z"/>
        <path class="cls-1" d="M25.17,5.07a.59.59,0,0,0,.59-.59V.59a.59.59,0,1,0-1.17,0v3.9A.59.59,0,0,0,25.17,5.07Z"/>
        <path class="cls-1" d="M16.32,8.39a.59.59,0,1,0,.83-.83L14.4,4.8a.59.59,0,1,0-.83.83Z"/>
        <path class="cls-1" d="M33.6,8.56A.58.58,0,0,0,34,8.39l2.75-2.75a.59.59,0,0,0-.83-.83L33.18,7.56a.59.59,0,0,0,.42,1Z"/>
        <path class="cls-1" d="M29.5,5.93a.59.59,0,0,0,.77-.32L31.76,2a.59.59,0,0,0-1.08-.45l-1.49,3.6A.59.59,0,0,0,29.5,5.93Z"/>
        <path class="cls-1" d="M20.06,5.61a.59.59,0,1,0,1.08-.45l-1.49-3.6A.59.59,0,1,0,18.57,2Z"/>
        <path class="cls-1" d="M50.28,40.56a.59.59,0,0,0-.78-.29l-10,4.56L26.58,39l15.83-7.21L49.5,35A.59.59,0,1,0,50,33.9L43.83,31.1,50,28.29a.59.59,0,0,0-.49-1.07l-7.09,3.23-5.74-2.62L50,21.77a.59.59,0,0,0-.49-1.07L35.26,27.19,32.68,26c1.63-3.83,2.46-7,2.46-9.46a10,10,0,0,0-19.94,0c0,2.92,1.16,6.83,3.45,11.67l-7.8,3.55-10-4.56a.59.59,0,0,0-.49,1.07l9.09,4.14L.34,36.57a.59.59,0,1,0,.49,1.07l10-4.56L23.75,39l-16,7.29L.83,43.09a.59.59,0,0,0-.49,1.07l6,2.73-6,2.73a.59.59,0,1,0,.49,1.07l6.92-3.15,6.92,3.15h0l.11,0H15l.11,0h0l17.18-7.82,5.74,2.62L29,49.62a.59.59,0,1,0,.49,1.07l10-4.56,10,4.56A.59.59,0,1,0,50,49.62L40.9,45.48,50,41.33A.59.59,0,0,0,50.28,40.56ZM41,31.1,26.4,37.75c.89-1.4,2.44-3.94,4-6.9q1-2,1.83-3.76ZM16.37,16.56a8.8,8.8,0,0,1,17.59,0c0,6.71-6.88,17.94-8.8,20.94C23.25,34.51,16.37,23.28,16.37,16.56Zm-4.1,15.87,6.9-3.14q.38.77.79,1.56c1.54,3,3.09,5.5,4,6.9Zm2.64,17.07L9.16,46.89l16-7.29,5.74,2.62Z"/>
      </g>
    </g>
  </g>
</svg>
