<svg xmlns="http://www.w3.org/2000/svg" width="351" height="199" viewBox="0 0 351 199">
  <path id="Rectangle_555_-_Outline" data-name="Rectangle 555 - Outline" d="M0,0H1.1V1.1H2.2V0H3.3V1.1H4.4V0H5.5V1.1H6.6V0H7.7V1.1H8.8V0H9.9V1.1H11V0h1.1V1.1h1.1V0h1.1V1.1h1.1V0h1.1V1.1h1.1V0h1.1V1.1h1.1V0h1.1V20H19.8v-.2H18.7V20H17.6v-.2H16.5V20H15.4v-.2H14.3V20H13.2v-.2H12.1V20H11v-.2H9.9V20H8.8v-.2H7.7V20H6.6v-.2H5.5V20H4.4v-.2H3.3V20H2.2v-.2H1.1V20H0ZM2.2,2.2H1.1V3.3H2.2Zm2.2,0H3.3V3.3H4.4Zm2.2,0H5.5V3.3H6.6Zm2.2,0H7.7V3.3H8.8Zm2.2,0H9.9V3.3H11Zm2.2,0H12.1V3.3h1.1Zm2.2,0H14.3V3.3h1.1Zm2.2,0H16.5V3.3h1.1Zm2.2,0H18.7V3.3h1.1ZM2.2,4.4H1.1V5.5H2.2Zm2.2,0H3.3V5.5H4.4Zm2.2,0H5.5V5.5H6.6Zm2.2,0H7.7V5.5H8.8Zm2.2,0H9.9V5.5H11Zm2.2,0H12.1V5.5h1.1Zm2.2,0H14.3V5.5h1.1Zm2.2,0H16.5V5.5h1.1Zm2.2,0H18.7V5.5h1.1ZM2.2,6.6H1.1V7.7H2.2Zm2.2,0H3.3V7.7H4.4Zm2.2,0H5.5V7.7H6.6Zm2.2,0H7.7V7.7H8.8Zm2.2,0H9.9V7.7H11Zm2.2,0H12.1V7.7h1.1Zm2.2,0H14.3V7.7h1.1Zm2.2,0H16.5V7.7h1.1Zm2.2,0H18.7V7.7h1.1ZM2.2,8.8H1.1V9.9H2.2Zm2.2,0H3.3V9.9H4.4Zm2.2,0H5.5V9.9H6.6Zm2.2,0H7.7V9.9H8.8Zm2.2,0H9.9V9.9H11Zm2.2,0H12.1V9.9h1.1Zm2.2,0H14.3V9.9h1.1Zm2.2,0H16.5V9.9h1.1Zm2.2,0H18.7V9.9h1.1ZM2.2,11H1.1v1.1H2.2Zm2.2,0H3.3v1.1H4.4Zm2.2,0H5.5v1.1H6.6Zm2.2,0H7.7v1.1H8.8ZM11,11H9.9v1.1H11Zm2.2,0H12.1v1.1h1.1Zm2.2,0H14.3v1.1h1.1Zm2.2,0H16.5v1.1h1.1Zm2.2,0H18.7v1.1h1.1ZM2.2,13.2H1.1v1.1H2.2Zm2.2,0H3.3v1.1H4.4Zm2.2,0H5.5v1.1H6.6Zm2.2,0H7.7v1.1H8.8Zm2.2,0H9.9v1.1H11Zm2.2,0H12.1v1.1h1.1Zm2.2,0H14.3v1.1h1.1Zm2.2,0H16.5v1.1h1.1Zm2.2,0H18.7v1.1h1.1ZM2.2,15.4H1.1v1.1H2.2Zm2.2,0H3.3v1.1H4.4Zm2.2,0H5.5v1.1H6.6Zm2.2,0H7.7v1.1H8.8Zm2.2,0H9.9v1.1H11Zm2.2,0H12.1v1.1h1.1Zm2.2,0H14.3v1.1h1.1Zm2.2,0H16.5v1.1h1.1Zm2.2,0H18.7v1.1h1.1ZM2.2,17.6H1.1v1.1H2.2Zm2.2,0H3.3v1.1H4.4Zm2.2,0H5.5v1.1H6.6Zm2.2,0H7.7v1.1H8.8Zm2.2,0H9.9v1.1H11Zm2.2,0H12.1v1.1h1.1Zm2.2,0H14.3v1.1h1.1Zm2.2,0H16.5v1.1h1.1Zm2.2,0H18.7v1.1h1.1ZM22,0h1.1V20H22Zm2.2,0h1.1V20H24.2Zm2.2,0h1.1V20H26.4Zm2.2,0h1.1V20H28.6Zm2.2,0h1.1V20H30.8ZM33,0h1.1V20H33Zm2.2,0h1.1V20H35.2Zm2.2,0h1.1V20H37.4Zm2.2,0h1.1V20H39.6Zm2.2,0h1.1V20H41.8ZM44,0h1.1V20H44Zm2.2,0h1.1V20H46.2Zm2.2,0h1.1V20H48.4Zm2.2,0h1.1V20H50.6Zm2.2,0h1.1V20H52.8ZM55,0h1.1V20H55Zm2.2,0h1.1V20H57.2Zm2.2,0h1.1V20H59.4Zm2.2,0h1.1V20H61.6Zm2.2,0h1.1V20H63.8ZM66,0h1.1V20H66Zm2.2,0h1.1V20H68.2Zm2.2,0h1.1V20H70.4Zm2.2,0h1.1V20H72.6Zm2.2,0h1.1V20H74.8ZM77,0h1.1V20H77Zm2.2,0h1.1V20H79.2Zm2.2,0h1.1V20H81.4Zm2.2,0h1.1V20H83.6Zm2.2,0h1.1V20H85.8ZM88,0h1.1V20H88Zm2.2,0h1.1V20H90.2Zm2.2,0h1.1V20H92.4Zm2.2,0h1.1V20H94.6Zm2.2,0h1.1V20H96.8ZM99,0h1.1V20H99Zm2.2,0h1.1V20h-1.1Zm2.2,0h1.1V20h-1.1Zm2.2,0h1.1V20h-1.1Zm2.2,0h1.1V20h-1.1ZM110,0h1.1V20H110Zm2.2,0h1.1V20h-1.1Zm2.2,0h1.1V20h-1.1Zm2.2,0h1.1V20h-1.1Zm2.2,0h1.1V20h-1.1ZM121,0h1.1V20H121Zm2.2,0h1.1V20h-1.1Zm2.2,0h1.1V20h-1.1Zm2.2,0h1.1V20h-1.1Zm2.2,0h1.1V20h-1.1ZM132,0h1.1V20H132Zm2.2,0h1.1V20h-1.1Zm2.2,0h1.1V20h-1.1Zm2.2,0h1.1V20h-1.1Zm2.2,0h1.1V20h-1.1ZM143,0h1.1V20H143Zm2.2,0h1.1V20h-1.1Zm2.2,0h1.1V20h-1.1Zm2.2,0h1.1V20h-1.1Zm2.2,0h1.1V20h-1.1ZM154,0h1.1V20H154Zm2.2,0h1.1V20h-1.1Zm2.2,0h1.1V20h-1.1Zm2.2,0h1.1V20h-1.1Zm2.2,0h1.1V20h-1.1ZM165,0h1.1V20H165Zm2.2,0h1.1V20h-1.1Zm2.2,0h1.1V20h-1.1Zm2.2,0h1.1V20h-1.1Zm2.2,0h1.1V20h-1.1ZM176,0h1.1V20H176Zm2.2,0h1.1V20h-1.1Zm2.2,0h1.1V20h-1.1Zm2.2,0h1.1V20h-1.1Zm2.2,0h1.1V20h-1.1ZM187,0h1.1V20H187Zm2.2,0h1.1V20h-1.1Zm2.2,0h1.1V20h-1.1Zm2.2,0h1.1V20h-1.1Zm2.2,0h1.1V20h-1.1ZM198,0h1.1V20H198Zm2.2,0h1.1V20h-1.1Zm2.2,0h1.1V20h-1.1Zm2.2,0h1.1V20h-1.1Zm2.2,0h1.1V20h-1.1ZM209,0h1.1V20H209Zm2.2,0h1.1V20h-1.1Zm2.2,0h1.1V20h-1.1Zm2.2,0h1.1V20h-1.1Zm2.2,0h1.1V20h-1.1ZM220,0h1.1V20H220Zm2.2,0h1.1V20h-1.1Zm2.2,0h1.1V20h-1.1Zm2.2,0h1.1V20h-1.1Zm2.2,0h1.1V20h-1.1ZM231,0h1.1V20H231Zm2.2,0h1.1V20h-1.1Zm2.2,0h1.1V20h-1.1Zm2.2,0h1.1V20h-1.1Zm2.2,0h1.1V20h-1.1ZM242,0h1.1V20H242Zm2.2,0h1.1V20h-1.1Zm2.2,0h1.1V20h-1.1Zm2.2,0h1.1V20h-1.1Zm2.2,0h1.1V20h-1.1ZM253,0h1.1V20H253Zm2.2,0h1.1V20h-1.1Zm2.2,0h1.1V20h-1.1Zm2.2,0h1.1V20h-1.1Zm2.2,0h1.1V20h-1.1ZM264,0h1.1V20H264Zm2.2,0h1.1V20h-1.1Zm2.2,0h1.1V20h-1.1Zm2.2,0h1.1V20h-1.1Zm2.2,0h1.1V20h-1.1ZM275,0h1.1V20H275Zm2.2,0h1.1V20h-1.1Zm2.2,0h1.1V20h-1.1Zm2.2,0h1.1V20h-1.1Zm2.2,0h1.1V20h-1.1ZM286,0h1.1V20H286Zm2.2,0h1.1V20h-1.1Zm2.2,0h1.1V20h-1.1Zm2.2,0h1.1V20h-1.1Zm2.2,0h1.1V20h-1.1ZM297,0h1.1V20H297Zm2.2,0h1.1V20h-1.1Zm2.2,0h1.1V20h-1.1Zm2.2,0h1.1V20h-1.1Zm2.2,0h1.1V20h-1.1ZM308,0h1.1V20H308Zm2.2,0h1.1V20h-1.1Zm2.2,0h1.1V20h-1.1Zm2.2,0h1.1V20h-1.1Zm2.2,0h1.1V20h-1.1ZM319,0h1.1V20H319Zm2.2,0h1.1V20h-1.1Zm2.2,0h1.1V20h-1.1Zm2.2,0h1.1V20h-1.1Zm2.2,0h1.1V20h-1.1ZM330,0h1.1V1h1.1V0h1.1V1h1.1V0h1.1V1h1.1V0h1.1V1h1.1V0h1.1V1H341V0h1.1V1h1.1V0h1.1V1h1.1V0h1.1V1h1.1V0h1.1V1h1.1V0h1.1V1h.1V2.1h-.1V3.2h.1V4.3h-.1V5.4h.1V6.5h-.1V7.6h.1V8.7h-.1V9.8h.1v1.1h-.1V12h.1v1.1h-.1v1.1h.1v1.1h-.1v1.1h.1v1.1h-.1v1.1h.1v1.1h-.1V20h-1.1v-.3h-1.1V20h-1.1v-.3h-1.1V20h-1.1v-.3h-1.1V20h-1.1v-.3h-1.1V20H341v-.3h-1.1V20h-1.1v-.3h-1.1V20h-1.1v-.3h-1.1V20h-1.1v-.3h-1.1V20h-1.1v-.3h-1.1V20H330Zm2.2,2.1h-1.1V3.2h1.1Zm2.2,0h-1.1V3.2h1.1Zm2.2,0h-1.1V3.2h1.1Zm2.2,0h-1.1V3.2h1.1Zm2.2,0h-1.1V3.2H341Zm2.2,0h-1.1V3.2h1.1Zm2.2,0h-1.1V3.2h1.1Zm2.2,0h-1.1V3.2h1.1Zm2.2,0h-1.1V3.2h1.1ZM332.2,4.3h-1.1V5.4h1.1Zm2.2,0h-1.1V5.4h1.1Zm2.2,0h-1.1V5.4h1.1Zm2.2,0h-1.1V5.4h1.1Zm2.2,0h-1.1V5.4H341Zm2.2,0h-1.1V5.4h1.1Zm2.2,0h-1.1V5.4h1.1Zm2.2,0h-1.1V5.4h1.1Zm2.2,0h-1.1V5.4h1.1ZM332.2,6.5h-1.1V7.6h1.1Zm2.2,0h-1.1V7.6h1.1Zm2.2,0h-1.1V7.6h1.1Zm2.2,0h-1.1V7.6h1.1Zm2.2,0h-1.1V7.6H341Zm2.2,0h-1.1V7.6h1.1Zm2.2,0h-1.1V7.6h1.1Zm2.2,0h-1.1V7.6h1.1Zm2.2,0h-1.1V7.6h1.1ZM332.2,8.7h-1.1V9.8h1.1Zm2.2,0h-1.1V9.8h1.1Zm2.2,0h-1.1V9.8h1.1Zm2.2,0h-1.1V9.8h1.1Zm2.2,0h-1.1V9.8H341Zm2.2,0h-1.1V9.8h1.1Zm2.2,0h-1.1V9.8h1.1Zm2.2,0h-1.1V9.8h1.1Zm2.2,0h-1.1V9.8h1.1Zm-17.6,2.2h-1.1V12h1.1Zm2.2,0h-1.1V12h1.1Zm2.2,0h-1.1V12h1.1Zm2.2,0h-1.1V12h1.1Zm2.2,0h-1.1V12H341Zm2.2,0h-1.1V12h1.1Zm2.2,0h-1.1V12h1.1Zm2.2,0h-1.1V12h1.1Zm2.2,0h-1.1V12h1.1Zm-17.6,2.2h-1.1v1.1h1.1Zm2.2,0h-1.1v1.1h1.1Zm2.2,0h-1.1v1.1h1.1Zm2.2,0h-1.1v1.1h1.1Zm2.2,0h-1.1v1.1H341Zm2.2,0h-1.1v1.1h1.1Zm2.2,0h-1.1v1.1h1.1Zm2.2,0h-1.1v1.1h1.1Zm2.2,0h-1.1v1.1h1.1Zm-17.6,2.2h-1.1v1.1h1.1Zm2.2,0h-1.1v1.1h1.1Zm2.2,0h-1.1v1.1h1.1Zm2.2,0h-1.1v1.1h1.1Zm2.2,0h-1.1v1.1H341Zm2.2,0h-1.1v1.1h1.1Zm2.2,0h-1.1v1.1h1.1Zm2.2,0h-1.1v1.1h1.1Zm2.2,0h-1.1v1.1h1.1Zm-17.6,2.2h-1.1v1.1h1.1Zm2.2,0h-1.1v1.1h1.1Zm2.2,0h-1.1v1.1h1.1Zm2.2,0h-1.1v1.1h1.1Zm2.2,0h-1.1v1.1H341Zm2.2,0h-1.1v1.1h1.1Zm2.2,0h-1.1v1.1h1.1Zm2.2,0h-1.1v1.1h1.1Zm2.2,0h-1.1v1.1h1.1ZM331,20.8h20v1.1H331Zm0,2.2h20v1.1H331Zm0,2.2h20v1.1H331Zm0,2.2h20v1.1H331Zm0,2.2h20v1.1H331Zm0,2.2h20v1.1H331Zm0,2.2h20v1.1H331Zm0,2.2h20v1.1H331Zm0,2.2h20v1.1H331Zm0,2.2h20v1.1H331Zm0,2.2h20v1.1H331Zm0,2.2h20v1.1H331Zm0,2.2h20v1.1H331Zm0,2.2h20v1.1H331Zm0,2.2h20v1.1H331Zm0,2.2h20v1.1H331Zm0,2.2h20v1.1H331Zm0,2.2h20v1.1H331Zm0,2.2h20v1.1H331Zm0,2.2h20v1.1H331Zm0,2.2h20v1.1H331Zm0,2.2h20v1.1H331Zm0,2.2h20v1.1H331Zm0,2.2h20v1.1H331Zm0,2.2h20v1.1H331Zm0,2.2h20v1.1H331Zm0,2.2h20v1.1H331Zm0,2.2h20v1.1H331Zm0,2.2h20v1.1H331Zm0,2.2h20v1.1H331Zm0,2.2h20v1.1H331Zm0,2.2h20v1.1H331Zm0,2.2h20v1.1H331Zm0,2.2h20v1.1H331Zm0,2.2h20v1.1H331Zm0,2.2h20v1.1H331Zm0,2.2h20v1.1H331Zm0,2.2h20v1.1H331Zm0,2.2h20v1.1H331Zm0,2.2h20v1.1H331Zm0,2.2h20v1.1H331Zm0,2.2h20v1.1H331Zm0,2.2h20v1.1H331Zm0,2.2h20v1.1H331Zm0,2.2h20v1.1H331Zm0,2.2h20v1.1H331Zm0,2.2h20v1.1H331Zm0,2.2h20v1.1H331Zm0,2.2h20v1.1H331Zm0,2.2h20v1.1H331Zm0,2.2h20v1.1H331Zm0,2.2h20v1.1H331Zm0,2.2h20v1.1H331Zm0,2.2h20v1.1H331Zm0,2.2h20v1.1H331Zm0,2.2h20v1.1H331Zm0,2.2h20v1.1H331Zm0,2.2h20v1.1H331Zm0,2.2h20v1.1H331Zm0,2.2h20v1.1H331Zm0,2.2h20v1.1H331Zm0,2.2h20v1.1H331Zm0,2.2h20v1.1H331Zm0,2.2h20v1.1H331Zm0,2.2h20v1.1H331Zm0,2.2h20v1.1H331Zm0,2.2h20v1.1H331Zm0,2.2h20v1.1H331Zm0,2.2h20v1.1H331Zm0,2.2h20v1.1H331Zm0,2.2h20v1.1H331Zm0,2.2h20v1.1H331Zm-.9,2h1.1v.2h1.1V179h1.1v.2h1.1V179h1.1v.2h1.1V179h1.1v.2h1.1V179H340v.2h1.1V179h1.1v.2h1.1V179h1.1v.2h1.1V179h1.1v.2h1.1V179h1.1v.2h1.1V179H351v20h-1.1v-1.1h-1.1V199h-1.1v-1.1h-1.1V199h-1.1v-1.1h-1.1V199h-1.1v-1.1h-1.1V199h-1.1v-1.1H340V199h-1.1v-1.1h-1.1V199h-1.1v-1.1h-1.1V199h-1.1v-1.1h-1.1V199h-1.1v-1.1h-1.1V199h-1.1Zm2.2,1.3h-1.1v1.1h1.1Zm2.2,0h-1.1v1.1h1.1Zm2.2,0h-1.1v1.1h1.1Zm2.2,0h-1.1v1.1h1.1Zm2.2,0H340v1.1h1.1Zm2.2,0h-1.1v1.1h1.1Zm2.2,0h-1.1v1.1h1.1Zm2.2,0h-1.1v1.1h1.1Zm2.2,0h-1.1v1.1h1.1Zm-17.6,2.2h-1.1v1.1h1.1Zm2.2,0h-1.1v1.1h1.1Zm2.2,0h-1.1v1.1h1.1Zm2.2,0h-1.1v1.1h1.1Zm2.2,0H340v1.1h1.1Zm2.2,0h-1.1v1.1h1.1Zm2.2,0h-1.1v1.1h1.1Zm2.2,0h-1.1v1.1h1.1Zm2.2,0h-1.1v1.1h1.1Zm-17.6,2.2h-1.1v1.1h1.1Zm2.2,0h-1.1v1.1h1.1Zm2.2,0h-1.1v1.1h1.1Zm2.2,0h-1.1v1.1h1.1Zm2.2,0H340v1.1h1.1Zm2.2,0h-1.1v1.1h1.1Zm2.2,0h-1.1v1.1h1.1Zm2.2,0h-1.1v1.1h1.1Zm2.2,0h-1.1v1.1h1.1Zm-17.6,2.2h-1.1V188h1.1Zm2.2,0h-1.1V188h1.1Zm2.2,0h-1.1V188h1.1Zm2.2,0h-1.1V188h1.1Zm2.2,0H340V188h1.1Zm2.2,0h-1.1V188h1.1Zm2.2,0h-1.1V188h1.1Zm2.2,0h-1.1V188h1.1Zm2.2,0h-1.1V188h1.1Zm-17.6,2.2h-1.1v1.1h1.1Zm2.2,0h-1.1v1.1h1.1Zm2.2,0h-1.1v1.1h1.1Zm2.2,0h-1.1v1.1h1.1Zm2.2,0H340v1.1h1.1Zm2.2,0h-1.1v1.1h1.1Zm2.2,0h-1.1v1.1h1.1Zm2.2,0h-1.1v1.1h1.1Zm2.2,0h-1.1v1.1h1.1Zm-17.6,2.2h-1.1v1.1h1.1Zm2.2,0h-1.1v1.1h1.1Zm2.2,0h-1.1v1.1h1.1Zm2.2,0h-1.1v1.1h1.1Zm2.2,0H340v1.1h1.1Zm2.2,0h-1.1v1.1h1.1Zm2.2,0h-1.1v1.1h1.1Zm2.2,0h-1.1v1.1h1.1Zm2.2,0h-1.1v1.1h1.1Zm-17.6,2.2h-1.1v1.1h1.1Zm2.2,0h-1.1v1.1h1.1Zm2.2,0h-1.1v1.1h1.1Zm2.2,0h-1.1v1.1h1.1Zm2.2,0H340v1.1h1.1Zm2.2,0h-1.1v1.1h1.1Zm2.2,0h-1.1v1.1h1.1Zm2.2,0h-1.1v1.1h1.1Zm2.2,0h-1.1v1.1h1.1Zm-17.6,2.2h-1.1v1.1h1.1Zm2.2,0h-1.1v1.1h1.1Zm2.2,0h-1.1v1.1h1.1Zm2.2,0h-1.1v1.1h1.1Zm2.2,0H340v1.1h1.1Zm2.2,0h-1.1v1.1h1.1Zm2.2,0h-1.1v1.1h1.1Zm2.2,0h-1.1v1.1h1.1Zm2.2,0h-1.1v1.1h1.1Zm-22-16.7H329v20h-1.1Zm-2.2,0h1.1v20h-1.1Zm-2.2,0h1.1v20h-1.1Zm-2.2,0h1.1v20h-1.1Zm-2.2,0h1.1v20h-1.1Zm-2.2,0H318v20h-1.1Zm-2.2,0h1.1v20h-1.1Zm-2.2,0h1.1v20h-1.1Zm-2.2,0h1.1v20h-1.1Zm-2.2,0h1.1v20h-1.1Zm-2.2,0H307v20h-1.1Zm-2.2,0h1.1v20h-1.1Zm-2.2,0h1.1v20h-1.1Zm-2.2,0h1.1v20h-1.1Zm-2.2,0h1.1v20h-1.1Zm-2.2,0H296v20h-1.1Zm-2.2,0h1.1v20h-1.1Zm-2.2,0h1.1v20h-1.1Zm-2.2,0h1.1v20h-1.1Zm-2.2,0h1.1v20h-1.1Zm-2.2,0H285v20h-1.1Zm-2.2,0h1.1v20h-1.1Zm-2.2,0h1.1v20h-1.1Zm-2.2,0h1.1v20h-1.1Zm-2.2,0h1.1v20h-1.1Zm-2.2,0H274v20h-1.1Zm-2.2,0h1.1v20h-1.1Zm-2.2,0h1.1v20h-1.1Zm-2.2,0h1.1v20h-1.1Zm-2.2,0h1.1v20h-1.1Zm-2.2,0H263v20h-1.1Zm-2.2,0h1.1v20h-1.1Zm-2.2,0h1.1v20h-1.1Zm-2.2,0h1.1v20h-1.1Zm-2.2,0h1.1v20h-1.1Zm-2.2,0H252v20h-1.1Zm-2.2,0h1.1v20h-1.1Zm-2.2,0h1.1v20h-1.1Zm-2.2,0h1.1v20h-1.1Zm-2.2,0h1.1v20h-1.1Zm-2.2,0H241v20h-1.1Zm-2.2,0h1.1v20h-1.1Zm-2.2,0h1.1v20h-1.1Zm-2.2,0h1.1v20h-1.1Zm-2.2,0h1.1v20h-1.1Zm-2.2,0H230v20h-1.1Zm-2.2,0h1.1v20h-1.1Zm-2.2,0h1.1v20h-1.1Zm-2.2,0h1.1v20h-1.1Zm-2.2,0h1.1v20h-1.1Zm-2.2,0H219v20h-1.1Zm-2.2,0h1.1v20h-1.1Zm-2.2,0h1.1v20h-1.1Zm-2.2,0h1.1v20h-1.1Zm-2.2,0h1.1v20h-1.1Zm-2.2,0H208v20h-1.1Zm-2.2,0h1.1v20h-1.1Zm-2.2,0h1.1v20h-1.1Zm-2.2,0h1.1v20h-1.1Zm-2.2,0h1.1v20h-1.1Zm-2.2,0H197v20h-1.1Zm-2.2,0h1.1v20h-1.1Zm-2.2,0h1.1v20h-1.1Zm-2.2,0h1.1v20h-1.1Zm-2.2,0h1.1v20h-1.1Zm-2.2,0H186v20h-1.1Zm-2.2,0h1.1v20h-1.1Zm-2.2,0h1.1v20h-1.1Zm-2.2,0h1.1v20h-1.1Zm-2.2,0h1.1v20h-1.1Zm-2.2,0H175v20h-1.1Zm-2.2,0h1.1v20h-1.1Zm-2.2,0h1.1v20h-1.1Zm-2.2,0h1.1v20h-1.1Zm-2.2,0h1.1v20h-1.1Zm-2.2,0H164v20h-1.1Zm-2.2,0h1.1v20h-1.1Zm-2.2,0h1.1v20h-1.1Zm-2.2,0h1.1v20h-1.1Zm-2.2,0h1.1v20h-1.1Zm-2.2,0H153v20h-1.1Zm-2.2,0h1.1v20h-1.1Zm-2.2,0h1.1v20h-1.1Zm-2.2,0h1.1v20h-1.1Zm-2.2,0h1.1v20h-1.1Zm-2.2,0H142v20h-1.1Zm-2.2,0h1.1v20h-1.1Zm-2.2,0h1.1v20h-1.1Zm-2.2,0h1.1v20h-1.1Zm-2.2,0h1.1v20h-1.1Zm-2.2,0H131v20h-1.1Zm-2.2,0h1.1v20h-1.1Zm-2.2,0h1.1v20h-1.1Zm-2.2,0h1.1v20h-1.1Zm-2.2,0h1.1v20h-1.1Zm-2.2,0H120v20h-1.1Zm-2.2,0h1.1v20h-1.1Zm-2.2,0h1.1v20h-1.1Zm-2.2,0h1.1v20h-1.1Zm-2.2,0h1.1v20h-1.1Zm-2.2,0H109v20h-1.1Zm-2.2,0h1.1v20h-1.1Zm-2.2,0h1.1v20h-1.1Zm-2.2,0h1.1v20h-1.1Zm-2.2,0h1.1v20H99.1Zm-2.2,0H98v20H96.9Zm-2.2,0h1.1v20H94.7Zm-2.2,0h1.1v20H92.5Zm-2.2,0h1.1v20H90.3Zm-2.2,0h1.1v20H88.1Zm-2.2,0H87v20H85.9Zm-2.2,0h1.1v20H83.7Zm-2.2,0h1.1v20H81.5Zm-2.2,0h1.1v20H79.3Zm-2.2,0h1.1v20H77.1Zm-2.2,0H76v20H74.9Zm-2.2,0h1.1v20H72.7Zm-2.2,0h1.1v20H70.5Zm-2.2,0h1.1v20H68.3Zm-2.2,0h1.1v20H66.1Zm-2.2,0H65v20H63.9Zm-2.2,0h1.1v20H61.7Zm-2.2,0h1.1v20H59.5Zm-2.2,0h1.1v20H57.3Zm-2.2,0h1.1v20H55.1Zm-2.2,0H54v20H52.9Zm-2.2,0h1.1v20H50.7Zm-2.2,0h1.1v20H48.5Zm-2.2,0h1.1v20H46.3Zm-2.2,0h1.1v20H44.1Zm-2.2,0H43v20H41.9Zm-2.2,0h1.1v20H39.7Zm-2.2,0h1.1v20H37.5Zm-2.2,0h1.1v20H35.3Zm-2.2,0h1.1v20H33.1Zm-2.2,0H32v20H30.9Zm-2.2,0h1.1v20H28.7Zm-2.2,0h1.1v20H26.5Zm-2.2,0h1.1v20H24.3Zm-2.2,0h1.1v20H22.1Zm-22,0H1.2v.3H2.3V179H3.4v.3H4.5V179H5.6v.3H6.7V179H7.8v.3H8.9V179H10v.3h1.1V179h1.1v.3h1.1V179h1.1v.3h1.1V179h1.1v.3h1.1V179h1.1v.3h1.1V179H21v20H19.9v-1H18.8v1H17.7v-1H16.6v1H15.5v-1H14.4v1H13.3v-1H12.2v1H11.1v-1H10v1H8.9v-1H7.8v1H6.7v-1H5.6v1H4.5v-1H3.4v1H2.3v-1H1.2v1H.1v-1H0v-1.1H.1v-1.1H0v-1.1H.1v-1.1H0v-1.1H.1v-1.1H0v-1.1H.1v-1.1H0v-1.1H.1V187H0v-1.1H.1v-1.1H0v-1.1H.1v-1.1H0v-1.1H.1v-1.1H0v-1.1H.1Zm2.2,1.4H1.2v1.1H2.3Zm2.2,0H3.4v1.1H4.5Zm2.2,0H5.6v1.1H6.7Zm2.2,0H7.8v1.1H8.9Zm2.2,0H10v1.1h1.1Zm2.2,0H12.2v1.1h1.1Zm2.2,0H14.4v1.1h1.1Zm2.2,0H16.6v1.1h1.1Zm2.2,0H18.8v1.1h1.1ZM2.3,182.6H1.2v1.1H2.3Zm2.2,0H3.4v1.1H4.5Zm2.2,0H5.6v1.1H6.7Zm2.2,0H7.8v1.1H8.9Zm2.2,0H10v1.1h1.1Zm2.2,0H12.2v1.1h1.1Zm2.2,0H14.4v1.1h1.1Zm2.2,0H16.6v1.1h1.1Zm2.2,0H18.8v1.1h1.1ZM2.3,184.8H1.2v1.1H2.3Zm2.2,0H3.4v1.1H4.5Zm2.2,0H5.6v1.1H6.7Zm2.2,0H7.8v1.1H8.9Zm2.2,0H10v1.1h1.1Zm2.2,0H12.2v1.1h1.1Zm2.2,0H14.4v1.1h1.1Zm2.2,0H16.6v1.1h1.1Zm2.2,0H18.8v1.1h1.1ZM2.3,187H1.2v1.1H2.3Zm2.2,0H3.4v1.1H4.5Zm2.2,0H5.6v1.1H6.7Zm2.2,0H7.8v1.1H8.9Zm2.2,0H10v1.1h1.1Zm2.2,0H12.2v1.1h1.1Zm2.2,0H14.4v1.1h1.1Zm2.2,0H16.6v1.1h1.1Zm2.2,0H18.8v1.1h1.1ZM2.3,189.2H1.2v1.1H2.3Zm2.2,0H3.4v1.1H4.5Zm2.2,0H5.6v1.1H6.7Zm2.2,0H7.8v1.1H8.9Zm2.2,0H10v1.1h1.1Zm2.2,0H12.2v1.1h1.1Zm2.2,0H14.4v1.1h1.1Zm2.2,0H16.6v1.1h1.1Zm2.2,0H18.8v1.1h1.1ZM2.3,191.4H1.2v1.1H2.3Zm2.2,0H3.4v1.1H4.5Zm2.2,0H5.6v1.1H6.7Zm2.2,0H7.8v1.1H8.9Zm2.2,0H10v1.1h1.1Zm2.2,0H12.2v1.1h1.1Zm2.2,0H14.4v1.1h1.1Zm2.2,0H16.6v1.1h1.1Zm2.2,0H18.8v1.1h1.1ZM2.3,193.6H1.2v1.1H2.3Zm2.2,0H3.4v1.1H4.5Zm2.2,0H5.6v1.1H6.7Zm2.2,0H7.8v1.1H8.9Zm2.2,0H10v1.1h1.1Zm2.2,0H12.2v1.1h1.1Zm2.2,0H14.4v1.1h1.1Zm2.2,0H16.6v1.1h1.1Zm2.2,0H18.8v1.1h1.1ZM2.3,195.8H1.2v1.1H2.3Zm2.2,0H3.4v1.1H4.5Zm2.2,0H5.6v1.1H6.7Zm2.2,0H7.8v1.1H8.9Zm2.2,0H10v1.1h1.1Zm2.2,0H12.2v1.1h1.1Zm2.2,0H14.4v1.1h1.1Zm2.2,0H16.6v1.1h1.1Zm2.2,0H18.8v1.1h1.1ZM0,177.1H20v1.1H0Zm0-2.2H20V176H0Zm0-2.2H20v1.1H0Zm0-2.2H20v1.1H0Zm0-2.2H20v1.1H0Zm0-2.2H20v1.1H0Zm0-2.2H20V165H0Zm0-2.2H20v1.1H0Zm0-2.2H20v1.1H0Zm0-2.2H20v1.1H0Zm0-2.2H20v1.1H0Zm0-2.2H20V154H0Zm0-2.2H20v1.1H0Zm0-2.2H20v1.1H0Zm0-2.2H20v1.1H0Zm0-2.2H20v1.1H0Zm0-2.2H20V143H0Zm0-2.2H20v1.1H0Zm0-2.2H20v1.1H0Zm0-2.2H20v1.1H0Zm0-2.2H20v1.1H0Zm0-2.2H20V132H0Zm0-2.2H20v1.1H0Zm0-2.2H20v1.1H0Zm0-2.2H20v1.1H0Zm0-2.2H20v1.1H0Zm0-2.2H20V121H0Zm0-2.2H20v1.1H0Zm0-2.2H20v1.1H0Zm0-2.2H20v1.1H0Zm0-2.2H20v1.1H0Zm0-2.2H20V110H0Zm0-2.2H20v1.1H0Zm0-2.2H20v1.1H0Zm0-2.2H20v1.1H0Zm0-2.2H20v1.1H0Zm0-2.2H20V99H0Zm0-2.2H20v1.1H0Zm0-2.2H20v1.1H0Zm0-2.2H20v1.1H0Zm0-2.2H20v1.1H0Zm0-2.2H20V88H0Zm0-2.2H20v1.1H0Zm0-2.2H20v1.1H0Zm0-2.2H20v1.1H0Zm0-2.2H20v1.1H0Zm0-2.2H20V77H0Zm0-2.2H20v1.1H0Zm0-2.2H20v1.1H0Zm0-2.2H20v1.1H0Zm0-2.2H20v1.1H0Zm0-2.2H20V66H0Zm0-2.2H20v1.1H0Zm0-2.2H20v1.1H0Zm0-2.2H20v1.1H0Zm0-2.2H20v1.1H0Zm0-2.2H20V55H0Zm0-2.2H20v1.1H0Zm0-2.2H20v1.1H0Zm0-2.2H20v1.1H0Zm0-2.2H20v1.1H0Zm0-2.2H20V44H0Zm0-2.2H20v1.1H0Zm0-2.2H20v1.1H0Zm0-2.2H20v1.1H0Zm0-2.2H20v1.1H0Zm0-2.2H20V33H0Zm0-2.2H20v1.1H0Zm0-2.2H20v1.1H0Zm0-2.2H20v1.1H0Zm0-2.2H20v1.1H0Zm0-2.2H20V22H0Z" fill="#d63d1f"/>
</svg>
