<svg xmlns="http://www.w3.org/2000/svg" xmlns:xlink="http://www.w3.org/1999/xlink" width="29.044" height="28.042" viewBox="0 0 29.044 28.042"><defs><clipPath id="a"><rect width="24.964" height="24.964" fill="none"/></clipPath></defs><g transform="translate(-155.868 -113.011)"><path d="M0,0H22.889V22.889H0Z" transform="translate(155.868 113.011)" fill="#d63d1f"/><g transform="translate(159.948 116.089)"><g transform="translate(0)" clip-path="url(#a)"><rect width="45.225" height="0.615" transform="translate(7.397 44.092) rotate(-45)" fill="#2d2e2e"/></g></g><path d="M461,409.183h.87l1.733-1.733v-.87Z" transform="translate(-278.694 -268.13)" fill="#fff"/><path d="M412.951,365.295h.87l5.9-5.9v-.87Z" transform="translate(-234.806 -224.242)" fill="#fff"/><path d="M364.9,321.406h.87l10.061-10.061v-.87Z" transform="translate(-190.917 -180.353)" fill="#fff"/><path d="M316.846,277.518h.87l14.225-14.225v-.87Z" transform="translate(-147.029 -136.465)" fill="#fff"/><path d="M268.793,233.628h.87l18.389-18.389v-.87Z" transform="translate(-103.14 -92.575)" fill="#fff"/><path d="M220.741,189.742h.87l22.553-22.553v-.87Z" transform="translate(-59.252 -48.689)" fill="#fff"/><path d="M225.294,148.529,202.953,170.87v.87l23.211-23.211Z" transform="translate(-43.005 -32.44)" fill="#fff"/><path d="M221.13,148.529l-18.177,18.177v.87L222,148.529Z" transform="translate(-43.005 -32.44)" fill="#fff"/><path d="M216.966,148.529l-14.013,14.013v.87l14.883-14.883Z" transform="translate(-43.005 -32.44)" fill="#fff"/><path d="M212.8,148.529l-9.85,9.85v.87l10.719-10.719Z" transform="translate(-43.004 -32.44)" fill="#fff"/><path d="M208.638,148.529l-5.686,5.686v.87l6.555-6.555Z" transform="translate(-43.005 -32.44)" fill="#fff"/><path d="M204.475,148.529l-1.522,1.522v.87l2.391-2.391Z" transform="translate(-43.005 -32.44)" fill="#fff"/></g></svg>