<svg xmlns="http://www.w3.org/2000/svg" xmlns:xlink="http://www.w3.org/1999/xlink" width="1280" height="831" viewBox="0 0 1280 831"><defs><clipPath id="a"><rect width="1280" height="831" fill="none"/></clipPath></defs><g opacity="0.053" clip-path="url(#a)"><g transform="translate(447.491 30.508)"><path d="M583.051,116.949l1.695-1.695L500,30.508l-84.746,84.746,1.695,1.695L500,33.9Z" transform="translate(-415.254 -30.508)" fill="#fff"/><path d="M566.1,133.9,567.8,132.2,500,64.407l-67.8,67.8L433.9,133.9,500,67.8Z" transform="translate(-415.254 -30.508)" fill="#fff"/><path d="M549.153,150.847l1.695-1.695L500,98.305l-50.848,50.847,1.695,1.695L500,101.695Z" transform="translate(-415.254 -30.508)" fill="#fff"/><path d="M532.2,167.8,533.9,166.1,500,132.2l-33.9,33.9L467.8,167.8l32.2-32.2Z" transform="translate(-415.254 -30.508)" fill="#fff"/><path d="M515.254,184.746l1.695-1.695L500,166.1l-16.949,16.949,1.695,1.695L500,169.492Z" transform="translate(-415.254 -30.508)" fill="#fff"/></g><g transform="translate(231.965 30.508)"><path d="M383.051,116.949l1.695-1.695L300,30.508l-84.746,84.746,1.695,1.695L300,33.9Z" transform="translate(-215.254 -30.508)" fill="#fff"/><path d="M366.1,133.9,367.8,132.2,300,64.407l-67.8,67.8L233.9,133.9,300,67.8Z" transform="translate(-215.254 -30.508)" fill="#fff"/><path d="M349.152,150.847l1.695-1.695L300,98.305l-50.848,50.847,1.695,1.695L300,101.695Z" transform="translate(-215.254 -30.508)" fill="#fff"/><path d="M332.2,167.8,333.9,166.1,300,132.2l-33.9,33.9L267.8,167.8l32.2-32.2Z" transform="translate(-215.254 -30.508)" fill="#fff"/><path d="M315.254,184.746l1.695-1.695L300,166.1l-16.949,16.949,1.695,1.695L300,169.492Z" transform="translate(-215.254 -30.508)" fill="#fff"/></g><g transform="translate(15.254 30.508)"><path d="M183.051,116.949l1.695-1.695L100,30.508,15.254,115.254l1.695,1.695L100,33.9Z" transform="translate(-15.254 -30.508)" fill="#fff"/><path d="M166.1,133.9,167.8,132.2,100,64.407,32.2,132.2,33.9,133.9,100,67.8Z" transform="translate(-15.254 -30.508)" fill="#fff"/><path d="M149.152,150.847l1.695-1.695L100,98.305,49.153,149.152l1.695,1.695L100,101.695Z" transform="translate(-15.254 -30.508)" fill="#fff"/><path d="M132.2,167.8,133.9,166.1,100,132.2,66.1,166.1,67.8,167.8l32.2-32.2Z" transform="translate(-15.254 -30.508)" fill="#fff"/><path d="M115.254,184.746l1.695-1.695L100,166.1,83.051,183.051l1.695,1.695L100,169.492Z" transform="translate(-15.254 -30.508)" fill="#fff"/></g><g transform="translate(447.491 241.574)"><path d="M583.051,316.949l1.695-1.695L500,230.508l-84.746,84.746,1.695,1.695L500,233.9Z" transform="translate(-415.254 -230.508)" fill="#fff"/><path d="M566.1,333.9,567.8,332.2l-67.8-67.8-67.8,67.8L433.9,333.9,500,267.8Z" transform="translate(-415.254 -230.508)" fill="#fff"/><path d="M549.153,350.847l1.695-1.695L500,298.305l-50.848,50.847,1.695,1.695L500,301.695Z" transform="translate(-415.254 -230.508)" fill="#fff"/><path d="M532.2,367.8,533.9,366.1,500,332.2l-33.9,33.9L467.8,367.8l32.2-32.2Z" transform="translate(-415.254 -230.508)" fill="#fff"/><path d="M515.254,384.746l1.695-1.695L500,366.1l-16.949,16.949,1.695,1.695L500,369.491Z" transform="translate(-415.254 -230.508)" fill="#fff"/></g><g transform="translate(231.965 241.574)"><path d="M383.051,316.949l1.695-1.695L300,230.508l-84.746,84.746,1.695,1.695L300,233.9Z" transform="translate(-215.254 -230.508)" fill="#fff"/><path d="M366.1,333.9,367.8,332.2l-67.8-67.8-67.8,67.8L233.9,333.9,300,267.8Z" transform="translate(-215.254 -230.508)" fill="#fff"/><path d="M349.152,350.847l1.695-1.695L300,298.305l-50.848,50.847,1.695,1.695L300,301.695Z" transform="translate(-215.254 -230.508)" fill="#fff"/><path d="M332.2,367.8,333.9,366.1,300,332.2l-33.9,33.9L267.8,367.8l32.2-32.2Z" transform="translate(-215.254 -230.508)" fill="#fff"/><path d="M315.254,384.746l1.695-1.695L300,366.1l-16.949,16.949,1.695,1.695L300,369.491Z" transform="translate(-215.254 -230.508)" fill="#fff"/></g><g transform="translate(15.254 241.574)"><path d="M183.051,316.949l1.695-1.695L100,230.508,15.254,315.254l1.695,1.695L100,233.9Z" transform="translate(-15.254 -230.508)" fill="#fff"/><path d="M166.1,333.9,167.8,332.2l-67.8-67.8L32.2,332.2,33.9,333.9,100,267.8Z" transform="translate(-15.254 -230.508)" fill="#fff"/><path d="M149.152,350.847l1.695-1.695L100,298.305,49.153,349.152l1.695,1.695L100,301.695Z" transform="translate(-15.254 -230.508)" fill="#fff"/><path d="M132.2,367.8,133.9,366.1,100,332.2,66.1,366.1,67.8,367.8l32.2-32.2Z" transform="translate(-15.254 -230.508)" fill="#fff"/><path d="M115.254,384.746l1.695-1.695L100,366.1,83.051,383.051l1.695,1.695L100,369.491Z" transform="translate(-15.254 -230.508)" fill="#fff"/></g><g transform="translate(115.254 136.773)"><path d="M283.051,216.949l1.695-1.695L200,130.508l-84.746,84.746,1.695,1.695L200,133.9Z" transform="translate(-115.254 -130.508)" fill="#fff"/><path d="M266.1,233.9,267.8,232.2l-67.8-67.8-67.8,67.8L133.9,233.9,200,167.8Z" transform="translate(-115.254 -130.508)" fill="#fff"/><path d="M249.152,250.847l1.695-1.695L200,198.305l-50.848,50.847,1.695,1.695L200,201.695Z" transform="translate(-115.254 -130.508)" fill="#fff"/><path d="M232.2,267.8,233.9,266.1,200,232.2l-33.9,33.9L167.8,267.8l32.2-32.2Z" transform="translate(-115.254 -130.508)" fill="#fff"/><path d="M215.254,284.746l1.695-1.695L200,266.1l-16.949,16.949,1.695,1.695L200,269.491Z" transform="translate(-115.254 -130.508)" fill="#fff"/></g><g transform="translate(339.728 136.773)"><path d="M483.051,216.949l1.695-1.695L400,130.508l-84.746,84.746,1.695,1.695L400,133.9Z" transform="translate(-315.254 -130.508)" fill="#fff"/><path d="M466.1,233.9,467.8,232.2l-67.8-67.8-67.8,67.8L333.9,233.9,400,167.8Z" transform="translate(-315.254 -130.508)" fill="#fff"/><path d="M449.152,250.847l1.695-1.695L400,198.305l-50.848,50.847,1.695,1.695L400,201.695Z" transform="translate(-315.254 -130.508)" fill="#fff"/><path d="M432.2,267.8,433.9,266.1,400,232.2l-33.9,33.9L367.8,267.8l32.2-32.2Z" transform="translate(-315.254 -130.508)" fill="#fff"/><path d="M415.254,284.746l1.695-1.695L400,266.1l-16.949,16.949,1.695,1.695L400,269.491Z" transform="translate(-315.254 -130.508)" fill="#fff"/></g><g transform="translate(447.491 661.509)"><path d="M583.051,716.949l1.695-1.695L500,630.508l-84.746,84.746,1.695,1.7L500,633.9Z" transform="translate(-415.254 -630.508)" fill="#fff"/><path d="M566.1,733.9,567.8,732.2l-67.8-67.8-67.8,67.8L433.9,733.9,500,667.8Z" transform="translate(-415.254 -630.508)" fill="#fff"/><path d="M549.153,750.847l1.695-1.695L500,698.305l-50.848,50.847,1.695,1.695L500,701.695Z" transform="translate(-415.254 -630.508)" fill="#fff"/><path d="M532.2,767.8,533.9,766.1,500,732.2l-33.9,33.9L467.8,767.8l32.2-32.2Z" transform="translate(-415.254 -630.508)" fill="#fff"/><path d="M515.254,784.746l1.695-1.695L500,766.1l-16.949,16.949,1.695,1.7L500,769.492Z" transform="translate(-415.254 -630.508)" fill="#fff"/></g><g transform="translate(231.965 661.509)"><path d="M383.051,716.949l1.695-1.695L300,630.508l-84.746,84.746,1.695,1.7L300,633.9Z" transform="translate(-215.254 -630.508)" fill="#fff"/><path d="M366.1,733.9,367.8,732.2l-67.8-67.8-67.8,67.8L233.9,733.9,300,667.8Z" transform="translate(-215.254 -630.508)" fill="#fff"/><path d="M349.152,750.847l1.695-1.695L300,698.305l-50.848,50.847,1.695,1.695L300,701.695Z" transform="translate(-215.254 -630.508)" fill="#fff"/><path d="M332.2,767.8,333.9,766.1,300,732.2l-33.9,33.9L267.8,767.8l32.2-32.2Z" transform="translate(-215.254 -630.508)" fill="#fff"/><path d="M315.254,784.746l1.695-1.695L300,766.1l-16.949,16.949,1.695,1.7L300,769.492Z" transform="translate(-215.254 -630.508)" fill="#fff"/></g><g transform="translate(15.254 661.509)"><path d="M183.051,716.949l1.695-1.695L100,630.508,15.254,715.254l1.695,1.7L100,633.9Z" transform="translate(-15.254 -630.508)" fill="#fff"/><path d="M166.1,733.9,167.8,732.2l-67.8-67.8L32.2,732.2,33.9,733.9,100,667.8Z" transform="translate(-15.254 -630.508)" fill="#fff"/><path d="M149.152,750.847l1.695-1.695L100,698.305,49.153,749.153l1.695,1.695L100,701.695Z" transform="translate(-15.254 -630.508)" fill="#fff"/><path d="M132.2,767.8,133.9,766.1,100,732.2,66.1,766.1,67.8,767.8l32.2-32.2Z" transform="translate(-15.254 -630.508)" fill="#fff"/><path d="M115.254,784.746l1.695-1.695L100,766.1,83.051,783.051l1.695,1.7L100,769.492Z" transform="translate(-15.254 -630.508)" fill="#fff"/></g><g transform="translate(115.254 346.375)"><path d="M283.051,416.949l1.695-1.695L200,330.508l-84.746,84.746,1.695,1.695L200,333.9Z" transform="translate(-115.254 -330.508)" fill="#fff"/><path d="M266.1,433.9,267.8,432.2l-67.8-67.8-67.8,67.8L133.9,433.9,200,367.8Z" transform="translate(-115.254 -330.508)" fill="#fff"/><path d="M249.152,450.847l1.695-1.695L200,398.305l-50.848,50.847,1.695,1.695L200,401.695Z" transform="translate(-115.254 -330.508)" fill="#fff"/><path d="M232.2,467.8,233.9,466.1,200,432.2l-33.9,33.9L167.8,467.8l32.2-32.2Z" transform="translate(-115.254 -330.508)" fill="#fff"/><path d="M215.254,484.746l1.695-1.695L200,466.1l-16.949,16.949,1.695,1.695L200,469.491Z" transform="translate(-115.254 -330.508)" fill="#fff"/></g><g transform="translate(339.728 346.375)"><path d="M483.051,416.949l1.695-1.695L400,330.508l-84.746,84.746,1.695,1.695L400,333.9Z" transform="translate(-315.254 -330.508)" fill="#fff"/><path d="M466.1,433.9,467.8,432.2l-67.8-67.8-67.8,67.8L333.9,433.9,400,367.8Z" transform="translate(-315.254 -330.508)" fill="#fff"/><path d="M449.152,450.847l1.695-1.695L400,398.305l-50.848,50.847,1.695,1.695L400,401.695Z" transform="translate(-315.254 -330.508)" fill="#fff"/><path d="M432.2,467.8,433.9,466.1,400,432.2l-33.9,33.9L367.8,467.8l32.2-32.2Z" transform="translate(-315.254 -330.508)" fill="#fff"/><path d="M415.254,484.746l1.695-1.695L400,466.1l-16.949,16.949,1.695,1.695L400,469.491Z" transform="translate(-315.254 -330.508)" fill="#fff"/></g><g transform="translate(130.508 761.509)"><path d="M200,733.9,266.1,800h3.39L200,730.508,130.508,800h3.39Z" transform="translate(-130.508 -730.508)" fill="#fff"/><path d="M164.407,800h3.39L200,767.8,232.2,800h3.39L200,764.407Z" transform="translate(-130.508 -730.508)" fill="#fff"/><path d="M198.305,800h3.39L200,798.305Z" transform="translate(-130.508 -730.508)" fill="#fff"/></g><g transform="translate(355.429 761.509)"><path d="M400,733.9,466.1,800h3.39L400,730.508,330.508,800h3.39Z" transform="translate(-330.508 -730.508)" fill="#fff"/><path d="M364.407,800h3.39L400,767.8,432.2,800h3.39L400,764.407Z" transform="translate(-330.508 -730.508)" fill="#fff"/><path d="M398.305,800h3.39L400,798.305Z" transform="translate(-330.508 -730.508)" fill="#fff"/></g><g transform="translate(115.254)"><path d="M266.1,0l16.949,16.949,1.695-1.695L269.491,0Z" transform="translate(-115.254)" fill="#fff"/><path d="M130.508,0,115.254,15.254l1.695,1.695L133.9,0Z" transform="translate(-115.254)" fill="#fff"/><path d="M164.407,0,132.2,32.2,133.9,33.9,167.8,0Z" transform="translate(-115.254)" fill="#fff"/><path d="M232.2,0l33.9,33.9L267.8,32.2,235.593,0Z" transform="translate(-115.254)" fill="#fff"/><path d="M198.305,0,149.152,49.153l1.695,1.695L200,1.695l49.152,49.153,1.695-1.695L201.695,0Z" transform="translate(-115.254)" fill="#fff"/><path d="M166.1,66.1,167.8,67.8l32.2-32.2,32.2,32.2L233.9,66.1,200,32.2Z" transform="translate(-115.254)" fill="#fff"/><path d="M183.051,83.051l1.695,1.695L200,69.492l15.254,15.254,1.695-1.695L200,66.1Z" transform="translate(-115.254)" fill="#fff"/></g><g transform="translate(339.728)"><path d="M466.1,0l16.949,16.949,1.695-1.695L469.491,0Z" transform="translate(-315.254)" fill="#fff"/><path d="M330.508,0,315.254,15.254l1.695,1.695L333.9,0Z" transform="translate(-315.254)" fill="#fff"/><path d="M364.407,0,332.2,32.2,333.9,33.9,367.8,0Z" transform="translate(-315.254)" fill="#fff"/><path d="M432.2,0l33.9,33.9L467.8,32.2,435.593,0Z" transform="translate(-315.254)" fill="#fff"/><path d="M398.305,0,349.152,49.153l1.695,1.695L400,1.695l49.152,49.153,1.695-1.695L401.695,0Z" transform="translate(-315.254)" fill="#fff"/><path d="M366.1,66.1,367.8,67.8l32.2-32.2,32.2,32.2L433.9,66.1,400,32.2Z" transform="translate(-315.254)" fill="#fff"/><path d="M383.051,83.051l1.695,1.695L400,69.492l15.254,15.254,1.695-1.695L400,66.1Z" transform="translate(-315.254)" fill="#fff"/></g><g transform="translate(555.254 136.773)"><path d="M683.051,216.949l1.695-1.695L600,130.508l-84.746,84.746,1.695,1.695L600,133.9Z" transform="translate(-515.254 -130.508)" fill="#fff"/><path d="M666.1,233.9,667.8,232.2l-67.8-67.8-67.8,67.8L533.9,233.9,600,167.8Z" transform="translate(-515.254 -130.508)" fill="#fff"/><path d="M649.152,250.847l1.695-1.695L600,198.305l-50.847,50.847,1.695,1.695L600,201.695Z" transform="translate(-515.254 -130.508)" fill="#fff"/><path d="M632.2,267.8,633.9,266.1,600,232.2l-33.9,33.9L567.8,267.8l32.2-32.2Z" transform="translate(-515.254 -130.508)" fill="#fff"/><path d="M615.254,284.746l1.695-1.695L600,266.1l-16.949,16.949,1.695,1.695L600,269.491Z" transform="translate(-515.254 -130.508)" fill="#fff"/></g><g transform="translate(555.254 346.375)"><path d="M683.051,416.949l1.695-1.695L600,330.508l-84.746,84.746,1.695,1.695L600,333.9Z" transform="translate(-515.254 -330.508)" fill="#fff"/><path d="M666.1,433.9,667.8,432.2l-67.8-67.8-67.8,67.8L533.9,433.9,600,367.8Z" transform="translate(-515.254 -330.508)" fill="#fff"/><path d="M649.152,450.847l1.695-1.695L600,398.305l-50.847,50.847,1.695,1.695L600,401.695Z" transform="translate(-515.254 -330.508)" fill="#fff"/><path d="M632.2,467.8,633.9,466.1,600,432.2l-33.9,33.9L567.8,467.8l32.2-32.2Z" transform="translate(-515.254 -330.508)" fill="#fff"/><path d="M615.254,484.746l1.695-1.695L600,466.1l-16.949,16.949,1.695,1.695L600,469.491Z" transform="translate(-515.254 -330.508)" fill="#fff"/></g><g transform="translate(570.508 761.509)"><path d="M600,733.9,666.1,800h3.39L600,730.508,530.508,800h3.39Z" transform="translate(-530.508 -730.508)" fill="#fff"/><path d="M564.407,800h3.39L600,767.8,632.2,800h3.39L600,764.407Z" transform="translate(-530.508 -730.508)" fill="#fff"/><path d="M598.305,800h3.39L600,798.305Z" transform="translate(-530.508 -730.508)" fill="#fff"/></g><g transform="translate(555.254)"><path d="M666.1,0l16.949,16.949,1.695-1.695L669.491,0Z" transform="translate(-515.254)" fill="#fff"/><path d="M530.508,0,515.254,15.254l1.695,1.695L533.9,0Z" transform="translate(-515.254)" fill="#fff"/><path d="M564.407,0,532.2,32.2,533.9,33.9,567.8,0Z" transform="translate(-515.254)" fill="#fff"/><path d="M632.2,0l33.9,33.9L667.8,32.2,635.593,0Z" transform="translate(-515.254)" fill="#fff"/><path d="M598.305,0,549.153,49.153l1.695,1.695L600,1.695l49.152,49.153,1.695-1.695L601.695,0Z" transform="translate(-515.254)" fill="#fff"/><path d="M566.1,66.1,567.8,67.8l32.2-32.2,32.2,32.2L633.9,66.1,600,32.2Z" transform="translate(-515.254)" fill="#fff"/><path d="M583.051,83.051l1.695,1.695L600,69.492l15.254,15.254,1.695-1.695L600,66.1Z" transform="translate(-515.254)" fill="#fff"/></g><g transform="translate(0 136.773)"><path d="M0,133.9l83.051,83.051,1.695-1.695L0,130.508Z" transform="translate(0 -130.508)" fill="#fff"/><path d="M0,167.8l66.1,66.1L67.8,232.2,0,164.407Z" transform="translate(0 -130.508)" fill="#fff"/><path d="M0,201.695l49.153,49.152,1.695-1.695L0,198.305Z" transform="translate(0 -130.508)" fill="#fff"/><path d="M0,235.593l32.2,32.2L33.9,266.1,0,232.2Z" transform="translate(0 -130.508)" fill="#fff"/><path d="M0,269.491l15.254,15.254,1.695-1.695L0,266.1Z" transform="translate(0 -130.508)" fill="#fff"/></g><g transform="translate(0 346.375)"><path d="M0,333.9l83.051,83.051,1.695-1.695L0,330.508Z" transform="translate(0 -330.508)" fill="#fff"/><path d="M0,367.8l66.1,66.1L67.8,432.2,0,364.407Z" transform="translate(0 -330.508)" fill="#fff"/><path d="M0,401.695l49.153,49.153,1.695-1.695L0,398.305Z" transform="translate(0 -330.508)" fill="#fff"/><path d="M0,435.593l32.2,32.2L33.9,466.1,0,432.2Z" transform="translate(0 -330.508)" fill="#fff"/><path d="M0,469.491l15.254,15.254,1.695-1.695L0,466.1Z" transform="translate(0 -330.508)" fill="#fff"/></g><g transform="translate(0 761.508)"><path d="M0,733.9,66.1,800h3.39L0,730.508Z" transform="translate(0 -730.508)" fill="#fff"/><path d="M0,767.8,32.2,800h3.39L0,764.407Z" transform="translate(0 -730.508)" fill="#fff"/><path d="M0,800H1.695L0,798.305Z" transform="translate(0 -730.508)" fill="#fff"/></g><path d="M84.746,15.254,69.492,0H66.1L83.051,16.949Z" fill="#fff"/><path d="M67.8,32.2,35.593,0H32.2L66.1,33.9Z" fill="#fff"/><path d="M49.153,50.847l1.695-1.695L1.695,0H0V1.695Z" fill="#fff"/><path d="M0,35.593,32.2,67.8,33.9,66.1,0,32.2Z" fill="#fff"/><path d="M0,69.492,15.254,84.746l1.695-1.695L0,66.1Z" fill="#fff"/><g transform="translate(1095.254 30.508)"><path d="M1183.051,116.949l1.695-1.695L1100,30.508l-84.746,84.746,1.695,1.695L1100,33.9Z" transform="translate(-1015.254 -30.508)" fill="#fff"/><path d="M1166.1,133.9l1.695-1.695-67.8-67.8-67.8,67.8,1.695,1.695L1100,67.8Z" transform="translate(-1015.254 -30.508)" fill="#fff"/><path d="M1149.153,150.847l1.695-1.695L1100,98.305l-50.848,50.847,1.695,1.695L1100,101.695Z" transform="translate(-1015.254 -30.508)" fill="#fff"/><path d="M1132.2,167.8l1.695-1.695L1100,132.2l-33.9,33.9,1.695,1.695,32.2-32.2Z" transform="translate(-1015.254 -30.508)" fill="#fff"/><path d="M1115.254,184.746l1.695-1.695L1100,166.1l-16.949,16.949,1.695,1.695L1100,169.492Z" transform="translate(-1015.254 -30.508)" fill="#fff"/></g><g transform="translate(878.544 30.508)"><path d="M983.051,116.949l1.695-1.695L900,30.508l-84.746,84.746,1.695,1.695L900,33.9Z" transform="translate(-815.254 -30.508)" fill="#fff"/><path d="M966.1,133.9,967.8,132.2,900,64.407l-67.8,67.8L833.9,133.9,900,67.8Z" transform="translate(-815.254 -30.508)" fill="#fff"/><path d="M949.152,150.847l1.695-1.695L900,98.305l-50.848,50.847,1.695,1.695L900,101.695Z" transform="translate(-815.254 -30.508)" fill="#fff"/><path d="M932.2,167.8,933.9,166.1,900,132.2l-33.9,33.9L867.8,167.8l32.2-32.2Z" transform="translate(-815.254 -30.508)" fill="#fff"/><path d="M915.254,184.746l1.695-1.695L900,166.1l-16.949,16.949,1.695,1.695L900,169.492Z" transform="translate(-815.254 -30.508)" fill="#fff"/></g><g transform="translate(663.017 30.508)"><path d="M783.051,116.949l1.695-1.695L700,30.508l-84.746,84.746,1.695,1.695L700,33.9Z" transform="translate(-615.254 -30.508)" fill="#fff"/><path d="M766.1,133.9,767.8,132.2,700,64.407l-67.8,67.8L633.9,133.9,700,67.8Z" transform="translate(-615.254 -30.508)" fill="#fff"/><path d="M749.152,150.847l1.695-1.695L700,98.305l-50.847,50.847,1.695,1.695L700,101.695Z" transform="translate(-615.254 -30.508)" fill="#fff"/><path d="M732.2,167.8,733.9,166.1,700,132.2l-33.9,33.9L667.8,167.8l32.2-32.2Z" transform="translate(-615.254 -30.508)" fill="#fff"/><path d="M715.254,184.746l1.695-1.695L700,166.1l-16.949,16.949,1.695,1.695L700,169.492Z" transform="translate(-615.254 -30.508)" fill="#fff"/></g><g transform="translate(1095.254 241.574)"><path d="M1183.051,316.949l1.695-1.695L1100,230.508l-84.746,84.746,1.695,1.695L1100,233.9Z" transform="translate(-1015.254 -230.508)" fill="#fff"/><path d="M1166.1,333.9l1.695-1.695-67.8-67.8-67.8,67.8,1.695,1.695,66.1-66.1Z" transform="translate(-1015.254 -230.508)" fill="#fff"/><path d="M1149.153,350.847l1.695-1.695L1100,298.305l-50.848,50.847,1.695,1.695L1100,301.695Z" transform="translate(-1015.254 -230.508)" fill="#fff"/><path d="M1132.2,367.8l1.695-1.695L1100,332.2l-33.9,33.9,1.695,1.695,32.2-32.2Z" transform="translate(-1015.254 -230.508)" fill="#fff"/><path d="M1115.254,384.746l1.695-1.695L1100,366.1l-16.949,16.949,1.695,1.695L1100,369.491Z" transform="translate(-1015.254 -230.508)" fill="#fff"/></g><g transform="translate(878.544 241.574)"><path d="M983.051,316.949l1.695-1.695L900,230.508l-84.746,84.746,1.695,1.695L900,233.9Z" transform="translate(-815.254 -230.508)" fill="#fff"/><path d="M966.1,333.9,967.8,332.2l-67.8-67.8-67.8,67.8L833.9,333.9,900,267.8Z" transform="translate(-815.254 -230.508)" fill="#fff"/><path d="M949.152,350.847l1.695-1.695L900,298.305l-50.848,50.847,1.695,1.695L900,301.695Z" transform="translate(-815.254 -230.508)" fill="#fff"/><path d="M932.2,367.8,933.9,366.1,900,332.2l-33.9,33.9L867.8,367.8l32.2-32.2Z" transform="translate(-815.254 -230.508)" fill="#fff"/><path d="M915.254,384.746l1.695-1.695L900,366.1l-16.949,16.949,1.695,1.695L900,369.491Z" transform="translate(-815.254 -230.508)" fill="#fff"/></g><g transform="translate(663.017 241.574)"><path d="M783.051,316.949l1.695-1.695L700,230.508l-84.746,84.746,1.695,1.695L700,233.9Z" transform="translate(-615.254 -230.508)" fill="#fff"/><path d="M766.1,333.9,767.8,332.2l-67.8-67.8-67.8,67.8L633.9,333.9,700,267.8Z" transform="translate(-615.254 -230.508)" fill="#fff"/><path d="M749.152,350.847l1.695-1.695L700,298.305l-50.847,50.847,1.695,1.695L700,301.695Z" transform="translate(-615.254 -230.508)" fill="#fff"/><path d="M732.2,367.8,733.9,366.1,700,332.2l-33.9,33.9L667.8,367.8l32.2-32.2Z" transform="translate(-615.254 -230.508)" fill="#fff"/><path d="M715.254,384.746l1.695-1.695L700,366.1l-16.949,16.949,1.695,1.695L700,369.491Z" transform="translate(-615.254 -230.508)" fill="#fff"/></g><g transform="translate(770.781 136.773)"><path d="M883.051,216.949l1.695-1.695L800,130.508l-84.746,84.746,1.695,1.695L800,133.9Z" transform="translate(-715.254 -130.508)" fill="#fff"/><path d="M866.1,233.9,867.8,232.2l-67.8-67.8-67.8,67.8L733.9,233.9,800,167.8Z" transform="translate(-715.254 -130.508)" fill="#fff"/><path d="M849.152,250.847l1.695-1.695L800,198.305l-50.848,50.847,1.695,1.695L800,201.695Z" transform="translate(-715.254 -130.508)" fill="#fff"/><path d="M832.2,267.8,833.9,266.1,800,232.2l-33.9,33.9L767.8,267.8l32.2-32.2Z" transform="translate(-715.254 -130.508)" fill="#fff"/><path d="M815.254,284.746l1.695-1.695L800,266.1l-16.949,16.949,1.695,1.695L800,269.491Z" transform="translate(-715.254 -130.508)" fill="#fff"/></g><g transform="translate(995.254 136.773)"><path d="M1083.051,216.949l1.695-1.695L1000,130.508l-84.746,84.746,1.695,1.695L1000,133.9Z" transform="translate(-915.254 -130.508)" fill="#fff"/><path d="M1066.1,233.9l1.695-1.695-67.8-67.8-67.8,67.8L933.9,233.9l66.1-66.1Z" transform="translate(-915.254 -130.508)" fill="#fff"/><path d="M1049.152,250.847l1.695-1.695L1000,198.305l-50.848,50.847,1.695,1.695L1000,201.695Z" transform="translate(-915.254 -130.508)" fill="#fff"/><path d="M1032.2,267.8l1.695-1.695L1000,232.2l-33.9,33.9L967.8,267.8l32.2-32.2Z" transform="translate(-915.254 -130.508)" fill="#fff"/><path d="M1015.254,284.746l1.695-1.695L1000,266.1l-16.949,16.949,1.695,1.695L1000,269.491Z" transform="translate(-915.254 -130.508)" fill="#fff"/></g><g transform="translate(1095.254 661.509)"><path d="M1183.051,716.949l1.695-1.695L1100,630.508l-84.746,84.746,1.695,1.7L1100,633.9Z" transform="translate(-1015.254 -630.508)" fill="#fff"/><path d="M1166.1,733.9l1.695-1.695-67.8-67.8-67.8,67.8,1.695,1.695,66.1-66.1Z" transform="translate(-1015.254 -630.508)" fill="#fff"/><path d="M1149.153,750.847l1.695-1.695L1100,698.305l-50.848,50.847,1.695,1.695L1100,701.695Z" transform="translate(-1015.254 -630.508)" fill="#fff"/><path d="M1132.2,767.8l1.695-1.695L1100,732.2l-33.9,33.9,1.695,1.695,32.2-32.2Z" transform="translate(-1015.254 -630.508)" fill="#fff"/><path d="M1115.254,784.746l1.695-1.695L1100,766.1l-16.949,16.949,1.695,1.7L1100,769.492Z" transform="translate(-1015.254 -630.508)" fill="#fff"/></g><g transform="translate(878.544 661.509)"><path d="M983.051,716.949l1.695-1.695L900,630.508l-84.746,84.746,1.695,1.7L900,633.9Z" transform="translate(-815.254 -630.508)" fill="#fff"/><path d="M966.1,733.9,967.8,732.2l-67.8-67.8-67.8,67.8L833.9,733.9,900,667.8Z" transform="translate(-815.254 -630.508)" fill="#fff"/><path d="M949.152,750.847l1.695-1.695L900,698.305l-50.848,50.847,1.695,1.695L900,701.695Z" transform="translate(-815.254 -630.508)" fill="#fff"/><path d="M932.2,767.8,933.9,766.1,900,732.2l-33.9,33.9L867.8,767.8l32.2-32.2Z" transform="translate(-815.254 -630.508)" fill="#fff"/><path d="M915.254,784.746l1.695-1.695L900,766.1l-16.949,16.949,1.695,1.7L900,769.492Z" transform="translate(-815.254 -630.508)" fill="#fff"/></g><g transform="translate(663.017 661.509)"><path d="M783.051,716.949l1.695-1.695L700,630.508l-84.746,84.746,1.695,1.7L700,633.9Z" transform="translate(-615.254 -630.508)" fill="#fff"/><path d="M766.1,733.9,767.8,732.2l-67.8-67.8-67.8,67.8L633.9,733.9,700,667.8Z" transform="translate(-615.254 -630.508)" fill="#fff"/><path d="M749.152,750.847l1.695-1.695L700,698.305l-50.847,50.847,1.695,1.695L700,701.695Z" transform="translate(-615.254 -630.508)" fill="#fff"/><path d="M732.2,767.8,733.9,766.1,700,732.2l-33.9,33.9L667.8,767.8l32.2-32.2Z" transform="translate(-615.254 -630.508)" fill="#fff"/><path d="M715.254,784.746l1.695-1.695L700,766.1l-16.949,16.949,1.695,1.7L700,769.492Z" transform="translate(-615.254 -630.508)" fill="#fff"/></g><g transform="translate(770.781 346.375)"><path d="M883.051,416.949l1.695-1.695L800,330.508l-84.746,84.746,1.695,1.695L800,333.9Z" transform="translate(-715.254 -330.508)" fill="#fff"/><path d="M866.1,433.9,867.8,432.2l-67.8-67.8-67.8,67.8L733.9,433.9,800,367.8Z" transform="translate(-715.254 -330.508)" fill="#fff"/><path d="M849.152,450.847l1.695-1.695L800,398.305l-50.848,50.847,1.695,1.695L800,401.695Z" transform="translate(-715.254 -330.508)" fill="#fff"/><path d="M832.2,467.8,833.9,466.1,800,432.2l-33.9,33.9L767.8,467.8l32.2-32.2Z" transform="translate(-715.254 -330.508)" fill="#fff"/><path d="M815.254,484.746l1.695-1.695L800,466.1l-16.949,16.949,1.695,1.695L800,469.491Z" transform="translate(-715.254 -330.508)" fill="#fff"/></g><g transform="translate(995.254 346.375)"><path d="M1083.051,416.949l1.695-1.695L1000,330.508l-84.746,84.746,1.695,1.695L1000,333.9Z" transform="translate(-915.254 -330.508)" fill="#fff"/><path d="M1066.1,433.9l1.695-1.695-67.8-67.8-67.8,67.8L933.9,433.9l66.1-66.1Z" transform="translate(-915.254 -330.508)" fill="#fff"/><path d="M1049.152,450.847l1.695-1.695L1000,398.305l-50.848,50.847,1.695,1.695L1000,401.695Z" transform="translate(-915.254 -330.508)" fill="#fff"/><path d="M1032.2,467.8l1.695-1.695L1000,432.2l-33.9,33.9L967.8,467.8l32.2-32.2Z" transform="translate(-915.254 -330.508)" fill="#fff"/><path d="M1015.254,484.746l1.695-1.695L1000,466.1l-16.949,16.949,1.695,1.695L1000,469.491Z" transform="translate(-915.254 -330.508)" fill="#fff"/></g><g transform="translate(785.588 761.509)"><path d="M800,733.9,866.1,800h3.39L800,730.508,730.508,800h3.39Z" transform="translate(-730.508 -730.508)" fill="#fff"/><path d="M764.407,800h3.39L800,767.8,832.2,800h3.39L800,764.407Z" transform="translate(-730.508 -730.508)" fill="#fff"/><path d="M798.305,800h3.39L800,798.305Z" transform="translate(-730.508 -730.508)" fill="#fff"/></g><g transform="translate(1010.508 761.509)"><path d="M1000,733.9l66.1,66.1h3.39L1000,730.508,930.508,800h3.39Z" transform="translate(-930.508 -730.508)" fill="#fff"/><path d="M964.407,800h3.39l32.2-32.2,32.2,32.2h3.39L1000,764.407Z" transform="translate(-930.508 -730.508)" fill="#fff"/><path d="M998.305,800h3.39L1000,798.305Z" transform="translate(-930.508 -730.508)" fill="#fff"/></g><g transform="translate(770.781)"><path d="M866.1,0l16.949,16.949,1.695-1.695L869.491,0Z" transform="translate(-715.254)" fill="#fff"/><path d="M730.508,0,715.254,15.254l1.695,1.695L733.9,0Z" transform="translate(-715.254)" fill="#fff"/><path d="M764.407,0,732.2,32.2,733.9,33.9,767.8,0Z" transform="translate(-715.254)" fill="#fff"/><path d="M832.2,0l33.9,33.9L867.8,32.2,835.593,0Z" transform="translate(-715.254)" fill="#fff"/><path d="M798.305,0,749.152,49.153l1.695,1.695L800,1.695l49.152,49.153,1.695-1.695L801.695,0Z" transform="translate(-715.254)" fill="#fff"/><path d="M766.1,66.1,767.8,67.8l32.2-32.2,32.2,32.2L833.9,66.1,800,32.2Z" transform="translate(-715.254)" fill="#fff"/><path d="M783.051,83.051l1.695,1.695L800,69.492l15.254,15.254,1.695-1.695L800,66.1Z" transform="translate(-715.254)" fill="#fff"/></g><g transform="translate(995.254)"><path d="M1066.1,0l16.949,16.949,1.695-1.695L1069.491,0Z" transform="translate(-915.254)" fill="#fff"/><path d="M930.508,0,915.254,15.254l1.695,1.695L933.9,0Z" transform="translate(-915.254)" fill="#fff"/><path d="M964.407,0,932.2,32.2,933.9,33.9,967.8,0Z" transform="translate(-915.254)" fill="#fff"/><path d="M1032.2,0l33.9,33.9L1067.8,32.2,1035.593,0Z" transform="translate(-915.254)" fill="#fff"/><path d="M998.305,0,949.152,49.153l1.695,1.695L1000,1.695l49.152,49.153,1.695-1.695L1001.695,0Z" transform="translate(-915.254)" fill="#fff"/><path d="M966.1,66.1,967.8,67.8l32.2-32.2,32.2,32.2L1033.9,66.1,1000,32.2Z" transform="translate(-915.254)" fill="#fff"/><path d="M983.051,83.051l1.695,1.695L1000,69.492l15.254,15.254,1.695-1.695L1000,66.1Z" transform="translate(-915.254)" fill="#fff"/></g><g transform="translate(1195.254 136.773)"><path d="M1200,133.9v-3.39l-84.746,84.746,1.695,1.695L1200,133.9Z" transform="translate(-1115.254 -130.508)" fill="#fff"/><path d="M1200,164.407l-67.8,67.8,1.695,1.695,66.1-66.1Z" transform="translate(-1115.254 -130.508)" fill="#fff"/><path d="M1200,198.305l-50.847,50.847,1.695,1.695L1200,201.695Z" transform="translate(-1115.254 -130.508)" fill="#fff"/><path d="M1200,232.2l-33.9,33.9,1.695,1.695,32.2-32.2Z" transform="translate(-1115.254 -130.508)" fill="#fff"/><path d="M1200,269.491V266.1l-16.949,16.949,1.695,1.695L1200,269.491Z" transform="translate(-1115.254 -130.508)" fill="#fff"/></g><g transform="translate(1195.254 346.375)"><path d="M1200,333.9v-3.39l-84.746,84.746,1.695,1.695L1200,333.9Z" transform="translate(-1115.254 -330.508)" fill="#fff"/><path d="M1200,364.407l-67.8,67.8,1.695,1.695,66.1-66.1Z" transform="translate(-1115.254 -330.508)" fill="#fff"/><path d="M1200,398.305l-50.847,50.847,1.695,1.695L1200,401.695Z" transform="translate(-1115.254 -330.508)" fill="#fff"/><path d="M1200,432.2l-33.9,33.9,1.695,1.695,32.2-32.2Z" transform="translate(-1115.254 -330.508)" fill="#fff"/><path d="M1200,469.491V466.1l-16.949,16.949,1.695,1.695L1200,469.491Z" transform="translate(-1115.254 -330.508)" fill="#fff"/></g><g transform="translate(447.491 451.175)"><path d="M583.051,516.949l1.695-1.695L500,430.508l-84.746,84.746,1.695,1.695L500,433.9Z" transform="translate(-415.254 -430.508)" fill="#fff"/><path d="M566.1,533.9,567.8,532.2l-67.8-67.8-67.8,67.8L433.9,533.9,500,467.8Z" transform="translate(-415.254 -430.508)" fill="#fff"/><path d="M549.153,550.847l1.695-1.695L500,498.305l-50.848,50.847,1.695,1.695L500,501.695Z" transform="translate(-415.254 -430.508)" fill="#fff"/><path d="M532.2,567.8,533.9,566.1,500,532.2l-33.9,33.9L467.8,567.8l32.2-32.2Z" transform="translate(-415.254 -430.508)" fill="#fff"/><path d="M515.254,584.746l1.695-1.695L500,566.1l-16.949,16.949,1.695,1.695L500,569.492Z" transform="translate(-415.254 -430.508)" fill="#fff"/></g><g transform="translate(231.965 451.175)"><path d="M383.051,516.949l1.695-1.695L300,430.508l-84.746,84.746,1.695,1.695L300,433.9Z" transform="translate(-215.254 -430.508)" fill="#fff"/><path d="M366.1,533.9,367.8,532.2l-67.8-67.8-67.8,67.8L233.9,533.9,300,467.8Z" transform="translate(-215.254 -430.508)" fill="#fff"/><path d="M349.152,550.847l1.695-1.695L300,498.305l-50.848,50.847,1.695,1.695L300,501.695Z" transform="translate(-215.254 -430.508)" fill="#fff"/><path d="M332.2,567.8,333.9,566.1,300,532.2l-33.9,33.9L267.8,567.8l32.2-32.2Z" transform="translate(-215.254 -430.508)" fill="#fff"/><path d="M315.254,584.746l1.695-1.695L300,566.1l-16.949,16.949,1.695,1.695L300,569.492Z" transform="translate(-215.254 -430.508)" fill="#fff"/></g><g transform="translate(15.254 451.175)"><path d="M183.051,516.949l1.695-1.695L100,430.508,15.254,515.254l1.695,1.695L100,433.9Z" transform="translate(-15.254 -430.508)" fill="#fff"/><path d="M166.1,533.9,167.8,532.2l-67.8-67.8L32.2,532.2,33.9,533.9,100,467.8Z" transform="translate(-15.254 -430.508)" fill="#fff"/><path d="M149.152,550.847l1.695-1.695L100,498.305,49.153,549.153l1.695,1.695L100,501.695Z" transform="translate(-15.254 -430.508)" fill="#fff"/><path d="M132.2,567.8,133.9,566.1,100,532.2,66.1,566.1,67.8,567.8l32.2-32.2Z" transform="translate(-15.254 -430.508)" fill="#fff"/><path d="M115.254,584.746l1.695-1.695L100,566.1,83.051,583.051l1.695,1.695L100,569.492Z" transform="translate(-15.254 -430.508)" fill="#fff"/></g><g transform="translate(115.254 561.508)"><path d="M283.051,616.949l1.695-1.695L200,530.508l-84.746,84.746,1.695,1.695L200,533.9Z" transform="translate(-115.254 -530.508)" fill="#fff"/><path d="M266.1,633.9,267.8,632.2l-67.8-67.8-67.8,67.8L133.9,633.9,200,567.8Z" transform="translate(-115.254 -530.508)" fill="#fff"/><path d="M249.152,650.847l1.695-1.695L200,598.305l-50.848,50.847,1.695,1.695L200,601.695Z" transform="translate(-115.254 -530.508)" fill="#fff"/><path d="M232.2,667.8,233.9,666.1,200,632.2l-33.9,33.9L167.8,667.8l32.2-32.2Z" transform="translate(-115.254 -530.508)" fill="#fff"/><path d="M215.254,684.746l1.695-1.695L200,666.1l-16.949,16.949,1.695,1.695L200,669.492Z" transform="translate(-115.254 -530.508)" fill="#fff"/></g><g transform="translate(339.728 561.508)"><path d="M483.051,616.949l1.695-1.695L400,530.508l-84.746,84.746,1.695,1.695L400,533.9Z" transform="translate(-315.254 -530.508)" fill="#fff"/><path d="M466.1,633.9,467.8,632.2l-67.8-67.8-67.8,67.8L333.9,633.9,400,567.8Z" transform="translate(-315.254 -530.508)" fill="#fff"/><path d="M449.152,650.847l1.695-1.695L400,598.305l-50.848,50.847,1.695,1.695L400,601.695Z" transform="translate(-315.254 -530.508)" fill="#fff"/><path d="M432.2,667.8,433.9,666.1,400,632.2l-33.9,33.9L367.8,667.8l32.2-32.2Z" transform="translate(-315.254 -530.508)" fill="#fff"/><path d="M415.254,684.746l1.695-1.695L400,666.1l-16.949,16.949,1.695,1.695L400,669.492Z" transform="translate(-315.254 -530.508)" fill="#fff"/></g><g transform="translate(555.254 561.508)"><path d="M683.051,616.949l1.695-1.695L600,530.508l-84.746,84.746,1.695,1.695L600,533.9Z" transform="translate(-515.254 -530.508)" fill="#fff"/><path d="M666.1,633.9,667.8,632.2l-67.8-67.8-67.8,67.8L533.9,633.9,600,567.8Z" transform="translate(-515.254 -530.508)" fill="#fff"/><path d="M649.152,650.847l1.695-1.695L600,598.305l-50.847,50.847,1.695,1.695L600,601.695Z" transform="translate(-515.254 -530.508)" fill="#fff"/><path d="M632.2,667.8,633.9,666.1,600,632.2l-33.9,33.9L567.8,667.8l32.2-32.2Z" transform="translate(-515.254 -530.508)" fill="#fff"/><path d="M615.254,684.746l1.695-1.695L600,666.1l-16.949,16.949,1.695,1.695L600,669.492Z" transform="translate(-515.254 -530.508)" fill="#fff"/></g><g transform="translate(0 561.508)"><path d="M0,533.9l83.051,83.051,1.695-1.695L0,530.508Z" transform="translate(0 -530.508)" fill="#fff"/><path d="M0,567.8l66.1,66.1L67.8,632.2,0,564.407Z" transform="translate(0 -530.508)" fill="#fff"/><path d="M0,601.695l49.153,49.153,1.695-1.695L0,598.305Z" transform="translate(0 -530.508)" fill="#fff"/><path d="M0,635.593l32.2,32.2L33.9,666.1,0,632.2Z" transform="translate(0 -530.508)" fill="#fff"/><path d="M0,669.492l15.254,15.254,1.695-1.695L0,666.1Z" transform="translate(0 -530.508)" fill="#fff"/></g><g transform="translate(1095.254 451.175)"><path d="M1183.051,516.949l1.695-1.695L1100,430.508l-84.746,84.746,1.695,1.695L1100,433.9Z" transform="translate(-1015.254 -430.508)" fill="#fff"/><path d="M1166.1,533.9l1.695-1.695-67.8-67.8-67.8,67.8,1.695,1.695,66.1-66.1Z" transform="translate(-1015.254 -430.508)" fill="#fff"/><path d="M1149.153,550.847l1.695-1.695L1100,498.305l-50.848,50.847,1.695,1.695L1100,501.695Z" transform="translate(-1015.254 -430.508)" fill="#fff"/><path d="M1132.2,567.8l1.695-1.695L1100,532.2l-33.9,33.9,1.695,1.695,32.2-32.2Z" transform="translate(-1015.254 -430.508)" fill="#fff"/><path d="M1115.254,584.746l1.695-1.695L1100,566.1l-16.949,16.949,1.695,1.695L1100,569.492Z" transform="translate(-1015.254 -430.508)" fill="#fff"/></g><g transform="translate(878.544 451.175)"><path d="M983.051,516.949l1.695-1.695L900,430.508l-84.746,84.746,1.695,1.695L900,433.9Z" transform="translate(-815.254 -430.508)" fill="#fff"/><path d="M966.1,533.9,967.8,532.2l-67.8-67.8-67.8,67.8L833.9,533.9,900,467.8Z" transform="translate(-815.254 -430.508)" fill="#fff"/><path d="M949.152,550.847l1.695-1.695L900,498.305l-50.848,50.847,1.695,1.695L900,501.695Z" transform="translate(-815.254 -430.508)" fill="#fff"/><path d="M932.2,567.8,933.9,566.1,900,532.2l-33.9,33.9L867.8,567.8l32.2-32.2Z" transform="translate(-815.254 -430.508)" fill="#fff"/><path d="M915.254,584.746l1.695-1.695L900,566.1l-16.949,16.949,1.695,1.695L900,569.492Z" transform="translate(-815.254 -430.508)" fill="#fff"/></g><g transform="translate(663.017 451.175)"><path d="M783.051,516.949l1.695-1.695L700,430.508l-84.746,84.746,1.695,1.695L700,433.9Z" transform="translate(-615.254 -430.508)" fill="#fff"/><path d="M766.1,533.9,767.8,532.2l-67.8-67.8-67.8,67.8L633.9,533.9,700,467.8Z" transform="translate(-615.254 -430.508)" fill="#fff"/><path d="M749.152,550.847l1.695-1.695L700,498.305l-50.847,50.847,1.695,1.695L700,501.695Z" transform="translate(-615.254 -430.508)" fill="#fff"/><path d="M732.2,567.8,733.9,566.1,700,532.2l-33.9,33.9L667.8,567.8l32.2-32.2Z" transform="translate(-615.254 -430.508)" fill="#fff"/><path d="M715.254,584.746l1.695-1.695L700,566.1l-16.949,16.949,1.695,1.695L700,569.492Z" transform="translate(-615.254 -430.508)" fill="#fff"/></g><g transform="translate(770.781 561.508)"><path d="M883.051,616.949l1.695-1.695L800,530.508l-84.746,84.746,1.695,1.695L800,533.9Z" transform="translate(-715.254 -530.508)" fill="#fff"/><path d="M866.1,633.9,867.8,632.2l-67.8-67.8-67.8,67.8L733.9,633.9,800,567.8Z" transform="translate(-715.254 -530.508)" fill="#fff"/><path d="M849.152,650.847l1.695-1.695L800,598.305l-50.848,50.847,1.695,1.695L800,601.695Z" transform="translate(-715.254 -530.508)" fill="#fff"/><path d="M832.2,667.8,833.9,666.1,800,632.2l-33.9,33.9L767.8,667.8l32.2-32.2Z" transform="translate(-715.254 -530.508)" fill="#fff"/><path d="M815.254,684.746l1.695-1.695L800,666.1l-16.949,16.949,1.695,1.695L800,669.492Z" transform="translate(-715.254 -530.508)" fill="#fff"/></g><g transform="translate(995.254 561.508)"><path d="M1083.051,616.949l1.695-1.695L1000,530.508l-84.746,84.746,1.695,1.695L1000,533.9Z" transform="translate(-915.254 -530.508)" fill="#fff"/><path d="M1066.1,633.9l1.695-1.695-67.8-67.8-67.8,67.8L933.9,633.9l66.1-66.1Z" transform="translate(-915.254 -530.508)" fill="#fff"/><path d="M1049.152,650.847l1.695-1.695L1000,598.305l-50.848,50.847,1.695,1.695L1000,601.695Z" transform="translate(-915.254 -530.508)" fill="#fff"/><path d="M1032.2,667.8l1.695-1.695L1000,632.2l-33.9,33.9L967.8,667.8l32.2-32.2Z" transform="translate(-915.254 -530.508)" fill="#fff"/><path d="M1015.254,684.746l1.695-1.695L1000,666.1l-16.949,16.949,1.695,1.695L1000,669.492Z" transform="translate(-915.254 -530.508)" fill="#fff"/></g><g transform="translate(1195.254 561.508)"><path d="M1200,533.9v-3.39l-84.746,84.746,1.695,1.695L1200,533.9Z" transform="translate(-1115.254 -530.508)" fill="#fff"/><path d="M1200,564.407l-67.8,67.8,1.695,1.695,66.1-66.1Z" transform="translate(-1115.254 -530.508)" fill="#fff"/><path d="M1200,598.305l-50.847,50.847,1.695,1.695L1200,601.695Z" transform="translate(-1115.254 -530.508)" fill="#fff"/><path d="M1200,632.2l-33.9,33.9,1.695,1.695,32.2-32.2Z" transform="translate(-1115.254 -530.508)" fill="#fff"/><path d="M1200,669.492V666.1l-16.949,16.949,1.695,1.695L1200,669.492Z" transform="translate(-1115.254 -530.508)" fill="#fff"/></g><g transform="translate(1210.509 761.508)"><path d="M1200,733.9v-3.39L1130.509,800h3.39l66.1-66.1Z" transform="translate(-1130.509 -730.508)" fill="#fff"/><path d="M1200,764.407,1164.407,800h3.39l32.2-32.2Z" transform="translate(-1130.509 -730.508)" fill="#fff"/><path d="M1198.305,800H1200v-1.695Z" transform="translate(-1130.509 -730.508)" fill="#fff"/></g><g transform="translate(1195.254)"><path d="M1130.509,0l-15.254,15.254,1.695,1.695L1133.9,0Z" transform="translate(-1115.254)" fill="#fff"/><path d="M1164.407,0l-32.2,32.2L1133.9,33.9,1167.8,0Z" transform="translate(-1115.254)" fill="#fff"/><path d="M1200,0h-1.695l-49.152,49.153,1.695,1.695L1200,1.695Z" transform="translate(-1115.254)" fill="#fff"/><path d="M1200,32.2l-33.9,33.9L1167.8,67.8l32.2-32.2Z" transform="translate(-1115.254)" fill="#fff"/><path d="M1200,69.492V66.1l-16.949,16.949,1.695,1.695L1200,69.492Z" transform="translate(-1115.254)" fill="#fff"/></g></g></svg>