<svg xmlns="http://www.w3.org/2000/svg" viewBox="0 0 152.121 152.121"><defs><style>.a{fill:none;stroke:#000;stroke-linecap:round;stroke-linejoin:round;stroke-miterlimit:10;stroke-width:1.5px;}</style></defs><g transform="translate(1.06 1.061)"><line class="a" x1="6.749" y2="6.749"/><line class="a" x1="13.836" y2="14.005" transform="translate(0 7.087)"/><line class="a" x1="21.091" y2="21.26" transform="translate(0 14.173)"/><line class="a" x1="28.178" y2="28.346" transform="translate(0 21.429)"/><line class="a" x1="35.433" y2="35.433" transform="translate(0 28.515)"/><line class="a" x1="42.52" y2="42.52" transform="translate(0 35.771)"/><line class="a" x1="49.775" y2="49.775" transform="translate(0 42.857)"/><line class="a" x1="56.862" y2="57.03" transform="translate(0 49.944)"/><line class="a" x1="63.948" y2="64.117" transform="translate(0 57.199)"/><line class="a" x1="71.204" y2="71.372" transform="translate(0 64.286)"/><line class="a" x1="78.29" y2="78.459" transform="translate(0 71.541)"/><line class="a" x1="71.372" y2="71.372" transform="translate(14.173 78.628)"/><line class="a" x1="64.117" y2="64.117" transform="translate(28.515 85.883)"/><line class="a" x1="57.03" y2="57.03" transform="translate(42.857 92.97)"/><line class="a" x1="49.775" y2="49.944" transform="translate(57.199 100.056)"/><line class="a" x1="42.52" y2="42.688" transform="translate(71.541 107.312)"/><line class="a" x1="35.433" y2="35.602" transform="translate(85.883 114.398)"/><line class="a" x1="28.346" y2="28.346" transform="translate(100.056 121.654)"/><line class="a" x1="21.26" y2="21.26" transform="translate(114.398 128.74)"/><line class="a" x1="14.005" y2="14.005" transform="translate(128.74 135.996)"/><line class="a" x1="6.918" y2="6.918" transform="translate(143.082 143.082)"/></g></svg>